<svg width="280" height="109" viewBox="0 0 280 109" fill="none" xmlns="http://www.w3.org/2000/svg">
<g clip-path="url(#clip0_6001_923)">
<path d="M59.9417 11.0664C57.1329 14.1881 55.4702 22.3757 53.4506 30.3764C51.3933 38.5547 49.3549 43.5551 43.0141 43.6393C38.5708 43.7047 36.0439 40.7512 34.663 37.9846C34.7758 38.8538 37.2557 44.2655 42.9108 44.2655C49.8809 44.2655 52.22 39.1435 54.2396 30.6288C58.2132 13.833 61.4165 10.6738 61.4165 10.6738C61.4165 10.6738 60.6086 10.9262 59.9323 11.0664H59.9417Z" fill="#EE7E05"></path>
<path d="M49.12 84.3811C49.12 84.3811 71.5147 84.3811 80.0443 63.5849C86.0469 46.6115 74.981 32.2084 74.9341 23.0674L76.9443 23.7684C76.9443 23.7684 76.2492 26.1144 79.9409 37.1995C83.783 48.7145 83.8769 57.9956 80.1288 65.5477C76.3807 73.0997 67.8512 84.3811 49.1106 84.3811H49.12Z" fill="#E73440"></path>
<path d="M76.6156 12.0664C76.6156 12.0664 76.9444 11.4683 77.8368 11.1879C82.0076 11.5617 84.1118 12.8235 84.1118 12.8235C84.1118 12.8235 80.9743 14.6461 79.894 16.4593C81.5473 18.0483 81.9982 19.7587 81.0588 21.5906C79.6967 24.2264 75.0656 24.9087 73.8162 22.1047C72.2663 18.6184 74.7932 16.9734 74.7932 16.9734C74.7932 16.9734 72.9144 18.796 74.4174 21.0298C75.9204 23.2637 79.5746 22.9365 80.2322 20.2354C80.8897 17.5342 77.7052 16.0855 77.7052 16.0855C77.7052 16.0855 80.514 13.3376 82.1109 12.8235C79.1613 12.216 76.625 12.0664 76.625 12.0664H76.6156Z" fill="#E73440"></path>
<path d="M69.0066 13.2441C69.0066 13.2441 70.6975 12.6459 71.712 12.7581C71.9187 10.7953 70.8666 10.1691 70.0587 10.7953C69.2508 11.4215 69.0066 13.2441 69.0066 13.2441Z" fill="#E73440"></path>
<path d="M69.9178 5.97247C69.9178 5.97247 76.4183 5.49579 75.9674 11.5804C76.2398 11.2066 76.8128 11.2439 76.8128 10.9822C76.841 6.87909 72.8768 5.27147 69.9178 5.97247Z" fill="#EE7E05"></path>
<path d="M63.6428 6.46784C62.8443 5.76685 61.8862 5.3369 60.8904 5.13128C59.9041 4.92565 58.8802 4.92565 57.922 5.12193C56.9544 5.30886 56.0432 5.69207 55.2729 6.25287C54.4933 6.81366 53.8639 7.5427 53.3942 8.38389L53.2157 7.53335C53.5727 7.8044 54.0048 8.03807 54.4463 8.23435C54.8972 8.43997 55.3669 8.60821 55.846 8.74841C56.8041 9.02881 57.7999 9.19705 58.7956 9.22509C59.7913 9.24378 60.7871 9.11293 61.6701 8.68298C62.1116 8.46801 62.5061 8.16892 62.8443 7.78571C63.0134 7.59878 63.1637 7.39315 63.2952 7.16884C63.361 7.05668 63.4267 6.94452 63.4831 6.83236L63.6522 6.46784H63.6428ZM63.6428 6.46784L63.577 6.8604C63.5489 7.0006 63.5113 7.1221 63.4737 7.25295C63.3892 7.50531 63.2764 7.75767 63.1355 8.00068C62.8631 8.48671 62.4592 8.89796 61.9989 9.23443C61.0689 9.89804 59.9229 10.1878 58.8144 10.2719C57.6965 10.3467 56.5787 10.2252 55.4984 9.96347C54.4181 9.68307 53.366 9.29986 52.3891 8.58952L51.9194 8.24369L52.2106 7.73898C52.4924 7.24361 52.8306 6.76693 53.2251 6.34633C53.6196 5.92574 54.0612 5.54253 54.5402 5.22474C55.5078 4.58917 56.6256 4.21531 57.7529 4.10315C58.8802 3.99099 60.0262 4.13119 61.0595 4.52375C62.0928 4.91631 63.051 5.57057 63.624 6.47719L63.6428 6.46784Z" fill="#EE7E05"></path>
<path d="M29.8534 26.292C30.2479 25.6564 30.3889 24.9461 30.3607 24.2451C30.3513 23.5441 30.1822 22.8618 29.938 22.2262C29.6843 21.5813 29.3368 20.9831 28.914 20.469C28.4819 19.955 27.9747 19.5157 27.3922 19.1979L28.1062 19.0484C27.9559 19.2446 27.8337 19.5437 27.7492 19.8522C27.6647 20.1699 27.6083 20.5064 27.5801 20.8429C27.5144 21.5252 27.5425 22.2262 27.6553 22.9178C27.768 23.6001 27.9653 24.2824 28.3128 24.8806C28.651 25.4882 29.1677 26.0022 29.8628 26.3013L29.8534 26.292ZM29.8534 26.292C29.4777 26.2639 29.1019 26.1424 28.7637 25.9461C28.4256 25.7499 28.125 25.4882 27.8619 25.1891C27.3547 24.5815 27.0071 23.8525 26.8004 23.1048C26.5844 22.3477 26.4998 21.5719 26.528 20.7775C26.5468 20.3849 26.5938 19.983 26.6877 19.5811C26.791 19.1792 26.9226 18.7773 27.2232 18.3754L27.505 17.9922L27.9277 18.2259C28.6416 18.6278 29.2616 19.1792 29.7407 19.8241C30.2198 20.469 30.5673 21.1981 30.7646 21.9551C30.9713 22.7122 31.0182 23.516 30.9055 24.2824C30.7834 25.0489 30.4452 25.8059 29.8534 26.292Z" fill="#EE7E05"></path>
<path d="M67.1749 5.61731C67.2124 4.8322 66.9306 4.10316 66.5267 3.48629C66.1228 2.86941 65.5779 2.3647 64.9673 2.00018C64.3567 1.62631 63.671 1.3833 62.957 1.2431C62.6001 1.17768 62.2431 1.13094 61.8768 1.11225C61.5104 1.08421 61.1441 1.09356 60.7683 1.11225L61.2944 0.532762C61.3319 1.14964 61.5762 1.8039 61.9237 2.39273C62.2713 2.99092 62.7316 3.54237 63.2483 4.02839C63.7743 4.50507 64.3567 4.93501 65.0143 5.22475C65.6719 5.52384 66.4046 5.67339 67.1655 5.61731H67.1749ZM67.1749 5.61731C66.4609 5.9164 65.6249 5.92575 64.8452 5.73882C64.0655 5.54254 63.3328 5.17802 62.694 4.70134C62.0459 4.22467 61.4822 3.63583 61.0313 2.95353C60.5898 2.27123 60.2423 1.48611 60.1859 0.588842L60.1483 0.0373927L60.7119 0.00935292C61.5386 -0.0280335 62.3746 0.0093529 63.1919 0.224325C64.0092 0.420603 64.7982 0.775774 65.4746 1.28984C66.1509 1.8039 66.6864 2.4862 67.0152 3.24327C67.1749 3.62649 67.2876 4.02839 67.3158 4.43029C67.3346 4.63592 67.3346 4.84154 67.3158 5.03782C67.2876 5.2341 67.25 5.43973 67.1749 5.61731Z" fill="#EE7E05"></path>
<path d="M70.3217 5.4958C70.5566 5.04717 70.5848 4.5518 70.5284 4.10316C70.472 3.64518 70.2936 3.21523 70.0587 2.84137C69.8145 2.46751 69.5045 2.14038 69.1381 1.86932C68.7812 1.58893 68.3772 1.37395 67.9451 1.18702L68.5275 0.962704C68.3772 1.29918 68.3303 1.72912 68.349 2.15907C68.3678 2.58901 68.4618 3.0283 68.6121 3.4489C68.7624 3.8695 68.9596 4.28075 69.2415 4.63592C69.5139 5.00043 69.8708 5.29952 70.3217 5.50515V5.4958ZM70.3217 5.4958C69.8239 5.48646 69.3354 5.25279 68.9315 4.92566C68.5369 4.59853 68.2081 4.17793 67.9733 3.7106C67.7385 3.25262 67.5788 2.7479 67.513 2.21515C67.4566 1.69174 67.4848 1.13094 67.7197 0.579494L67.8981 0.168243L68.3021 0.355175C68.7906 0.570147 69.2602 0.841198 69.6736 1.20572C70.0869 1.56089 70.4345 2.00018 70.6693 2.49555C70.9042 2.99092 71.0075 3.55171 70.9605 4.08447C70.9042 4.60788 70.7163 5.14998 70.3217 5.48646V5.4958Z" fill="#EE7E05"></path>
<path d="M31.4785 29.0025C31.9576 28.8249 32.3146 28.4884 32.5776 28.1052C32.8406 27.722 33.0003 27.2921 33.0755 26.8528C33.1506 26.4135 33.1412 25.9648 33.0567 25.5162C32.9815 25.0769 32.8218 24.6376 32.634 24.217L33.2164 24.4413C32.8782 24.5909 32.5494 24.8806 32.277 25.2078C32.0046 25.5442 31.7791 25.9274 31.6006 26.3387C31.4316 26.7499 31.3 27.1892 31.2719 27.6379C31.2343 28.0865 31.2907 28.5538 31.4879 29.0025H31.4785ZM31.4785 29.0025C31.1216 28.6567 30.9149 28.1613 30.8304 27.6566C30.7552 27.1425 30.8022 26.6191 30.9337 26.1144C31.0652 25.6097 31.2907 25.133 31.6006 24.703C31.9106 24.2731 32.3146 23.8805 32.8594 23.6282L33.2633 23.4413L33.4418 23.8525C33.6579 24.3385 33.8176 24.8526 33.8833 25.3947C33.9491 25.9368 33.9115 26.4976 33.7518 27.021C33.5921 27.5444 33.2915 28.0211 32.897 28.3949C32.5025 28.7501 31.9952 29.0212 31.4785 29.0025Z" fill="#EE7E05"></path>
<path d="M32.6151 32.629C32.9533 32.4701 33.2069 32.2084 33.3854 31.9186C33.5639 31.6289 33.6578 31.3018 33.6954 30.9746C33.7236 30.6475 33.6954 30.311 33.6109 29.9932C33.5357 29.6661 33.3948 29.3577 33.2351 29.0492L33.6766 29.1894C33.4324 29.3203 33.2069 29.5446 33.0191 29.797C32.8312 30.0587 32.6809 30.3484 32.5682 30.6662C32.4648 30.9746 32.3897 31.3018 32.3897 31.6382C32.3897 31.9747 32.446 32.3112 32.6151 32.6383V32.629ZM32.6151 32.629C32.3333 32.3953 32.1548 32.0308 32.0703 31.6663C31.9951 31.2924 32.0045 30.8999 32.0703 30.526C32.1454 30.1521 32.2864 29.7876 32.493 29.4511C32.6997 29.124 32.9815 28.8062 33.3666 28.6006L33.6578 28.4417L33.8081 28.7314C33.9866 29.0773 34.1369 29.4511 34.2027 29.853C34.2778 30.2456 34.2778 30.6662 34.1745 31.0587C34.0806 31.4513 33.8833 31.8252 33.6109 32.1149C33.3385 32.3953 32.9721 32.6196 32.587 32.629H32.6151Z" fill="#EE7E05"></path>
<path d="M33.8833 35.4797C34.1369 35.3395 34.2779 35.0965 34.3624 34.8535C34.4563 34.6105 34.4845 34.3394 34.4751 34.087C34.4657 33.8253 34.4188 33.573 34.3342 33.3206C34.2591 33.0683 34.1463 32.8252 34.0242 32.5916L34.3718 32.6757C34.2027 32.7879 34.0618 33.0028 33.9585 33.2178C33.8457 33.4421 33.78 33.6851 33.7236 33.9375C33.6767 34.1899 33.6485 34.4516 33.6767 34.7133C33.6954 34.975 33.7518 35.2367 33.8739 35.4797H33.8833ZM33.8833 35.4797C33.6673 35.2928 33.5357 35.031 33.4512 34.7506C33.3761 34.4703 33.3385 34.1805 33.3573 33.8908C33.3667 33.601 33.4418 33.3113 33.5451 33.0309C33.6579 32.7598 33.8176 32.4794 34.0994 32.2738L34.3248 32.1056L34.4563 32.3579C34.5879 32.6196 34.71 32.9 34.7851 33.1898C34.8509 33.4795 34.8885 33.788 34.8603 34.087C34.8321 34.3861 34.7382 34.6852 34.5785 34.9469C34.4188 35.1993 34.1839 35.433 33.8833 35.4703V35.4797Z" fill="#EE7E05"></path>
<path d="M30.8961 29.7315C30.5109 30.0773 29.9473 30.1895 29.4119 30.1708C28.8764 30.1334 28.3316 29.9558 27.8713 29.6567C27.411 29.3576 27.0165 28.9464 26.7252 28.4978C26.4246 28.0398 26.218 27.5444 26.0771 27.0303L25.955 26.6004L26.3871 26.4882C26.9601 26.3294 27.5237 26.3854 28.0404 26.5163C28.557 26.6565 29.0361 26.8808 29.4588 27.1799C29.8816 27.479 30.2573 27.8528 30.5297 28.2921C30.7927 28.7314 30.9524 29.2455 30.8961 29.7409V29.7315ZM30.8961 29.7315C30.7552 29.2642 30.5015 28.8623 30.1822 28.5445C29.8722 28.2174 29.487 27.965 29.0925 27.7594C28.6979 27.5538 28.2752 27.4042 27.8431 27.3201C27.4204 27.236 26.9883 27.2266 26.6219 27.3201L26.9225 26.778C27.054 27.2266 27.2137 27.6566 27.4392 28.0491C27.6552 28.4417 27.937 28.7969 28.2846 29.0866C28.6228 29.3763 29.0267 29.61 29.4776 29.7315C29.9191 29.853 30.417 29.8904 30.8961 29.7315Z" fill="#EE7E05"></path>
<path d="M32.0139 32.9654C31.7321 33.2272 31.3188 33.33 30.9242 33.3206C30.5203 33.3113 30.1258 33.1898 29.7782 32.9748C29.4212 32.7692 29.13 32.4701 28.8952 32.1429C28.6604 31.8158 28.5007 31.4513 28.3785 31.0774L28.2752 30.7597L28.5946 30.6662C29.0173 30.5353 29.4306 30.5634 29.8158 30.6475C30.2009 30.7316 30.5579 30.8905 30.8867 31.1055C31.2061 31.3111 31.4973 31.5822 31.7039 31.8999C31.9106 32.2177 32.0421 32.6009 32.0139 32.9654ZM32.0139 32.9654C31.9012 32.6196 31.7039 32.3392 31.4503 32.1056C31.2061 31.8719 30.9242 31.6943 30.6236 31.5541C30.323 31.4139 30.0037 31.3111 29.6937 31.2644C29.3743 31.2176 29.0549 31.2176 28.7919 31.3018L29.0079 30.8905C29.1113 31.2176 29.2428 31.5354 29.4212 31.8158C29.5903 32.1056 29.8158 32.3579 30.0694 32.5635C30.3324 32.7692 30.633 32.9281 30.9712 33.0122C31.3 33.0963 31.6664 33.1056 32.0233 32.9748L32.0139 32.9654Z" fill="#EE7E05"></path>
<path d="M33.2633 35.4143C33.113 35.6386 32.8218 35.7694 32.5306 35.7881C32.2394 35.8068 31.9388 35.7227 31.6852 35.5638C31.4315 35.4143 31.2249 35.1993 31.0558 34.975C30.8867 34.7413 30.7552 34.4889 30.6519 34.2366L30.5673 34.0403L30.7552 33.9375C31.0464 33.7879 31.3564 33.7599 31.6382 33.8066C31.92 33.8534 32.1924 33.9468 32.4273 34.0964C32.6621 34.2366 32.8688 34.4329 33.0191 34.6572C33.1694 34.8815 33.2633 35.1432 33.2633 35.4049V35.4143ZM33.2633 35.4143C33.0473 34.9469 32.6715 34.6198 32.2488 34.4329C32.0328 34.3394 31.8167 34.274 31.5912 34.2646C31.3752 34.2459 31.1497 34.274 30.99 34.3674L31.0934 34.0683C31.2812 34.5263 31.5255 34.9656 31.9012 35.2647C32.0891 35.4143 32.3052 35.5264 32.54 35.5545C32.7749 35.5918 33.0379 35.5544 33.2633 35.4143Z" fill="#EE7E05"></path>
<path d="M34.7476 37.564C34.9354 37.4518 35.0388 37.2742 35.1139 37.0873C35.1797 36.9004 35.2079 36.7041 35.1985 36.5078C35.1797 36.1152 35.0482 35.732 34.8603 35.3862L35.1233 35.4516C35.0012 35.5358 34.8885 35.6946 34.8133 35.8629C34.7288 36.0311 34.6724 36.2181 34.6348 36.405C34.5691 36.7882 34.5597 37.1901 34.7476 37.564ZM34.7476 37.564C34.5879 37.4238 34.4845 37.2275 34.4188 37.0125C34.3624 36.8069 34.3342 36.5826 34.353 36.3676C34.3624 36.1526 34.4188 35.9283 34.4939 35.7227C34.5785 35.5171 34.7006 35.3114 34.9166 35.1525L35.0857 35.031L35.1797 35.218C35.3863 35.6105 35.5272 36.0685 35.4803 36.5265C35.4615 36.7508 35.3863 36.9845 35.2736 37.1714C35.1515 37.3583 34.973 37.5359 34.7476 37.564Z" fill="#EE7E05"></path>
<path d="M34.1745 37.5827C34.043 37.7415 33.8176 37.8257 33.6015 37.8163C33.3761 37.8163 33.16 37.7322 32.9815 37.6013C32.7937 37.4798 32.6621 37.3023 32.54 37.1247C32.4179 36.9471 32.3522 36.7415 32.277 36.5452L32.2206 36.3956L32.3709 36.3302C32.5964 36.2367 32.8312 36.2367 33.0473 36.2835C33.254 36.3396 33.4512 36.4237 33.6203 36.5452C33.9585 36.7882 34.1933 37.1901 34.1745 37.5827ZM34.1745 37.5827C34.043 37.2181 33.78 36.9471 33.47 36.7882C33.3103 36.7041 33.1506 36.648 32.9815 36.62C32.8218 36.5919 32.6528 36.6013 32.5306 36.6573L32.6246 36.4424C32.6809 36.62 32.7467 36.7975 32.8406 36.9564C32.9252 37.1153 33.0285 37.2649 33.16 37.3864C33.2915 37.5079 33.4418 37.6013 33.6203 37.6481C33.7988 37.6948 33.9961 37.6855 34.1745 37.5827Z" fill="#EE7E05"></path>
<path d="M12.8789 65.9029C12.3622 65.2206 11.6577 64.7719 10.8968 64.5102C10.1453 64.2392 9.33743 64.1177 8.54835 64.1177C7.75928 64.1177 6.9702 64.2298 6.23749 64.4728C5.50477 64.7158 4.81903 65.071 4.23661 65.5477L4.37752 64.7345C4.51843 64.9775 4.79085 65.2299 5.09145 65.4449C5.39205 65.6692 5.73022 65.8655 6.07779 66.0431C6.78233 66.3982 7.54322 66.6599 8.3323 66.8282C9.11198 66.9964 9.91984 67.0618 10.7089 66.959C11.498 66.8562 12.2683 66.5197 12.8789 65.9122V65.9029ZM12.8789 65.9029C12.691 66.2861 12.3998 66.6319 12.0522 66.9123C11.7047 67.1927 11.2913 67.3983 10.8592 67.5479C9.99499 67.8376 9.06501 67.8937 8.1726 67.8002C7.2708 67.7068 6.39718 67.4731 5.56114 67.1179C5.13842 66.9403 4.73448 66.716 4.34934 66.445C3.9642 66.1646 3.58844 65.8561 3.27845 65.3701L2.98724 64.9028L3.41936 64.5476C4.15207 63.9494 5.0069 63.5288 5.88992 63.2952C6.78233 63.0615 7.70291 62.9961 8.60472 63.0989C9.50652 63.2017 10.3895 63.4727 11.1598 63.9307C11.9301 64.3887 12.6065 65.0617 12.8695 65.8842L12.8789 65.9029Z" fill="#EE7E05"></path>
<path d="M16.4579 65.314C16.4767 64.7532 16.2888 64.2485 16.007 63.8279C15.7252 63.398 15.34 63.0708 14.9173 62.8278C14.4852 62.5848 14.0155 62.4259 13.5176 62.3511C13.2734 62.3138 13.0198 62.2857 12.7661 62.2764C12.5125 62.267 12.2589 62.2764 11.9958 62.2951L12.4561 61.7903C12.4561 62.2016 12.6158 62.6409 12.8413 63.0521C13.0667 63.4634 13.3767 63.8466 13.7337 64.1831C14.0906 64.5196 14.4946 64.8186 14.9455 65.0149C15.3964 65.2299 15.9036 65.3327 16.4485 65.3047L16.4579 65.314ZM16.4579 65.314C15.9694 65.557 15.3682 65.5851 14.814 65.4823C14.2503 65.3701 13.7149 65.1271 13.2452 64.7906C12.7755 64.4541 12.3622 64.0335 12.0428 63.5382C11.7234 63.0428 11.4886 62.4633 11.4698 61.809V61.3324L11.9301 61.3043C12.5125 61.2669 13.1137 61.2856 13.7055 61.4258C14.2973 61.5567 14.8703 61.809 15.3494 62.1736C15.8379 62.5474 16.223 63.0428 16.4391 63.6036C16.6364 64.155 16.7021 64.7906 16.4579 65.3047V65.314Z" fill="#EE7E05"></path>
<path d="M20.7415 64.9215C20.6851 64.5102 20.4784 64.1644 20.2248 63.884C19.9712 63.6036 19.6518 63.3886 19.3136 63.2484C18.9754 63.1082 18.6091 63.0334 18.2333 63.0147C17.8576 62.9961 17.4818 63.0334 17.1061 63.0989L17.3973 62.6783C17.4536 62.9774 17.6227 63.2951 17.8388 63.5755C18.0548 63.8559 18.3273 64.1083 18.6185 64.3326C18.9191 64.5476 19.2385 64.7345 19.5954 64.8467C19.9524 64.9682 20.3375 65.0056 20.7321 64.9401L20.7415 64.9215ZM20.7415 64.9215C20.3939 65.1458 19.9524 65.2112 19.5297 65.1832C19.1069 65.1458 18.6842 65.0149 18.3085 64.8093C17.9327 64.6037 17.5852 64.342 17.2939 64.0055C17.0027 63.6784 16.7679 63.2858 16.6646 62.7998L16.5894 62.4446L16.9558 62.3792C17.3879 62.3044 17.8294 62.267 18.2803 62.3231C18.7218 62.3698 19.1727 62.51 19.5578 62.7344C19.9524 62.9587 20.2812 63.2951 20.4972 63.669C20.7039 64.0522 20.8354 64.5102 20.7227 64.9215H20.7415Z" fill="#EE7E05"></path>
<path d="M24.9123 63.5662C24.8184 63.1923 24.5553 62.9213 24.2547 62.753C23.9541 62.5755 23.616 62.5007 23.2684 62.4726C22.9208 62.4539 22.5733 62.5007 22.2351 62.5755C21.8969 62.6596 21.5587 62.7717 21.2206 62.9213L21.4084 62.5007C21.493 62.7437 21.709 62.9774 21.9627 63.1549C22.2257 63.3419 22.5263 63.4821 22.8457 63.5849C23.1651 63.6877 23.5032 63.7438 23.8508 63.7438C24.1984 63.7438 24.546 63.6877 24.8935 63.5568L24.9123 63.5662ZM24.9123 63.5662C24.6399 63.8186 24.2829 63.9868 23.9072 64.0803C23.5314 64.1644 23.1275 64.1737 22.7423 64.1083C22.3478 64.0429 21.9721 63.912 21.6245 63.697C21.2769 63.4821 20.9481 63.1736 20.7884 62.725L20.6757 62.4259L20.9669 62.3044C21.3333 62.1455 21.7184 62.024 22.1224 61.9586C22.5263 61.8932 22.9396 61.8745 23.3529 61.9586C23.7569 62.0334 24.1608 62.2109 24.4708 62.4913C24.7714 62.7717 24.9875 63.183 24.9217 63.5662H24.9123Z" fill="#EE7E05"></path>
<path d="M16.9933 66.2487C17.0967 66.5197 17.1154 66.8282 17.0873 67.1273C17.0591 67.4263 16.9651 67.7254 16.843 68.0058C16.5894 68.5666 16.1667 69.062 15.65 69.4265C15.1334 69.791 14.5322 70.034 13.9216 70.1556C13.311 70.2864 12.6816 70.2864 12.0804 70.2303L11.5731 70.1836L11.6295 69.6789C11.7046 69.0059 11.9958 68.4264 12.3528 67.9311C12.7192 67.445 13.1607 67.0244 13.6585 66.6973C14.1564 66.3702 14.7106 66.1272 15.3024 66.0244C15.8849 65.9309 16.5048 65.9683 17.0121 66.2393L16.9933 66.2487ZM16.9933 66.2487C16.4297 66.2019 15.9036 66.3048 15.4246 66.5104C14.9455 66.716 14.5134 67.0058 14.1282 67.3422C13.7431 67.6787 13.4049 68.0619 13.1419 68.4825C12.8789 68.8938 12.6816 69.3518 12.644 69.7817L12.1837 69.2302C12.7098 69.277 13.2452 69.2863 13.7619 69.2116C14.2785 69.1461 14.7764 68.9966 15.2273 68.7536C15.6782 68.5106 16.0915 68.1834 16.4203 67.7628C16.7397 67.3422 16.9839 66.8282 17.0027 66.258L16.9933 66.2487Z" fill="#EE7E05"></path>
<path d="M21.23 65.5944C21.4366 66.0057 21.4084 66.5197 21.2675 66.9777C21.1172 67.4357 20.8354 67.8563 20.4597 68.1834C20.0933 68.5199 19.6518 68.7536 19.1821 68.9031C18.7124 69.0526 18.2334 69.1181 17.7543 69.1274H17.3503V68.7349C17.3503 68.2021 17.5194 67.7348 17.7543 67.3142C17.9891 66.9029 18.2991 66.5384 18.6655 66.2487C19.0224 65.9496 19.4358 65.7159 19.8773 65.5851C20.3188 65.4636 20.8072 65.4449 21.2206 65.6038L21.23 65.5944ZM21.23 65.5944C20.7885 65.6038 20.3845 65.7346 20.037 65.9402C19.68 66.1365 19.37 66.3982 19.0976 66.6973C18.8346 66.9964 18.5997 67.3235 18.4306 67.6694C18.2615 68.0152 18.1488 68.389 18.1582 68.7162L17.7543 68.3236C18.1676 68.3236 18.5809 68.2769 18.9755 68.1741C19.37 68.0806 19.7364 67.9124 20.0745 67.6974C20.4033 67.4731 20.6945 67.174 20.9106 66.8188C21.1172 66.4636 21.2675 66.0524 21.23 65.5944Z" fill="#EE7E05"></path>
<path d="M24.5929 64.5102C24.8747 64.7813 24.978 65.2112 24.9311 65.6131C24.8841 66.0244 24.6868 66.4076 24.4144 66.716C24.142 67.0338 23.7944 67.2581 23.4375 67.4357C23.0711 67.6133 22.6954 67.7254 22.3102 67.8096L22.0096 67.875L21.9157 67.5946C21.7748 67.1553 21.8217 66.716 21.9533 66.3422C22.0848 65.9589 22.2914 65.6225 22.5638 65.3327C22.8269 65.043 23.1463 64.8187 23.5032 64.6598C23.8602 64.5102 24.2453 64.4448 24.6023 64.5102H24.5929ZM24.5929 64.5102C24.2359 64.6037 23.9259 64.7532 23.6535 64.9495C23.3811 65.1458 23.1557 65.3888 22.9678 65.6598C22.7893 65.9309 22.639 66.2206 22.5638 66.5197C22.4793 66.8188 22.4699 67.1273 22.5545 67.3703L22.1693 67.146C22.8551 67.0058 23.5314 66.7721 24.0387 66.3422C24.2923 66.1272 24.499 65.8561 24.6117 65.5383C24.7244 65.2206 24.7526 64.856 24.6023 64.5102H24.5929Z" fill="#EE7E05"></path>
<path d="M18.1581 26.3854C18.6748 25.3199 18.7499 24.1703 18.609 23.0861C18.4587 21.9925 18.1018 20.9457 17.5945 19.983C17.0872 19.0203 16.4485 18.1417 15.6782 17.394C14.9173 16.6556 14.0343 16.0481 13.0761 15.6462L14.1658 15.291C13.9591 15.6182 13.8276 16.1135 13.7431 16.6182C13.6585 17.123 13.6397 17.6651 13.6397 18.2072C13.6585 19.2914 13.8182 20.3849 14.1094 21.4504C14.4006 22.5066 14.8327 23.5347 15.4715 24.4227C15.7909 24.8713 16.1761 25.2732 16.6176 25.6097C17.0591 25.9461 17.5757 26.2079 18.1487 26.3854H18.1581ZM18.1581 26.3854C16.9651 26.4228 15.7345 25.8527 14.8421 24.9928C13.9309 24.1329 13.2828 23.0394 12.8131 21.8897C12.3528 20.7401 12.0804 19.525 11.9864 18.2819C11.9395 17.6557 11.9489 17.0295 12.0334 16.3752C12.0804 16.0481 12.1367 15.7303 12.2401 15.3938C12.334 15.0667 12.4655 14.7209 12.6722 14.3844L13.0573 13.7301L13.7619 14.0292C14.3537 14.2816 14.9267 14.5994 15.4527 14.9732C15.9694 15.3471 16.4579 15.7677 16.8806 16.235C17.7354 17.1697 18.4118 18.2539 18.8533 19.4129C19.2948 20.5719 19.539 21.815 19.4733 23.0487C19.4357 23.6656 19.3324 24.2731 19.1069 24.8526C18.9942 25.1423 18.8721 25.4134 18.7124 25.6751C18.5527 25.9275 18.3742 26.1705 18.1581 26.3761V26.3854Z" fill="#EE7E05"></path>
<path d="M21.4647 30.4138C22.1317 29.9839 22.5544 29.3296 22.8362 28.666C23.1087 27.9931 23.2308 27.2827 23.212 26.5817C23.1932 25.8807 23.0429 25.1891 22.7893 24.5255C22.6671 24.1983 22.5168 23.8712 22.3384 23.5628C22.1693 23.245 21.972 22.9459 21.7653 22.6468L22.7423 22.8057C22.2726 23.1609 21.8687 23.7123 21.5493 24.3105C21.2393 24.918 21.0045 25.5816 20.8635 26.2639C20.7226 26.9462 20.6663 27.6566 20.7414 28.3669C20.8166 29.0773 21.0232 29.7783 21.4647 30.4138ZM21.4647 30.4138C20.8166 29.9932 20.3469 29.2735 20.0839 28.5165C19.8208 27.75 19.7457 26.9275 19.7927 26.1237C19.849 25.3106 20.0369 24.5161 20.3751 23.7497C20.7132 22.9926 21.1829 22.2636 21.925 21.6934L22.4981 21.2635L22.902 21.8523C23.3717 22.5346 23.7756 23.2824 24.0292 24.0955C24.2829 24.9087 24.3956 25.7779 24.3017 26.6284C24.2077 27.479 23.9165 28.3015 23.428 28.9931C23.1838 29.3296 22.8926 29.6474 22.5638 29.8904C22.3947 30.0119 22.2256 30.1241 22.0378 30.2175C21.8593 30.3017 21.6526 30.3764 21.4647 30.4138Z" fill="#EE7E05"></path>
<path d="M24.405 34.7506C24.8653 34.4142 25.1471 33.9375 25.3256 33.4515C25.5135 32.9654 25.5792 32.442 25.5698 31.9373C25.5511 31.4326 25.4477 30.9279 25.2598 30.4512C25.0814 29.9745 24.8277 29.5259 24.5271 29.096L25.2411 29.1894C24.9123 29.4605 24.6399 29.8717 24.4238 30.3204C24.2077 30.769 24.0574 31.255 23.9635 31.7504C23.8696 32.2458 23.8226 32.7598 23.8884 33.2739C23.9353 33.7879 24.095 34.2927 24.405 34.7506ZM24.405 34.7506C23.9353 34.4422 23.6065 33.9281 23.4187 33.386C23.2402 32.8346 23.165 32.2458 23.2026 31.6663C23.2308 31.0868 23.3623 30.5073 23.5784 29.9558C23.8038 29.4044 24.1138 28.8716 24.6211 28.4417L25.025 28.0959L25.3256 28.5352C25.6638 29.0305 25.955 29.5633 26.1335 30.1428C26.3119 30.7223 26.3965 31.3391 26.3307 31.9467C26.2744 32.5542 26.0677 33.143 25.7483 33.6477C25.5792 33.9001 25.3914 34.1244 25.1659 34.3207C24.9405 34.5076 24.6774 34.6665 24.405 34.732V34.7506Z" fill="#EE7E05"></path>
<path d="M26.9977 38.3584C27.411 38.1154 27.6459 37.7135 27.7962 37.3023C27.9465 36.891 27.9934 36.4424 27.984 36.0124C27.9652 35.5825 27.8807 35.1525 27.7398 34.7319C27.6083 34.3114 27.4204 33.9094 27.2137 33.5169L27.7962 33.6477C27.5237 33.844 27.2889 34.1898 27.1104 34.5637C26.9319 34.9376 26.8098 35.3488 26.7253 35.7694C26.6501 36.19 26.6125 36.6293 26.6501 37.0593C26.6783 37.4985 26.7816 37.9285 26.9977 38.3491V38.3584ZM26.9977 38.3584C26.6407 38.05 26.4059 37.6107 26.265 37.1434C26.1241 36.676 26.0771 36.19 26.1053 35.704C26.1241 35.218 26.2274 34.7319 26.4153 34.2646C26.6031 33.8066 26.8662 33.3393 27.3359 32.9935L27.7022 32.7224L27.9183 33.1243C28.1531 33.5636 28.3504 34.0216 28.4725 34.517C28.5946 35.003 28.651 35.5171 28.604 36.0218C28.5571 36.5265 28.4161 37.0312 28.1437 37.4612C28.0028 37.6761 27.8525 37.8724 27.6553 38.0313C27.4674 38.1902 27.2325 38.3117 26.9977 38.3491V38.3584Z" fill="#EE7E05"></path>
<path d="M20.3657 31.6102C20.2342 31.7597 20.0651 31.8906 19.896 32.0027C19.7175 32.1149 19.5296 32.199 19.3417 32.2831C18.9472 32.4327 18.5339 32.5168 18.1018 32.5448C17.2469 32.5916 16.3733 32.3953 15.603 32.0027C14.8233 31.6102 14.147 31.04 13.6022 30.3671C13.0479 29.7035 12.644 28.9464 12.3246 28.1706L12.0522 27.5164L12.7097 27.264C13.5834 26.9182 14.4758 26.8995 15.3118 27.021C16.1479 27.1519 16.9369 27.4229 17.6603 27.8155C18.3742 28.2174 19.0318 28.7314 19.539 29.3857C20.0369 30.0306 20.3657 30.8157 20.3657 31.6008V31.6102ZM20.3657 31.6102C20.0651 30.8905 19.5954 30.3203 19.0411 29.8717C18.4869 29.4231 17.8575 29.0773 17.1906 28.8249C16.533 28.5725 15.8379 28.4043 15.1615 28.3482C14.4852 28.2921 13.7994 28.3482 13.2546 28.5632L13.6397 27.6566C13.7806 27.993 13.9215 28.3295 14.1 28.6473C14.2691 28.9651 14.457 29.2735 14.6637 29.5633C15.077 30.1428 15.5748 30.6568 16.1667 31.0587C16.7491 31.4606 17.4254 31.741 18.1487 31.8719C18.8721 31.984 19.6517 31.9654 20.3751 31.6195L20.3657 31.6102Z" fill="#EE7E05"></path>
<path d="M23.785 35.2927C23.6441 35.5544 23.4187 35.7788 23.165 35.9564C22.9114 36.1339 22.6202 36.2648 22.3196 36.3583C21.7184 36.5452 21.0514 36.5452 20.4221 36.405C19.7927 36.2554 19.2009 35.9657 18.6936 35.5825C18.177 35.1993 17.7542 34.7319 17.3879 34.2272L17.0779 33.8066L17.51 33.5075C18.083 33.1056 18.7218 32.9374 19.3418 32.8813C19.9618 32.8252 20.5818 32.8813 21.1736 33.0496C21.756 33.2085 22.3196 33.4702 22.7987 33.8534C23.2684 34.2366 23.6535 34.7413 23.785 35.3021V35.2927ZM23.785 35.2927C23.4375 34.8348 23.0053 34.4983 22.5263 34.274C22.0472 34.0496 21.5305 33.9094 21.0139 33.844C20.4972 33.7786 19.9712 33.7786 19.4733 33.8534C18.9754 33.9281 18.4963 34.087 18.1394 34.3394L18.2615 33.6197C18.5809 34.059 18.9285 34.4702 19.3324 34.8067C19.7269 35.1525 20.1778 35.4329 20.6757 35.6199C21.1642 35.8068 21.6996 35.8909 22.2445 35.8535C22.7799 35.8162 23.3435 35.6573 23.8038 35.2834L23.785 35.2927Z" fill="#EE7E05"></path>
<path d="M26.3965 38.7603C26.2462 39.2183 25.8047 39.5735 25.335 39.7511C24.8559 39.9287 24.3111 39.9567 23.8038 39.8445C23.2965 39.7417 22.8175 39.5174 22.4041 39.237C21.9814 38.9566 21.6151 38.6108 21.2863 38.2463L21.0233 37.9472L21.3145 37.6761C21.7372 37.2742 22.2444 37.0873 22.7423 37.0125C23.2402 36.9377 23.7474 36.9564 24.2171 37.0686C24.6962 37.1808 25.1471 37.3864 25.5417 37.6668C25.9268 37.9565 26.2462 38.3304 26.4059 38.7697L26.3965 38.7603ZM26.3965 38.7603C26.0771 38.4332 25.7107 38.1808 25.3162 38.0126C24.9311 37.8444 24.5083 37.7509 24.095 37.7135C23.6817 37.6761 23.2684 37.6948 22.8738 37.7883C22.4887 37.8724 22.1223 38.0406 21.8875 38.265L21.9063 37.6948C22.1975 38.022 22.5075 38.3304 22.855 38.5921C23.1932 38.8538 23.569 39.0688 23.9635 39.209C24.358 39.3492 24.7902 39.4146 25.2129 39.3492C25.6356 39.2931 26.0677 39.1155 26.3777 38.7603H26.3965Z" fill="#EE7E05"></path>
<path d="M29.4025 41.5924C29.7313 41.3587 29.9004 40.9942 29.9849 40.639C30.0788 40.2745 30.0788 39.9006 30.0319 39.5361C29.9755 39.1716 29.8722 38.8164 29.7219 38.4799C29.5716 38.1435 29.3837 37.8163 29.177 37.5079L29.6843 37.5733C29.4682 37.7603 29.2992 38.0687 29.1864 38.4052C29.0643 38.7323 28.9986 39.0968 28.961 39.452C28.9328 39.8165 28.9422 40.181 29.008 40.5455C29.0643 40.9101 29.1958 41.2652 29.4025 41.6017V41.5924ZM29.4025 41.5924C29.0737 41.3587 28.8389 41.0035 28.6886 40.6297C28.5383 40.2464 28.4537 39.8445 28.4349 39.4333C28.4161 39.022 28.4631 38.6108 28.5758 38.1995C28.698 37.7976 28.8764 37.3864 29.2428 37.0499L29.5246 36.7882L29.7407 37.1153C29.9755 37.4612 30.1822 37.835 30.3231 38.2369C30.464 38.6388 30.5579 39.0594 30.5579 39.4894C30.5579 39.9193 30.4828 40.3493 30.2949 40.7418C30.201 40.9287 30.0788 41.1157 29.9285 41.2652C29.7782 41.4148 29.5998 41.5363 29.4025 41.583V41.5924Z" fill="#EE7E05"></path>
<path d="M28.8764 41.854C28.7637 42.2653 28.388 42.5831 27.9746 42.742C27.5519 42.9009 27.0728 42.9196 26.6313 42.8074C26.1898 42.7046 25.7859 42.4896 25.4289 42.2373C25.072 41.9756 24.762 41.6671 24.4896 41.34L24.2735 41.0876L24.4989 40.854C24.8465 40.4894 25.2974 40.3119 25.7389 40.2464C26.1804 40.181 26.6125 40.1997 27.0353 40.3119C27.4486 40.4147 27.8431 40.6109 28.1719 40.8727C28.4913 41.1344 28.7543 41.4802 28.8858 41.854H28.8764ZM28.8764 41.854C28.604 41.5643 28.3034 41.3306 27.9652 41.1717C27.6365 41.0129 27.2795 40.9194 26.9225 40.882C26.5656 40.8446 26.2086 40.854 25.8704 40.9381C25.5417 41.0129 25.2317 41.1624 25.0438 41.368L25.0626 40.882C25.3068 41.1811 25.5698 41.4521 25.861 41.6952C26.1523 41.9288 26.4622 42.1344 26.8098 42.2653C27.148 42.3962 27.5143 42.4616 27.8901 42.4055C28.2565 42.3588 28.6228 42.1905 28.8858 41.8634L28.8764 41.854Z" fill="#EE7E05"></path>
<path d="M32.2018 44.3122C32.4931 44.0692 32.6152 43.7234 32.6715 43.3869C32.7279 43.0504 32.7091 42.7046 32.6434 42.3681C32.5682 42.041 32.4555 41.7139 32.2864 41.4148C32.1267 41.1157 31.9294 40.8259 31.7134 40.5549L32.1831 40.5829C31.9952 40.7699 31.8637 41.0689 31.7791 41.3774C31.6852 41.6858 31.657 42.0223 31.6476 42.3588C31.6476 42.6953 31.6758 43.0317 31.7603 43.3682C31.8449 43.6953 31.9858 44.0225 32.2018 44.3122ZM32.2018 44.3122C31.8825 44.1253 31.6476 43.8168 31.4691 43.4804C31.3 43.1439 31.1967 42.77 31.1497 42.3962C31.1028 42.0223 31.1216 41.6297 31.1873 41.2465C31.2719 40.8633 31.4034 40.4801 31.7228 40.1436L31.967 39.8819L32.1925 40.1623C32.4367 40.4708 32.6528 40.7979 32.8124 41.1531C32.9721 41.5176 33.0943 41.9008 33.1224 42.2934C33.16 42.6859 33.113 43.0972 32.9627 43.4617C32.8876 43.6393 32.7937 43.8168 32.6621 43.9664C32.54 44.1159 32.3803 44.2374 32.1925 44.3029L32.2018 44.3122Z" fill="#EE7E05"></path>
<path d="M36.0439 44.7608C36.166 44.5365 36.166 44.2842 36.1096 44.0505C36.0626 43.8168 35.9593 43.6019 35.8372 43.4056C35.7057 43.2093 35.5554 43.0317 35.3675 42.8822C35.189 42.7233 34.9918 42.5924 34.7851 42.4709L35.0951 42.3681C35.0199 42.5364 35.0105 42.7607 35.0387 42.9756C35.0575 43.2 35.1233 43.4243 35.1984 43.6393C35.3675 44.0692 35.6211 44.4805 36.0439 44.7515V44.7608ZM36.0439 44.7608C35.7902 44.7141 35.5648 44.5833 35.3675 44.4057C35.1796 44.2281 35.0105 44.0225 34.8884 43.7888C34.7569 43.5645 34.6818 43.3121 34.6254 43.0411C34.5878 42.7794 34.5784 42.4896 34.6912 42.1999L34.7851 41.9662L35.0012 42.0971C35.2266 42.2373 35.4521 42.3868 35.6493 42.5831C35.8372 42.77 36.0157 42.9943 36.1284 43.2374C36.2505 43.4804 36.3257 43.7514 36.3257 44.0225C36.3257 44.2842 36.2505 44.5833 36.0439 44.7515V44.7608Z" fill="#EE7E05"></path>
<path d="M28.604 61.3978C28.4255 61.2295 28.1813 61.1641 27.9558 61.1548C27.7304 61.1361 27.4955 61.1828 27.2795 61.2482C26.8474 61.3884 26.4622 61.6595 26.1334 61.9866L26.1147 61.6782C26.2462 61.7903 26.4622 61.8558 26.6689 61.8932C26.8849 61.9305 27.1104 61.9305 27.3358 61.9118C27.7774 61.8651 28.2377 61.7436 28.5946 61.4165L28.604 61.3978ZM28.604 61.3978C28.5007 61.6221 28.3128 61.7997 28.0967 61.9305C27.8807 62.0614 27.6458 62.1549 27.3922 62.2109C27.148 62.267 26.8849 62.2857 26.6313 62.2577C26.3683 62.2296 26.1053 62.1642 25.861 61.9773L25.6638 61.8371L25.8422 61.6688C26.0301 61.4913 26.2368 61.323 26.4622 61.1922C26.6877 61.0613 26.9413 60.9585 27.2043 60.9118C27.4674 60.865 27.7398 60.865 27.9934 60.9305C28.2376 61.0052 28.5007 61.1454 28.604 61.3791V61.3978Z" fill="#EE7E05"></path>
<path d="M34.2497 49.4061C34.3154 49.0977 34.2121 48.8079 34.0806 48.5649C33.9491 48.3126 33.7518 48.0976 33.5357 47.92C33.3103 47.7424 33.0754 47.5929 32.8124 47.4807C32.5494 47.3686 32.277 47.2751 31.9952 47.2097L32.3146 46.9853C32.2864 47.2003 32.3615 47.462 32.4649 47.7144C32.5682 47.9667 32.7185 48.2004 32.8876 48.4247C33.0567 48.6397 33.2539 48.8453 33.4794 49.0229C33.7048 49.2005 33.9585 49.3313 34.2497 49.4155V49.4061ZM34.2497 49.4061C33.9491 49.4435 33.6297 49.3687 33.3479 49.2379C33.0661 49.107 32.803 48.9201 32.5776 48.6958C32.3521 48.4714 32.1643 48.2097 32.014 47.9293C31.873 47.6396 31.7603 47.3125 31.7979 46.9386L31.8261 46.6489L32.1173 46.7236C32.4273 46.7984 32.7467 46.9012 33.0285 47.0601C33.3197 47.219 33.5921 47.4059 33.8176 47.649C34.043 47.892 34.2215 48.1724 34.3248 48.4901C34.4188 48.7986 34.4375 49.1631 34.2591 49.4248L34.2497 49.4061Z" fill="#EE7E05"></path>
<path d="M32.5964 54.1074C32.3427 53.8738 32.014 53.7897 31.704 53.771C31.3846 53.7523 31.0746 53.8084 30.774 53.9018C30.4734 54.0046 30.1916 54.1448 29.9285 54.3224C29.6655 54.5 29.4213 54.7056 29.1958 54.9299L29.177 54.5C29.3649 54.6495 29.6561 54.743 29.9473 54.7897C30.2479 54.8458 30.5579 54.8365 30.8679 54.8084C31.1779 54.7804 31.4879 54.715 31.7791 54.6028C32.0797 54.5 32.3521 54.3411 32.6058 54.1074H32.5964ZM32.5964 54.1074C32.4555 54.4159 32.1924 54.6589 31.9012 54.8552C31.61 55.0421 31.2812 55.173 30.9337 55.2477C30.5955 55.3319 30.2385 55.3505 29.8722 55.3225C29.5152 55.2851 29.1395 55.1916 28.8013 54.9393L28.5383 54.743L28.7825 54.5093C29.0455 54.2663 29.318 54.0327 29.6373 53.8457C29.9567 53.6682 30.2949 53.5186 30.6613 53.4532C31.0182 53.3784 31.4034 53.3878 31.7509 53.4812C32.0985 53.584 32.4461 53.771 32.5964 54.0981V54.1074Z" fill="#EE7E05"></path>
<path d="M31.7416 44.5833C31.6664 44.9665 31.347 45.2843 30.9713 45.4618C30.5955 45.6394 30.154 45.6862 29.7407 45.6207C29.3274 45.5647 28.9328 45.3871 28.5852 45.1814C28.2377 44.9665 27.9277 44.7048 27.6553 44.4244L27.4392 44.2094L27.6365 43.9757C27.9371 43.6206 28.341 43.4243 28.7355 43.3308C29.1301 43.2374 29.5434 43.228 29.9286 43.3028C30.3137 43.3682 30.6895 43.5177 31.0088 43.7421C31.3282 43.9664 31.5913 44.2561 31.7416 44.602V44.5833ZM31.7416 44.5833C31.4691 44.3309 31.1779 44.144 30.8491 44.0225C30.5298 43.901 30.201 43.8355 29.8628 43.8262C29.534 43.8262 29.2052 43.8542 28.9046 43.9477C28.604 44.0412 28.3316 44.2001 28.1719 44.3963L28.1531 43.9477C28.651 44.4524 29.2052 44.901 29.8534 45.1067C30.1728 45.2001 30.5204 45.2375 30.8585 45.1534C31.1967 45.0786 31.5255 44.901 31.7416 44.5833Z" fill="#EE7E05"></path>
<path d="M72.4635 5.62664C72.6702 5.39298 72.7641 5.12193 72.8017 4.85088C72.8392 4.57983 72.8111 4.30877 72.7359 4.05642C72.6608 3.80406 72.5386 3.57039 72.3789 3.35542C72.2286 3.14045 72.0314 2.94417 71.8247 2.76659L72.2944 2.73855C72.1535 2.89744 72.0502 3.12176 71.9844 3.36477C71.9186 3.60778 71.8905 3.86948 71.8905 4.13119C71.8999 4.6546 72.022 5.20605 72.4447 5.62664H72.4635ZM72.4635 5.62664C72.1723 5.54253 71.9187 5.32755 71.7402 5.06585C71.5617 4.80414 71.4396 4.50505 71.3832 4.18727C71.3268 3.86948 71.3174 3.5517 71.3832 3.22457C71.4396 2.90679 71.5617 2.57965 71.8059 2.28991L72.022 2.03755L72.2756 2.26187C72.5199 2.47684 72.7453 2.71985 72.9144 3.0096C73.0929 3.29 73.215 3.61713 73.2526 3.9536C73.2901 4.29008 73.2526 4.63591 73.1117 4.935C72.9708 5.23409 72.7547 5.50514 72.4541 5.6173L72.4635 5.62664Z" fill="#EE7E05"></path>
<path d="M67.4566 6.64542C67.3251 6.64542 67.203 6.66412 67.0903 6.69216C66.9681 6.7202 66.8554 6.76693 66.7427 6.80432C66.5172 6.89778 66.3012 7.00059 66.0945 7.13145C65.6812 7.37446 65.296 7.67355 64.9673 7.99133C64.6385 8.31846 64.3567 8.68298 64.1594 9.07554C63.9621 9.46809 63.8682 9.88869 63.8776 10.3093L63.4267 9.87C63.8588 9.87 64.3285 9.76719 64.7606 9.62699C65.2021 9.48679 65.6154 9.28116 65.9818 9.01011C66.3481 8.73906 66.6769 8.40258 66.9212 8.00068C67.0527 7.8044 67.1466 7.58008 67.2406 7.35576C67.2781 7.2436 67.3251 7.1221 67.3533 7.00059C67.3909 6.87909 67.419 6.77628 67.4566 6.63608V6.64542ZM67.4566 6.64542C67.5318 7.15014 67.4848 7.6829 67.3157 8.18761C67.1372 8.69233 66.8366 9.169 66.4327 9.54287C66.0382 9.92608 65.5591 10.2158 65.0518 10.4214C64.5445 10.6177 64.0091 10.7486 63.4361 10.7579H62.9946V10.3186C62.9946 9.73915 63.1355 9.15966 63.4267 8.67363C63.7085 8.18761 64.0936 7.77636 64.5258 7.45858C64.9579 7.14079 65.437 6.89778 65.9348 6.72954C66.1885 6.65477 66.4421 6.58934 66.7051 6.5613C66.9587 6.53326 67.2406 6.53326 67.4754 6.63608L67.4566 6.64542Z" fill="#EE7E05"></path>
<path d="M70.3312 6.4585C70.1715 6.4585 70.0306 6.51458 69.8896 6.57066C69.7487 6.63609 69.6172 6.70152 69.4951 6.78563C69.2415 6.94453 69.016 7.14081 68.8094 7.35578C68.6121 7.57075 68.443 7.80441 68.3397 8.06612C68.2269 8.31848 68.18 8.58953 68.2082 8.86058L67.9733 8.65495C68.2457 8.63626 68.5369 8.56149 68.8 8.44933C69.0724 8.34652 69.3166 8.18762 69.5421 8.01004C69.7581 7.82311 69.946 7.59879 70.0775 7.32774C70.2184 7.06603 70.2842 6.76694 70.3312 6.4585ZM70.3312 6.4585C70.3875 6.76694 70.3687 7.09407 70.2748 7.41186C70.1809 7.72964 70.0118 8.01939 69.7769 8.2624C69.5515 8.50541 69.2603 8.69234 68.9691 8.84189C68.6685 8.98208 68.3491 9.07555 68.0015 9.10359L67.7761 9.12228V8.89797C67.7385 8.55214 67.8042 8.19697 67.9545 7.89788C68.1048 7.59879 68.3209 7.32774 68.5651 7.11277C68.8094 6.89779 69.0912 6.72955 69.3918 6.5987C69.5421 6.54262 69.6924 6.48654 69.8521 6.4585C70.0118 6.43046 70.1715 6.41177 70.3312 6.4585Z" fill="#EE7E05"></path>
<path d="M32.85 45.0132C32.85 45.0132 36.7014 48.4995 43.7937 47.4527C42.6383 48.3313 42.6101 48.4995 42.6101 48.4995C42.6101 48.4995 35.6211 48.7425 32.85 45.0132Z" fill="#EE7E05"></path>
<path d="M10.3331 38.5454C10.5586 37.3677 10.3237 36.2181 9.89161 35.1899C9.4501 34.1618 8.82072 33.2272 8.06922 32.414C7.31772 31.6008 6.4441 30.9092 5.50472 30.3858C4.55595 29.8624 3.53203 29.5072 2.48932 29.367L3.46627 28.7314C3.35355 29.1053 3.35355 29.6287 3.40991 30.1428C3.46627 30.6662 3.58839 31.1989 3.73869 31.7223C4.04869 32.7785 4.49959 33.816 5.07261 34.7693C5.64563 35.732 6.34076 36.62 7.20499 37.321C7.6371 37.6761 8.11619 37.9659 8.64224 38.1808C9.16829 38.3958 9.74131 38.5173 10.3519 38.536L10.3331 38.5454ZM10.3331 38.5454C9.16829 38.9005 7.81559 38.6669 6.70712 38.0593C5.57987 37.4518 4.64989 36.5545 3.88899 35.5545C3.1281 34.5544 2.53629 33.4328 2.10418 32.2364C1.89751 31.6382 1.73782 31.012 1.64388 30.3577C1.59691 30.0306 1.57812 29.6941 1.57812 29.339C1.57812 28.9931 1.62509 28.6193 1.72843 28.2361L1.93509 27.4883L2.70538 27.6005C3.35355 27.694 4.00172 27.8529 4.61231 28.0772C5.22291 28.3108 5.80532 28.5912 6.35016 28.9371C7.43984 29.6194 8.38861 30.5073 9.14011 31.5261C9.88221 32.5449 10.4552 33.6945 10.7183 34.9282C10.8498 35.5451 10.9061 36.1713 10.8498 36.7882C10.8216 37.0966 10.7652 37.4051 10.6807 37.6948C10.5867 37.9846 10.4834 38.2743 10.3331 38.536V38.5454Z" fill="#EE7E05"></path>
<path d="M14.6543 41.611C15.1897 41.0129 15.4246 40.2651 15.5279 39.5361C15.6218 38.8071 15.5467 38.0687 15.34 37.3864C15.1334 36.7041 14.8046 36.0592 14.3725 35.489C14.1658 35.1993 13.931 34.9189 13.6679 34.6572C13.4237 34.3861 13.1419 34.1431 12.8601 33.9094L13.8558 33.8066C13.4894 34.274 13.2358 34.9282 13.0949 35.5918C12.954 36.2648 12.907 36.9845 12.9446 37.6948C12.9916 38.4052 13.1231 39.1155 13.3861 39.7885C13.6491 40.4614 14.0437 41.097 14.6449 41.6017L14.6543 41.611ZM14.6543 41.611C13.9028 41.368 13.2546 40.7885 12.7943 40.1156C12.3246 39.4333 12.0334 38.6482 11.8737 37.8444C11.714 37.0406 11.6858 36.1994 11.808 35.3675C11.9395 34.5357 12.2025 33.6945 12.7755 32.9468L13.217 32.3673L13.7713 32.8439C14.41 33.3954 15.0112 34.0123 15.4715 34.7506C15.9412 35.4797 16.2794 36.3022 16.4109 37.1621C16.5424 38.022 16.4767 38.9099 16.1949 39.7137C16.0446 40.1156 15.8473 40.4895 15.5937 40.8259C15.4621 40.9942 15.3212 41.1437 15.1709 41.2839C15.0112 41.4148 14.8422 41.5456 14.6637 41.6204L14.6543 41.611Z" fill="#EE7E05"></path>
<path d="M18.703 45.088C19.06 44.6393 19.2103 44.0972 19.2572 43.5645C19.3136 43.0317 19.2384 42.5083 19.0881 42.013C18.9378 41.5176 18.6936 41.0596 18.393 40.639C18.0924 40.2184 17.7166 39.8445 17.3127 39.5081L18.036 39.4146C17.7824 39.7698 17.6321 40.2464 17.5382 40.7418C17.4536 41.2372 17.4348 41.7513 17.4724 42.2653C17.51 42.7794 17.6133 43.2934 17.8012 43.7795C17.9891 44.2655 18.2709 44.7235 18.703 45.088ZM18.703 45.088C18.1582 44.9104 17.7073 44.4898 17.3691 44.0038C17.0403 43.5084 16.8148 42.957 16.6927 42.3775C16.5706 41.798 16.533 41.1998 16.5988 40.6016C16.6739 40.0034 16.8336 39.3959 17.2188 38.8351L17.5288 38.3865L17.9421 38.7416C18.4024 39.1342 18.8345 39.5828 19.1633 40.1062C19.4921 40.6297 19.7363 41.2091 19.8396 41.826C19.943 42.4336 19.9054 43.0691 19.7269 43.6486C19.633 43.9384 19.5015 44.2188 19.3324 44.4618C19.1633 44.7048 18.9472 44.9291 18.6936 45.0693L18.703 45.088Z" fill="#EE7E05"></path>
<path d="M22.5826 47.462C22.8926 47.0881 22.9772 46.6208 22.9772 46.1722C22.9772 45.7235 22.8644 45.2843 22.6954 44.8823C22.5263 44.4711 22.2914 44.0972 22.019 43.7421C21.7466 43.3869 21.4272 43.0691 21.089 42.77L21.6902 42.6952C21.493 42.9756 21.3896 43.3869 21.3614 43.8075C21.3239 44.2281 21.352 44.6674 21.4178 45.0973C21.493 45.5273 21.6057 45.9572 21.7936 46.3591C21.972 46.761 22.2257 47.1442 22.5732 47.462H22.5826ZM22.5826 47.462C22.1317 47.2938 21.756 46.9479 21.4554 46.5647C21.1642 46.1722 20.9387 45.7235 20.7978 45.2469C20.6475 44.7702 20.5818 44.2748 20.5911 43.7701C20.6099 43.2654 20.6945 42.7326 21.0233 42.2373L21.2769 41.854L21.6245 42.1625C22.0002 42.499 22.3572 42.8728 22.639 43.2934C22.9302 43.714 23.1556 44.1814 23.2966 44.6861C23.4281 45.1814 23.4656 45.7142 23.3623 46.2189C23.3059 46.4713 23.2308 46.7143 23.0899 46.9386C22.9584 47.1536 22.7893 47.3592 22.5732 47.4714L22.5826 47.462Z" fill="#EE7E05"></path>
<path d="M13.9028 43.0785C13.8182 43.2561 13.6867 43.4336 13.5552 43.5832C13.4143 43.7421 13.2546 43.8729 13.0855 44.0038C12.7473 44.2561 12.3528 44.4431 11.9395 44.5926C11.1128 44.8637 10.2016 44.9011 9.3374 44.7235C8.47317 44.5459 7.64652 44.1627 6.94199 43.658C6.22806 43.1532 5.62686 42.5177 5.10081 41.8447L4.6593 41.2746L5.23232 40.8446C6.00261 40.2745 6.86684 40.0221 7.72167 39.9193C8.5765 39.8258 9.42194 39.8819 10.2392 40.0782C11.0471 40.2745 11.8361 40.611 12.4937 41.1157C13.1513 41.6204 13.6961 42.2934 13.9028 43.0691V43.0785ZM13.9028 43.0785C13.4143 42.4616 12.8037 42.013 12.1367 41.7232C11.4698 41.4241 10.7559 41.2559 10.0419 41.1905C9.328 41.1157 8.60468 41.1344 7.91894 41.2652C7.24259 41.3867 6.58502 41.6204 6.10594 41.9849L6.23745 40.9942C6.4629 41.2839 6.69775 41.583 6.95138 41.8447C7.20501 42.1158 7.46804 42.3681 7.74985 42.5924C8.31348 43.0504 8.94286 43.4149 9.61921 43.658C10.2956 43.8916 11.0377 43.9944 11.7798 43.929C12.5219 43.8542 13.2734 43.6206 13.8934 43.0878L13.9028 43.0785Z" fill="#EE7E05"></path>
<path d="M18.2427 45.789C18.2145 45.9292 18.1488 46.0787 18.083 46.2189C18.0079 46.3498 17.9139 46.4806 17.82 46.6021C17.6227 46.8451 17.3691 47.0508 17.1061 47.219C16.5612 47.5555 15.913 47.7424 15.2555 47.7611C14.5979 47.7891 13.9404 47.6489 13.3392 47.4059C12.738 47.1629 12.1931 46.8171 11.6952 46.4245L11.2819 46.0974L11.6201 45.6955C12.071 45.1534 12.6534 44.8169 13.2452 44.5926C13.837 44.3776 14.4664 44.2655 15.077 44.2655C15.697 44.2655 16.317 44.3776 16.8806 44.6206C17.4442 44.873 17.9515 45.2656 18.2333 45.7796L18.2427 45.789ZM18.2427 45.789C17.7824 45.4245 17.2657 45.2188 16.7303 45.1254C16.1949 45.0319 15.6594 45.0319 15.1334 45.1067C14.6073 45.1814 14.0907 45.3216 13.621 45.5273C13.1513 45.7329 12.7192 46.0133 12.4467 46.3591L12.3716 45.6207C12.8037 45.9666 13.2546 46.275 13.7431 46.5087C14.2316 46.7423 14.7388 46.8919 15.2743 46.9479C15.8003 47.004 16.3546 46.9479 16.8712 46.761C17.3879 46.5834 17.8951 46.275 18.2427 45.789Z" fill="#EE7E05"></path>
<path d="M22.1411 48.0602C22.1599 48.5556 21.8593 49.0322 21.4741 49.3687C21.0796 49.7052 20.5723 49.9108 20.0463 49.9856C19.5202 50.0604 18.9942 50.0136 18.4963 49.8921C17.9984 49.7706 17.5288 49.565 17.0779 49.3313L16.7209 49.135L16.8994 48.7705C17.1624 48.2471 17.5851 47.892 18.0266 47.6396C18.4775 47.3966 18.966 47.2377 19.4545 47.1816C19.9523 47.1255 20.4502 47.1629 20.9199 47.2938C21.3896 47.434 21.8311 47.6863 22.1317 48.0415L22.1411 48.0602ZM22.1411 48.0602C21.7184 47.8546 21.2863 47.7424 20.8541 47.7237C20.422 47.6957 19.9899 47.7518 19.586 47.8546C19.1821 47.9667 18.7875 48.1256 18.4493 48.3499C18.1112 48.5649 17.82 48.8453 17.6791 49.1444L17.5006 48.5929C17.8951 48.8079 18.299 48.9948 18.7218 49.1257C19.1351 49.2566 19.5672 49.3313 19.9993 49.3313C20.422 49.3313 20.8635 49.2379 21.2487 49.0322C21.6338 48.836 21.9814 48.5182 22.1599 48.0602H22.1411Z" fill="#EE7E05"></path>
<path d="M26.2556 49.3126C26.4528 48.9481 26.4434 48.5462 26.3683 48.1817C26.2931 47.8078 26.1334 47.462 25.9268 47.1536C25.7201 46.8451 25.4665 46.5647 25.1847 46.3217C24.9029 46.0694 24.5835 45.8544 24.2547 45.6675L24.7432 45.5086C24.6304 45.7703 24.6116 46.1348 24.6492 46.4806C24.6868 46.8358 24.7807 47.191 24.9029 47.5368C25.0344 47.8826 25.2035 48.2191 25.4195 48.5182C25.6356 48.8266 25.908 49.0977 26.2462 49.3126H26.2556ZM26.2556 49.3126C25.8516 49.2472 25.4853 49.0229 25.1753 48.7425C24.8653 48.4621 24.6116 48.1256 24.4144 47.7518C24.2171 47.3872 24.0762 46.9853 24.0011 46.5554C23.9353 46.1348 23.9165 45.6768 24.1138 45.2095L24.2641 44.845L24.6023 45.0506C24.9686 45.2656 25.3256 45.5179 25.6262 45.8264C25.9362 46.1255 26.2086 46.4806 26.3965 46.8732C26.5937 47.2657 26.7065 47.6957 26.7065 48.135C26.7065 48.3499 26.6783 48.5649 26.6031 48.7705C26.5374 48.9762 26.4153 49.1631 26.2556 49.294V49.3126Z" fill="#EE7E05"></path>
<path d="M25.8892 49.78C25.9644 50.2006 25.7671 50.6585 25.4571 50.9857C25.1377 51.3221 24.7056 51.5371 24.2547 51.6306C23.8038 51.7334 23.3341 51.7054 22.8926 51.6306C22.4511 51.5465 22.0284 51.3969 21.6338 51.2193L21.3239 51.0791L21.4272 50.7614C21.5869 50.2753 21.9251 49.9202 22.2914 49.6678C22.6672 49.4154 23.0805 49.2472 23.5032 49.1631C23.9259 49.079 24.3674 49.0883 24.7902 49.1818C25.2035 49.2846 25.5886 49.4809 25.8798 49.7706L25.8892 49.78ZM25.8892 49.78C25.5135 49.6304 25.1283 49.5556 24.7526 49.5556C24.3768 49.5556 24.0105 49.6211 23.6629 49.7426C23.3153 49.8641 22.9959 50.0323 22.7235 50.2473C22.4511 50.4623 22.235 50.724 22.1505 51.0044L21.9532 50.5464C22.3102 50.7146 22.6766 50.8455 23.0429 50.9483C23.4093 51.0418 23.7944 51.0885 24.1608 51.0604C24.5271 51.0324 24.8935 50.9296 25.2129 50.7146C25.5323 50.509 25.7953 50.1912 25.8892 49.78Z" fill="#EE7E05"></path>
<path d="M10.5962 54.2757C10.4365 53.2008 9.87285 52.3036 9.17771 51.5745C8.47318 50.8455 7.63713 50.2566 6.73533 49.808C5.83353 49.3594 4.88476 49.0416 3.90781 48.8827C2.94025 48.7238 1.9539 48.7238 1.00513 48.9107L1.6533 48.0789C1.67209 48.4154 1.83178 48.864 2.03845 49.2753C2.24511 49.6959 2.51753 50.1071 2.81813 50.509C3.40994 51.3035 4.13326 52.0325 4.91294 52.6681C5.70202 53.2943 6.57564 53.8364 7.5338 54.1635C8.01288 54.3318 8.51075 54.4346 9.02741 54.4626C9.54407 54.4907 10.0701 54.4252 10.5962 54.2757ZM10.5962 54.2757C9.69437 54.9019 8.48257 55.0982 7.35532 54.9299C6.21867 54.7617 5.14778 54.2944 4.18023 53.6962C3.22206 53.0887 2.35784 52.3316 1.61573 51.453C1.24937 51.0137 0.911195 50.537 0.629382 50.0043C0.488476 49.7426 0.356963 49.4622 0.253632 49.1631C0.1503 48.864 0.0657564 48.5369 0.0469688 48.1724L0 47.4714L0.695139 47.3405C1.27755 47.2284 1.86936 47.1816 2.46117 47.191C3.05297 47.2097 3.63539 47.2751 4.19901 47.3966C5.33566 47.6489 6.41594 48.0976 7.37411 48.7238C8.33227 49.35 9.17771 50.1445 9.7977 51.0978C10.1077 51.5745 10.3613 52.0886 10.5022 52.64C10.5774 52.9111 10.6243 53.1915 10.6431 53.4625C10.6525 53.7429 10.6431 54.014 10.5962 54.285V54.2757Z" fill="#EE7E05"></path>
<path d="M15.2648 55.5936C15.5467 54.9299 15.5467 54.2383 15.4058 53.5934C15.2555 52.9485 14.9736 52.3596 14.5791 51.8549C14.194 51.3502 13.7149 50.9203 13.17 50.5651C12.8976 50.3875 12.6158 50.2286 12.3246 50.0884C12.0334 49.9389 11.7234 49.8174 11.4134 49.7052L12.2213 49.3313C12.0428 49.8267 12.024 50.4436 12.1085 51.0418C12.1931 51.6493 12.3716 52.2568 12.6252 52.8363C12.8788 53.4158 13.217 53.9672 13.6491 54.4533C14.0718 54.9393 14.6167 55.3318 15.2648 55.5936ZM15.2648 55.5936C14.5603 55.6122 13.837 55.3318 13.2358 54.9206C12.6346 54.5 12.1367 53.9299 11.7422 53.313C11.357 52.6868 11.0658 51.9858 10.9155 51.2474C10.7746 50.509 10.7464 49.7052 11.0283 48.9014L11.2349 48.3032L11.8361 48.5275C12.5407 48.7986 13.2358 49.1351 13.8558 49.6024C14.4758 50.0604 15.0206 50.6492 15.4058 51.3222C15.7909 51.9951 16.0163 52.7709 16.0163 53.5373C16.0163 53.9205 15.96 54.3037 15.8379 54.6589C15.7721 54.8365 15.697 55.0047 15.603 55.173C15.5091 55.3318 15.3964 55.4814 15.2648 55.6029V55.5936Z" fill="#EE7E05"></path>
<path d="M20.0463 56.6778C20.1872 56.1824 20.1215 55.687 19.9712 55.2384C19.8209 54.7897 19.5672 54.3878 19.2666 54.042C18.9566 53.6962 18.5903 53.4064 18.1863 53.1821C17.7824 52.9485 17.3409 52.7802 16.8806 52.64L17.4442 52.3129C17.3597 52.6868 17.3973 53.1354 17.5006 53.5653C17.6039 53.9953 17.7824 54.4252 17.9985 54.8271C18.2239 55.229 18.4869 55.6122 18.8251 55.9394C19.1539 56.2665 19.5578 56.5376 20.0463 56.6871V56.6778ZM20.0463 56.6778C19.539 56.7245 19.013 56.5469 18.5621 56.2758C18.1112 55.9955 17.726 55.6216 17.4067 55.201C17.0873 54.771 16.843 54.2944 16.6833 53.7803C16.5236 53.2662 16.4391 52.7055 16.5706 52.1073L16.6739 51.6399L17.1342 51.7801C17.6509 51.939 18.1676 52.154 18.6279 52.4531C19.0881 52.7522 19.5109 53.1447 19.8209 53.6027C20.1402 54.0607 20.3375 54.5935 20.4033 55.1356C20.4315 55.4066 20.4221 55.6777 20.3657 55.9487C20.3093 56.2104 20.2154 56.4721 20.0463 56.6684V56.6778Z" fill="#EE7E05"></path>
<path d="M24.1607 56.8927C24.2735 56.4721 24.1607 56.0609 23.9823 55.7057C23.8038 55.3505 23.5314 55.0421 23.2402 54.7804C22.6296 54.2663 21.8781 53.9299 21.0984 53.7149L21.5587 53.4251C21.5117 53.7242 21.5869 54.0981 21.7278 54.4439C21.8687 54.7991 22.0659 55.1356 22.2914 55.4534C22.5262 55.7711 22.7893 56.0609 23.1086 56.3132C23.4186 56.5656 23.7756 56.7712 24.1795 56.9021L24.1607 56.8927ZM24.1607 56.8927C23.7286 56.9301 23.2965 56.7993 22.902 56.6123C22.5074 56.4161 22.1505 56.145 21.8405 55.8179C21.5305 55.5001 21.2769 55.1262 21.0796 54.715C20.8917 54.3037 20.7508 53.8364 20.826 53.3036L20.8823 52.9017L21.2863 53.0139C21.7184 53.1354 22.1505 53.3036 22.5544 53.528C22.9583 53.7523 23.3341 54.0327 23.6347 54.3878C23.9447 54.7337 24.1889 55.1449 24.311 55.5936C24.3674 55.8179 24.3956 56.0515 24.3768 56.2759C24.358 56.5002 24.2923 56.7338 24.1514 56.9021L24.1607 56.8927Z" fill="#EE7E05"></path>
<path d="M15.0488 57.0236C15.0206 57.2012 14.9643 57.3881 14.8891 57.5657C14.814 57.7433 14.7106 57.9022 14.5979 58.0611C14.3725 58.3695 14.0813 58.6405 13.7713 58.8742C13.1325 59.3322 12.3622 59.6126 11.5637 59.7154C10.7653 59.8182 9.95739 59.7341 9.19649 59.5098C8.4262 59.2948 7.72167 58.9396 7.06411 58.5284L6.49109 58.1732L6.87623 57.6311C7.3835 56.9208 8.06924 56.4628 8.76438 56.1357C9.46891 55.8179 10.2204 55.6216 10.9813 55.5655C11.7328 55.5001 12.5031 55.5655 13.2264 55.7898C13.9403 56.0235 14.6167 56.4254 15.0394 57.0236H15.0488ZM15.0488 57.0236C14.4382 56.6497 13.7713 56.4534 13.1043 56.4067C12.4373 56.3506 11.7704 56.416 11.1316 56.5562C10.4928 56.7058 9.87284 56.9208 9.30922 57.2199C8.75499 57.5189 8.24772 57.9022 7.93773 58.3508L7.75925 57.4535C8.05045 57.6311 8.34166 57.8087 8.64226 57.9582C8.94286 58.1171 9.25286 58.248 9.56285 58.3508C10.1922 58.5751 10.8404 58.6966 11.498 58.706C12.1555 58.706 12.8225 58.5938 13.4519 58.3228C14.0719 58.0517 14.6637 57.6405 15.0488 57.0142V57.0236Z" fill="#EE7E05"></path>
<path d="M19.9054 57.4068C19.9524 57.6778 19.9054 57.9676 19.8209 58.2386C19.7269 58.5097 19.586 58.762 19.4169 58.9957C19.06 59.4537 18.5809 59.8276 18.036 60.0612C17.4912 60.2949 16.8994 60.407 16.317 60.4164C15.7346 60.4257 15.1522 60.3229 14.6073 60.1827L14.1376 60.0519L14.2879 59.5845C14.4852 58.9677 14.8703 58.5003 15.2931 58.1171C15.7252 57.7339 16.2137 57.4442 16.7303 57.2385C17.247 57.0329 17.8106 56.9208 18.3648 56.9301C18.9191 56.9488 19.4827 57.089 19.9054 57.4161V57.4068ZM19.9054 57.4068C19.3888 57.2759 18.8815 57.2759 18.4024 57.3881C17.9233 57.4816 17.463 57.6778 17.0403 57.9115C16.6176 58.1452 16.2324 58.4349 15.9037 58.7714C15.5749 59.0985 15.3119 59.4817 15.1897 59.8556L14.861 59.2668C15.3494 59.3976 15.8379 59.5004 16.3264 59.5191C16.8149 59.5472 17.3033 59.5004 17.773 59.3696C18.2427 59.2387 18.6936 59.0144 19.0694 58.6873C19.4451 58.3695 19.7739 57.9489 19.896 57.4161L19.9054 57.4068Z" fill="#EE7E05"></path>
<path d="M24.0386 57.5283C24.2453 57.9208 24.1795 58.4349 23.9729 58.8555C23.7662 59.2761 23.4092 59.6313 23.0147 59.8743C22.6108 60.1266 22.1599 60.2762 21.709 60.3697C21.2487 60.4538 20.7884 60.4725 20.3375 60.4444L19.9711 60.4257V60.0612C19.9899 59.5285 20.2154 59.0705 20.4972 58.706C20.779 58.3414 21.1266 58.0424 21.5211 57.818C21.9062 57.5844 22.3384 57.4348 22.7705 57.3787C23.212 57.3227 23.6629 57.3601 24.048 57.5376L24.0386 57.5283ZM24.0386 57.5283C23.6159 57.5283 23.2214 57.5937 22.855 57.7339C22.4887 57.8648 22.1505 58.0704 21.8499 58.3041C21.5493 58.5471 21.2863 58.8181 21.089 59.1266C20.8823 59.4256 20.7508 59.7621 20.7508 60.0612L20.3938 59.678C21.2017 59.7247 22.019 59.6687 22.7423 59.3509C23.0899 59.192 23.428 58.9677 23.6723 58.6592C23.9165 58.3601 24.095 57.9676 24.0574 57.5283H24.0386Z" fill="#EE7E05"></path>
<path d="M27.9464 57.0049C27.9746 56.631 27.8055 56.3132 27.5895 56.0422C27.3828 55.7711 27.1104 55.5655 26.8192 55.3879C26.528 55.2197 26.2086 55.0888 25.8798 55.0047C25.551 54.9206 25.2035 54.8645 24.8653 54.8271L25.2035 54.5093C25.2035 54.7617 25.3444 55.0608 25.5135 55.3318C25.6825 55.6029 25.908 55.8553 26.1522 56.0796C26.3965 56.3039 26.6689 56.5095 26.9695 56.6684C27.2701 56.8366 27.5989 56.9488 27.9558 56.9955L27.9464 57.0049ZM27.9464 57.0049C27.5895 57.0984 27.2043 57.061 26.8474 56.9675C26.4904 56.8647 26.1428 56.6964 25.8328 56.4721C25.5229 56.2572 25.2504 55.9861 25.0156 55.6777C24.7901 55.3599 24.5929 55.0047 24.5647 54.5374L24.5459 54.1916L24.9029 54.2289C25.288 54.2663 25.6732 54.3318 26.0395 54.4626C26.4059 54.5935 26.7722 54.7617 27.0822 55.0047C27.4016 55.2384 27.6646 55.5468 27.8431 55.8926C27.9277 56.0702 27.9934 56.2572 28.0122 56.4534C28.031 56.6497 28.0122 56.846 27.937 57.0142L27.9464 57.0049Z" fill="#EE7E05"></path>
<path d="M27.8243 57.5096C28.0498 57.8274 28.0592 58.276 27.9183 58.6592C27.7774 59.0518 27.4862 59.3789 27.148 59.6126C26.8098 59.8556 26.4247 60.0051 26.0301 60.1079C25.6356 60.2014 25.2411 60.2388 24.8465 60.2388H24.5459L24.5083 59.9491C24.452 59.4817 24.6023 59.0611 24.8089 58.7153C25.025 58.3695 25.3068 58.0797 25.6356 57.8648C25.955 57.6404 26.3213 57.4909 26.6971 57.4161C27.0728 57.3507 27.4674 57.3694 27.8149 57.4909L27.8243 57.5096ZM27.8243 57.5096C27.458 57.5283 27.1198 57.6124 26.8098 57.7526C26.4998 57.8835 26.218 58.0797 25.9738 58.2947C25.7389 58.519 25.5229 58.7714 25.382 59.0518C25.2317 59.3228 25.1565 59.6219 25.1941 59.8743L24.8559 59.5845C25.2129 59.5845 25.5604 59.5565 25.908 59.5004C26.2462 59.435 26.575 59.3415 26.8756 59.1826C27.1668 59.0237 27.4392 58.8088 27.6271 58.5284C27.8149 58.248 27.9089 57.8928 27.8337 57.5189L27.8243 57.5096Z" fill="#EE7E05"></path>
<path d="M30.0131 50.5838C30.1728 50.2379 30.1352 49.8641 30.0413 49.537C29.9473 49.2005 29.7688 48.892 29.5622 48.621C29.3461 48.3499 29.1019 48.1069 28.8201 47.9013C28.5383 47.6957 28.2377 47.5181 27.9183 47.3592L28.3598 47.1816C28.2752 47.434 28.2846 47.7704 28.341 48.0882C28.3974 48.4154 28.5101 48.7331 28.651 49.0509C28.8013 49.3594 28.9704 49.6585 29.1958 49.9202C29.4119 50.1912 29.6843 50.4249 30.0131 50.5931V50.5838ZM30.0131 50.5838C29.6373 50.5464 29.2804 50.3688 28.9798 50.1351C28.6792 49.9015 28.4161 49.6024 28.2095 49.2753C27.9934 48.9481 27.8431 48.593 27.7492 48.2097C27.6552 47.8265 27.6177 47.4059 27.7492 46.9666L27.8619 46.6208L28.1907 46.7797C28.5477 46.9573 28.8858 47.1629 29.1958 47.4246C29.4964 47.6863 29.7782 47.9854 29.9755 48.3406C30.1822 48.6864 30.3137 49.079 30.3419 49.4809C30.3419 49.6772 30.3419 49.8828 30.2855 50.0791C30.2385 50.266 30.1446 50.4529 30.0037 50.5838H30.0131Z" fill="#EE7E05"></path>
<path d="M29.7125 51.0418C29.8064 51.425 29.6561 51.8643 29.3931 52.182C29.1301 52.5092 28.7449 52.7428 28.3316 52.855C27.9183 52.9858 27.4956 52.9952 27.0822 52.9485C26.6689 52.9017 26.2744 52.7989 25.8892 52.6587L25.598 52.5559L25.6732 52.2568C25.7859 51.7988 26.0771 51.4437 26.3965 51.182C26.7253 50.9202 27.0916 50.7427 27.4768 50.6399C27.8619 50.5277 28.2752 50.509 28.6604 50.5651C29.0455 50.6305 29.4213 50.7894 29.7031 51.0324L29.7125 51.0418ZM29.7125 51.0418C29.3555 50.9296 28.9986 50.8829 28.651 50.9109C28.3034 50.9296 27.9746 51.0231 27.6647 51.1539C27.3547 51.2941 27.0728 51.4717 26.838 51.6867C26.6032 51.9016 26.4247 52.1633 26.3589 52.4251L26.1429 52.0231C26.8192 52.2755 27.5331 52.4437 28.2095 52.3409C28.5477 52.2849 28.8764 52.1727 29.1489 51.9484C29.4213 51.7334 29.6467 51.425 29.7125 51.0418Z" fill="#EE7E05"></path>
<path d="M41.0319 50.7427C36.0157 52.8176 30.9243 50.9483 30.9243 50.9483C33.16 52.5839 37.5938 52.2101 39.792 51.8923C40.1959 51.4904 40.6092 51.1072 41.0319 50.7333V50.7427Z" fill="#EE7E05"></path>
<path d="M79.6592 54.6776C79.6592 54.6776 79.2458 72.3894 63.3704 78.2123C56.3814 80.3901 54.7751 78.2403 57.2174 74.6606C57.8186 73.9222 57.9877 74.1092 57.9877 74.1092C57.9877 74.1092 54.6811 80.6331 63.4361 77.2122C77.7992 71.6043 79.6592 54.6776 79.6592 54.6776Z" fill="#E73440"></path>
<path d="M51.3651 44.9291C46.1986 46.9199 38.4675 54.042 46.9407 54.0233C48.4906 53.2475 49.12 52.8737 49.12 52.8737C49.12 52.8737 44.4889 53.9205 44.5828 51.6399C44.6486 49.9949 48.0397 46.8171 51.3651 44.9291Z" fill="#E73440"></path>
<path d="M50.2285 52.1446C44.6204 54.5 36.3727 62.5754 45.6725 62.2764C47.3446 61.3791 48.0304 60.9398 48.0304 60.9398C48.0304 60.9398 42.9765 62.2483 43.0141 59.7341C43.0329 57.9302 46.6495 54.3224 50.2379 52.1353L50.2285 52.1446Z" fill="#E73440"></path>
<path d="M51.3557 58.8275C46.3207 60.9491 39.1626 67.1366 40.8629 69.6695C41.5486 70.6883 43.0047 71.8473 47.974 70.4546C50.0782 69.3237 50.9424 68.7722 50.9424 68.7722C50.9424 68.7722 42.225 71.5482 42.2626 68.389C42.2907 66.1178 46.8467 61.5754 51.3557 58.8275Z" fill="#E73440"></path>
<path d="M54.6435 66.4917C49.6085 68.6133 44.5264 72.9221 45.7664 75.8102C46.2549 76.9412 47.9082 77.988 52.8775 76.5953C56.7102 75.5859 59.331 73.5297 60.0356 72.4548C58.8801 73.511 47.1003 78.1936 47.1661 74.5297C47.2037 72.2585 50.1345 69.2396 54.6529 66.4917H54.6435Z" fill="#E73440"></path>
<path d="M38.3266 72.3053C32.587 73.4269 25.2035 74.9036 25.692 77.3057C25.8798 78.2497 26.791 79.39 31.6664 79.7638C35.4239 80.1003 50.3318 78.4179 53.1687 75.9972C37.8475 79.5115 25.9926 79.3152 26.885 76.7169C27.4392 75.0999 33.4888 73.8101 38.3266 72.3146V72.3053Z" fill="#E73440"></path>
<path d="M35.8184 66.7534C30.4734 68.09 23.6065 69.8378 24.1796 72.0716C24.405 72.9502 25.3162 73.9783 29.9192 74.0905C33.47 74.2213 47.4103 71.9127 49.9561 69.5013C35.7245 73.5577 24.5647 73.9409 25.2692 71.4547C25.7107 69.9125 31.3376 68.4077 35.809 66.7534H35.8184Z" fill="#E73440"></path>
<path d="M35.7715 60.3136C31.1967 62.3979 25.3256 65.099 26.2086 67.0057C26.5562 67.7535 27.5425 68.5292 31.704 67.875C34.9072 67.4076 45.5786 63.7438 48.9227 60.4444C36.8236 66.4356 26.8662 68.6227 27.0822 66.2767C27.2231 64.8186 32.0233 62.5381 35.7621 60.3136H35.7715Z" fill="#E73440"></path>
<path d="M38.4581 53.7616C34.2497 56.0328 28.8577 58.9864 29.8158 60.7529C30.1916 61.4445 31.0088 62.2016 35.02 60.9491C39.5572 59.5378 45.4564 56.117 48.4531 53.0606C37.3778 60.0799 30.5391 62.2483 30.6049 59.9958C30.6425 58.5938 35.0482 56.117 38.4581 53.7616Z" fill="#E73440"></path>
<path d="M35.0669 80.2592C35.1327 80.0349 35.3206 79.8012 35.6024 79.5769C35.3394 79.6143 35.0763 79.4274 34.8227 79.4741C34.6818 79.5021 34.5597 79.4928 34.4376 79.4741C34.0994 79.8293 33.9585 80.4274 34.0524 80.82C34.2591 81.6332 35.1515 82.5024 39.4163 82.5117C43.8689 82.5117 57.4335 81.1097 60.7401 78.0815C46.9125 82.0444 34.4 82.5585 35.0669 80.2592Z" fill="#E73440"></path>
<path d="M68.3209 66.0711C66.8554 67.6226 65.3524 69.6321 65.3994 71.4454C67.1091 71.3706 69.9742 70.1836 70.9699 67.1833C70.9699 69.1835 69.326 72.5015 64.4412 72.7072C64.0561 68.576 68.3209 66.0711 68.3209 66.0711Z" fill="#E73440"></path>
<path d="M63.267 62.2857C61.3131 63.9307 59.2371 66.1365 59.0398 68.3049C61.0876 68.4451 64.6667 67.4263 66.2824 63.9681C66.01 66.3515 63.5958 70.0995 57.7341 69.6882C57.8468 64.7065 63.2764 62.2857 63.2764 62.2857H63.267Z" fill="#E73440"></path>
<path d="M55.9211 51.1633C53.8169 52.1166 51.4778 53.5186 50.7263 55.3692C52.4266 56.0048 55.7332 56.0048 58.0253 53.3971C57.1517 55.416 54.0987 58.0797 49.2515 56.2572C50.6794 51.9297 55.9305 51.1726 55.9305 51.1726L55.9211 51.1633Z" fill="#E73440"></path>
<path d="M52.8775 46.5273C51.3651 47.1816 49.6742 48.1537 49.1106 49.4622C50.313 49.9389 52.6803 49.9856 54.343 48.1443C53.6948 49.5743 51.4779 51.4343 48.0397 50.0697C49.12 47.004 52.8775 46.5273 52.8775 46.5273Z" fill="#E73440"></path>
<path d="M58.8144 56.5936C56.6069 58.0984 54.2396 60.1453 53.9202 62.3044C56.1372 62.6035 60.0826 61.8464 62.0083 58.5097C61.5856 60.8744 58.7768 64.4354 52.4266 63.5849C52.8024 58.6125 58.8238 56.5936 58.8238 56.5936H58.8144Z" fill="#E73440"></path>
<path d="M72.5669 57.2853C71.7684 59.2107 71.0921 61.566 71.759 63.2204C73.2996 62.5661 75.5071 60.4912 75.385 57.3974C76.0802 59.2294 75.7326 62.8372 71.3269 64.7158C69.5421 61.0706 72.5669 57.2946 72.5669 57.2946V57.2853Z" fill="#E73440"></path>
<path d="M74.502 49.78C74.2671 51.1726 74.1826 52.827 74.8777 53.8177C75.7983 53.1541 76.9349 51.453 76.3807 49.4248C77.1228 50.5277 77.4422 52.9578 74.8213 54.8645C73.0835 52.7241 74.502 49.78 74.502 49.78Z" fill="#E73440"></path>
<path d="M77.0946 44.3402C77.2167 45.3029 77.4986 46.4245 78.1467 46.9292C78.6164 46.303 79.0297 44.9571 78.2595 43.7327C78.964 44.3122 79.6685 45.8637 78.3158 47.6396C76.7377 46.5741 77.0852 44.3402 77.0852 44.3402H77.0946Z" fill="#E73440"></path>
<path d="M75.0468 37.6761C75.1689 38.6388 75.4507 39.7604 76.0989 40.2651C76.5686 39.6389 76.9819 38.293 76.2116 37.0686C76.9161 37.6481 77.6207 39.1996 76.2774 40.9755C74.6992 39.91 75.0468 37.6761 75.0468 37.6761Z" fill="#E73440"></path>
<path d="M67.7009 51.5184C66.7897 53.5373 65.9819 56.0328 66.6488 57.8087C68.3115 57.1638 70.7351 55.0234 70.6975 51.7241C71.3739 53.6962 70.8854 57.5283 66.1416 59.3789C64.3567 55.4347 67.7103 51.5184 67.7103 51.5184H67.7009Z" fill="#E73440"></path>
<path d="M70.4626 34.2646C70.4157 35.4984 70.5284 36.9564 71.2423 37.7322C71.9656 37.0499 72.7641 35.4423 72.0502 33.7412C72.8205 34.6198 73.3747 36.6947 71.3175 38.6482C69.5608 36.9845 70.4626 34.2646 70.4626 34.2646Z" fill="#E73440"></path>
<path d="M70.6881 42.3401C70.4251 44.1813 70.6505 46.1722 71.5993 47.4433C72.7829 46.5367 73.3278 44.8917 73.0929 42.4616C73.7505 43.714 74.0887 46.3965 71.3551 48.6303C68.9879 45.8637 70.6881 42.3307 70.6881 42.3307V42.3401Z" fill="#E73440"></path>
<path d="M59.5659 43.3028C58.3729 44.3683 57.1141 45.7796 57.0014 47.1536C58.2602 47.2283 60.4489 46.546 61.4165 44.3402C61.2568 45.8544 59.7914 48.2471 56.2029 48.0415C56.2499 44.8824 59.5659 43.3028 59.5659 43.3028Z" fill="#E73440"></path>
<path d="M54.7469 39.91C53.9202 40.6764 53.0372 41.6858 52.9809 42.6579C53.8733 42.6952 55.4139 42.1905 56.0714 40.6203C55.9775 41.6952 54.9723 43.3962 52.4266 43.2934C52.4266 41.0596 54.7469 39.9006 54.7469 39.9006V39.91Z" fill="#E73440"></path>
<path d="M57.5368 31.1055C57.1893 32.1803 56.9262 33.4889 57.349 34.3674C58.1474 33.9655 59.2371 32.7785 59.0398 31.0868C59.4813 32.0682 59.4438 34.0497 57.1799 35.1899C56.0808 33.2458 57.5368 31.1055 57.5368 31.1055Z" fill="#E73440"></path>
<path d="M62.4873 47.9574C61.3225 49.537 60.1765 51.5371 60.4771 53.1167C62.0928 52.7896 64.6479 51.3035 65.1646 48.5182C65.4558 50.266 64.3661 53.4251 59.7537 54.3691C58.7956 50.8174 62.4873 47.9574 62.4873 47.9574Z" fill="#E73440"></path>
<path d="M64.2064 39.9567C64.0655 41.3961 64.103 43.0878 64.9015 43.9757C65.6248 43.3121 66.4985 41.6578 66.4045 40.1156C66.6394 40.7044 67.0715 43.1532 64.9203 45.0412C62.957 43.1532 64.2064 39.9567 64.2064 39.9567Z" fill="#E73440"></path>
<path d="M64.2064 31.9653C64.0655 33.4047 64.103 35.0965 64.9015 35.9844C65.6248 35.3208 66.4985 33.6664 66.4045 32.1242C66.6394 32.7131 67.0715 35.1619 64.9203 37.0499C62.957 35.1619 64.2064 31.9653 64.2064 31.9653Z" fill="#E73440"></path>
<path d="M59.0868 36.8536C58.758 37.9659 58.5325 39.3024 59.021 40.1156C59.688 39.7043 60.6273 38.536 60.7776 37.3116C60.8716 37.8163 60.8434 39.7978 58.8707 40.9568C57.6213 39.1809 59.0774 36.8536 59.0774 36.8536H59.0868Z" fill="#E73440"></path>
<path d="M61.1816 26.5069C61.0125 27.3762 60.928 28.423 61.3601 29.0118C61.8485 28.6473 62.4779 27.694 62.5155 26.7406C62.6282 27.1145 62.7409 28.638 61.3037 29.6661C60.2234 28.395 61.1816 26.5069 61.1816 26.5069Z" fill="#E73440"></path>
<path d="M66.6676 27.5818C66.7051 28.4697 66.8742 29.4979 67.4378 29.9745C67.823 29.5072 68.2081 28.423 68.0203 27.4977C68.2175 27.8342 68.6872 29.2922 67.5412 30.6288C66.1791 29.6474 66.6676 27.5911 66.6676 27.5911V27.5818Z" fill="#E73440"></path>
<path d="M72.642 29.0866C72.6984 29.8904 72.8862 30.8157 73.4029 31.227C73.7411 30.7877 74.0604 29.7876 73.8632 28.9557C74.0511 29.2548 74.5207 30.5634 73.5156 31.8158C72.2568 30.984 72.642 29.0959 72.642 29.0959V29.0866Z" fill="#E73440"></path>
<path d="M68.8563 22.4225C68.753 23.1609 68.7342 24.0301 69.1193 24.5161C69.5045 24.2077 69.9836 23.3852 69.9648 22.6001C70.0775 22.9178 70.2372 24.189 69.1005 25.0676C68.1424 24.0207 68.8469 22.4318 68.8469 22.4318L68.8563 22.4225Z" fill="#E73440"></path>
<path d="M60.5241 21.3009C60.2986 22.0112 60.1295 22.8618 60.4301 23.4039C60.8622 23.1609 61.4728 22.4412 61.5949 21.6561C61.6513 21.9832 61.595 23.2637 60.3268 23.946C59.5659 22.759 60.5241 21.3009 60.5241 21.3009Z" fill="#E73440"></path>
<path d="M38.552 109C38.552 109 48.5094 105.738 54.9347 108.953C58.7768 108.925 61.0313 109 61.0313 109C61.0313 109 50.3036 102.756 38.5614 109H38.552Z" fill="#E73440"></path>
<path d="M40.2147 87.5589C40.2147 87.5589 40.9474 90.8583 44.348 90.7181C46.6682 90.6246 51.3557 89.1385 55.6487 83.5212C58.1192 82.9417 59.0492 82.5959 59.0492 82.5959C59.0492 82.5959 53.6478 90.6433 46.4522 91.5593C39.8859 92.4004 40.2241 87.5496 40.2241 87.5496L40.2147 87.5589Z" fill="#E73440"></path>
<path d="M46.9124 106.953C46.8655 106.719 44.3855 95.3446 49.7869 90.3068C46.8185 90.9611 45.9355 91.1947 45.9355 91.1947C45.9355 91.1947 45.3719 98.6346 42.1874 101.083C43.4086 101.27 44.7613 99.8684 44.7613 99.8684C44.7613 99.8684 44.9961 105 45.9825 106.953H46.9124Z" fill="#E73440"></path>
<path d="M108.377 16.4959L105.662 12.8707H104.69V16.4959H103.734V8.5977H104.69V12.0223H105.107L108.269 8.5977H109.41L106.217 12.0686L109.518 16.4959H108.377ZM110.754 16.4959V8.5977H113.423C114.043 8.5977 114.549 8.70954 114.943 8.93322C115.339 9.15432 115.632 9.45385 115.822 9.83179C116.012 10.2097 116.107 10.6314 116.107 11.0967C116.107 11.5621 116.012 11.985 115.822 12.3655C115.634 12.746 115.344 13.0494 114.95 13.2757C114.557 13.4994 114.053 13.6112 113.439 13.6112H111.526V12.7628H113.408C113.832 12.7628 114.173 12.6895 114.43 12.5429C114.687 12.3964 114.873 12.1984 114.989 11.949C115.107 11.6971 115.166 11.413 115.166 11.0967C115.166 10.7805 115.107 10.4977 114.989 10.2483C114.873 9.99891 114.686 9.80351 114.426 9.6621C114.166 9.51812 113.822 9.44614 113.392 9.44614H111.711V16.4959H110.754ZM117.648 16.4959V8.5977H122.415V9.44614H118.604V12.1149H122.168V12.9633H118.604V15.6474H122.476V16.4959H117.648ZM130.494 11.0659H129.538C129.481 10.7908 129.382 10.5491 129.241 10.3409C129.102 10.1326 128.932 9.95777 128.732 9.81636C128.534 9.67239 128.314 9.5644 128.072 9.49241C127.831 9.42043 127.579 9.38443 127.316 9.38443C126.838 9.38443 126.405 9.50527 126.017 9.74695C125.631 9.98862 125.324 10.3447 125.095 10.8152C124.869 11.2857 124.756 11.8629 124.756 12.5468C124.756 13.2307 124.869 13.8079 125.095 14.2784C125.324 14.7489 125.631 15.105 126.017 15.3466C126.405 15.5883 126.838 15.7091 127.316 15.7091C127.579 15.7091 127.831 15.6732 128.072 15.6012C128.314 15.5292 128.534 15.4225 128.732 15.2811C128.932 15.1371 129.102 14.961 129.241 14.7527C129.382 14.5419 129.481 14.3002 129.538 14.0277H130.494C130.422 14.4313 130.291 14.7926 130.101 15.1114C129.911 15.4302 129.674 15.7014 129.391 15.9251C129.108 16.1462 128.791 16.3146 128.439 16.4303C128.089 16.546 127.715 16.6039 127.316 16.6039C126.643 16.6039 126.044 16.4393 125.519 16.1102C124.995 15.7811 124.582 15.3132 124.281 14.7064C123.98 14.0997 123.83 13.3798 123.83 12.5468C123.83 11.7138 123.98 10.9939 124.281 10.3871C124.582 9.78037 124.995 9.31244 125.519 8.98335C126.044 8.65426 126.643 8.48972 127.316 8.48972C127.715 8.48972 128.089 8.54756 128.439 8.66326C128.791 8.77896 129.108 8.94864 129.391 9.17232C129.674 9.39343 129.911 9.66339 130.101 9.98219C130.291 10.2984 130.422 10.6597 130.494 11.0659ZM131.608 9.44614V8.5977H137.531V9.44614H135.048V16.4959H134.091V9.44614H131.608ZM139.717 11.9143H141.969C142.535 11.9143 143.012 12.0069 143.4 12.192C143.791 12.3771 144.086 12.6381 144.287 12.9749C144.49 13.3117 144.592 13.7089 144.592 14.1665C144.592 14.6242 144.49 15.0278 144.287 15.3775C144.086 15.7271 143.791 16.001 143.4 16.1989C143.012 16.3969 142.535 16.4959 141.969 16.4959H139.007V8.5977H139.964V15.6629H141.969C142.329 15.6629 142.634 15.5909 142.883 15.4469C143.135 15.3004 143.325 15.1127 143.454 14.8838C143.585 14.6525 143.651 14.4082 143.651 14.1511C143.651 13.7732 143.505 13.4479 143.215 13.1754C142.924 12.9003 142.509 12.7628 141.969 12.7628H139.717V11.9143ZM151.471 16.4959H150.514V9.44614H148.833C148.406 9.44614 148.063 9.5117 147.803 9.64282C147.544 9.77137 147.355 9.95391 147.236 10.1904C147.118 10.427 147.059 10.7034 147.059 11.0196C147.059 11.3358 147.117 11.6084 147.232 11.8372C147.351 12.0634 147.538 12.2383 147.796 12.3617C148.055 12.4851 148.396 12.5468 148.817 12.5468H150.946V13.4107H148.787C148.175 13.4107 147.672 13.3091 147.279 13.106C146.885 12.9003 146.594 12.6175 146.403 12.2575C146.213 11.8976 146.118 11.485 146.118 11.0196C146.118 10.5542 146.213 10.139 146.403 9.77394C146.594 9.40886 146.887 9.12219 147.283 8.91393C147.679 8.70311 148.185 8.5977 148.802 8.5977H151.471V16.4959ZM147.753 12.9479H148.833L146.92 16.4959H145.809L147.753 12.9479ZM153.388 16.4959V8.5977H154.345V12.1149H158.556V8.5977H159.513V16.4959H158.556V12.9633H154.345V16.4959H153.388ZM167.783 11.0659H166.827C166.77 10.7908 166.671 10.5491 166.53 10.3409C166.391 10.1326 166.221 9.95777 166.021 9.81636C165.823 9.67239 165.603 9.5644 165.361 9.49241C165.119 9.42043 164.867 9.38443 164.605 9.38443C164.127 9.38443 163.694 9.50527 163.306 9.74695C162.92 9.98862 162.613 10.3447 162.384 10.8152C162.158 11.2857 162.044 11.8629 162.044 12.5468C162.044 13.2307 162.158 13.8079 162.384 14.2784C162.613 14.7489 162.92 15.105 163.306 15.3466C163.694 15.5883 164.127 15.7091 164.605 15.7091C164.867 15.7091 165.119 15.6732 165.361 15.6012C165.603 15.5292 165.823 15.4225 166.021 15.2811C166.221 15.1371 166.391 14.961 166.53 14.7527C166.671 14.5419 166.77 14.3002 166.827 14.0277H167.783C167.711 14.4313 167.58 14.7926 167.39 15.1114C167.199 15.4302 166.963 15.7014 166.68 15.9251C166.397 16.1462 166.08 16.3146 165.727 16.4303C165.378 16.546 165.004 16.6039 164.605 16.6039C163.932 16.6039 163.333 16.4393 162.808 16.1102C162.284 15.7811 161.871 15.3132 161.57 14.7064C161.269 14.0997 161.119 13.3798 161.119 12.5468C161.119 11.7138 161.269 10.9939 161.57 10.3871C161.871 9.78037 162.284 9.31244 162.808 8.98335C163.333 8.65426 163.932 8.48972 164.605 8.48972C165.004 8.48972 165.378 8.54756 165.727 8.66326C166.08 8.77896 166.397 8.94864 166.68 9.17232C166.963 9.39343 167.199 9.66339 167.39 9.98219C167.58 10.2984 167.711 10.6597 167.783 11.0659ZM173.972 16.4959L171.257 12.8707H170.285V16.4959H169.328V8.5977H170.285V12.0223H170.701L173.864 8.5977H175.005L171.812 12.0686L175.113 16.4959H173.972ZM182.642 12.5468C182.642 13.3798 182.492 14.0997 182.191 14.7064C181.89 15.3132 181.478 15.7811 180.953 16.1102C180.429 16.4393 179.829 16.6039 179.156 16.6039C178.482 16.6039 177.883 16.4393 177.359 16.1102C176.834 15.7811 176.422 15.3132 176.121 14.7064C175.82 14.0997 175.67 13.3798 175.67 12.5468C175.67 11.7138 175.82 10.9939 176.121 10.3871C176.422 9.78037 176.834 9.31244 177.359 8.98335C177.883 8.65426 178.482 8.48972 179.156 8.48972C179.829 8.48972 180.429 8.65426 180.953 8.98335C181.478 9.31244 181.89 9.78037 182.191 10.3871C182.492 10.9939 182.642 11.7138 182.642 12.5468ZM181.717 12.5468C181.717 11.8629 181.602 11.2857 181.373 10.8152C181.147 10.3447 180.84 9.98862 180.452 9.74695C180.066 9.50527 179.634 9.38443 179.156 9.38443C178.678 9.38443 178.244 9.50527 177.856 9.74695C177.471 9.98862 177.163 10.3447 176.935 10.8152C176.708 11.2857 176.595 11.8629 176.595 12.5468C176.595 13.2307 176.708 13.8079 176.935 14.2784C177.163 14.7489 177.471 15.105 177.856 15.3466C178.244 15.5883 178.678 15.7091 179.156 15.7091C179.634 15.7091 180.066 15.5883 180.452 15.3466C180.84 15.105 181.147 14.7489 181.373 14.2784C181.602 13.8079 181.717 13.2307 181.717 12.5468ZM184.25 16.4959V8.5977H189.017V9.44614H185.207V12.1149H188.77V12.9633H185.207V15.6474H189.079V16.4959H184.25Z" fill="#1D1D1B"></path>
<path d="M106.449 21.7173H107.698C108.284 21.7173 108.805 21.8484 109.26 22.1107C109.715 22.3729 110.072 22.738 110.332 23.2059C110.592 23.6739 110.722 24.2163 110.722 24.8334C110.722 25.4504 110.592 25.9942 110.332 26.4647C110.072 26.9352 109.715 27.3029 109.26 27.5677C108.805 27.8325 108.284 27.9649 107.698 27.9649H106.449C105.862 27.9649 105.342 27.8338 104.887 27.5715C104.432 27.3093 104.074 26.9442 103.815 26.4763C103.555 26.0083 103.425 25.4659 103.425 24.8488C103.425 24.2318 103.555 23.688 103.815 23.2175C104.074 22.747 104.432 22.3794 104.887 22.1145C105.342 21.8497 105.862 21.7173 106.449 21.7173ZM106.449 22.5657C106.001 22.5657 105.623 22.6596 105.315 22.8473C105.009 23.035 104.776 23.2998 104.617 23.6417C104.46 23.9837 104.382 24.386 104.382 24.8488C104.382 25.3065 104.46 25.705 104.617 26.0443C104.776 26.3837 105.009 26.6472 105.315 26.8349C105.623 27.0226 106.001 27.1165 106.449 27.1165H107.698C108.146 27.1165 108.522 27.0226 108.828 26.8349C109.137 26.6472 109.369 26.3824 109.526 26.0405C109.686 25.6985 109.765 25.2962 109.765 24.8334C109.765 24.3757 109.686 23.9772 109.526 23.6379C109.369 23.2985 109.137 23.035 108.828 22.8473C108.522 22.6596 108.146 22.5657 107.698 22.5657H106.449ZM107.559 20.6375V28.9984H106.603V20.6375H107.559ZM112.324 28.6745V20.7763H117.091V21.6248H113.28V24.2935H116.844V25.1419H113.28V27.8261H117.152V28.6745H112.324ZM118.815 28.6745V20.7763H121.483C122.103 20.7763 122.609 20.8882 123.003 21.1118C123.399 21.3329 123.692 21.6325 123.882 22.0104C124.072 22.3883 124.167 22.81 124.167 23.2754C124.167 23.7407 124.072 24.1636 123.882 24.5442C123.694 24.9247 123.404 25.228 123.011 25.4543C122.617 25.678 122.113 25.7898 121.499 25.7898H119.586V24.9414H121.468C121.892 24.9414 122.233 24.8681 122.49 24.7216C122.747 24.575 122.933 24.377 123.049 24.1276C123.167 23.8757 123.226 23.5916 123.226 23.2754C123.226 22.9591 123.167 22.6763 123.049 22.4269C122.933 22.1775 122.746 21.9821 122.486 21.8407C122.226 21.6967 121.882 21.6248 121.452 21.6248H119.771V28.6745H118.815ZM125.708 20.7763H126.85L129.534 27.3324H129.626L132.311 20.7763H133.452V28.6745H132.557V22.6737H132.48L130.012 28.6745H129.148L126.68 22.6737H126.603V28.6745H125.708V20.7763ZM135.37 28.6745V20.7763H140.136V21.6248H136.326V24.2935H139.89V25.1419H136.326V27.8261H140.198V28.6745H135.37ZM141.86 28.6745V20.7763H144.529C145.149 20.7763 145.655 20.8882 146.048 21.1118C146.444 21.3329 146.738 21.6325 146.928 22.0104C147.118 22.3883 147.213 22.81 147.213 23.2754C147.213 23.7407 147.118 24.1636 146.928 24.5442C146.74 24.9247 146.45 25.228 146.056 25.4543C145.663 25.678 145.159 25.7898 144.544 25.7898H142.632V24.9414H144.514C144.938 24.9414 145.278 24.8681 145.536 24.7216C145.793 24.575 145.979 24.377 146.095 24.1276C146.213 23.8757 146.272 23.5916 146.272 23.2754C146.272 22.9591 146.213 22.6763 146.095 22.4269C145.979 22.1775 145.791 21.9821 145.532 21.8407C145.272 21.6967 144.928 21.6248 144.498 21.6248H142.817V28.6745H141.86ZM155.109 23.2445H154.153C154.096 22.9694 153.997 22.7277 153.856 22.5195C153.717 22.3112 153.548 22.1364 153.347 21.995C153.149 21.851 152.929 21.743 152.688 21.671C152.446 21.599 152.194 21.5631 151.932 21.5631C151.453 21.5631 151.02 21.6839 150.632 21.9256C150.246 22.1672 149.939 22.5233 149.71 22.9938C149.484 23.4643 149.371 24.0415 149.371 24.7254C149.371 25.4093 149.484 25.9865 149.71 26.457C149.939 26.9275 150.246 27.2836 150.632 27.5253C151.02 27.7669 151.453 27.8878 151.932 27.8878C152.194 27.8878 152.446 27.8518 152.688 27.7798C152.929 27.7078 153.149 27.6011 153.347 27.4597C153.548 27.3157 153.717 27.1396 153.856 26.9313C153.997 26.7205 154.096 26.4788 154.153 26.2063H155.109C155.037 26.61 154.906 26.9712 154.716 27.29C154.526 27.6088 154.289 27.8801 154.006 28.1037C153.724 28.3248 153.406 28.4932 153.054 28.6089C152.704 28.7246 152.33 28.7825 151.932 28.7825C151.258 28.7825 150.659 28.6179 150.134 28.2888C149.61 27.9598 149.197 27.4918 148.897 26.8851C148.596 26.2783 148.445 25.5584 148.445 24.7254C148.445 23.8924 148.596 23.1725 148.897 22.5657C149.197 21.959 149.61 21.4911 150.134 21.162C150.659 20.8329 151.258 20.6683 151.932 20.6683C152.33 20.6683 152.704 20.7262 153.054 20.8419C153.406 20.9576 153.724 21.1273 154.006 21.3509C154.289 21.572 154.526 21.842 154.716 22.1608C154.906 22.477 155.037 22.8383 155.109 23.2445ZM161.298 28.6745L158.583 25.0494H157.611V28.6745H156.655V20.7763H157.611V24.2009H158.028L161.19 20.7763H162.332L159.139 24.2472L162.44 28.6745H161.298ZM169.969 24.7254C169.969 25.5584 169.818 26.2783 169.517 26.8851C169.217 27.4918 168.804 27.9598 168.279 28.2888C167.755 28.6179 167.156 28.7825 166.482 28.7825C165.809 28.7825 165.21 28.6179 164.685 28.2888C164.161 27.9598 163.748 27.4918 163.447 26.8851C163.146 26.2783 162.996 25.5584 162.996 24.7254C162.996 23.8924 163.146 23.1725 163.447 22.5657C163.748 21.959 164.161 21.4911 164.685 21.162C165.21 20.8329 165.809 20.6683 166.482 20.6683C167.156 20.6683 167.755 20.8329 168.279 21.162C168.804 21.4911 169.217 21.959 169.517 22.5657C169.818 23.1725 169.969 23.8924 169.969 24.7254ZM169.043 24.7254C169.043 24.0415 168.929 23.4643 168.7 22.9938C168.474 22.5233 168.166 22.1672 167.778 21.9256C167.392 21.6839 166.961 21.5631 166.482 21.5631C166.004 21.5631 165.571 21.6839 165.183 21.9256C164.797 22.1672 164.49 22.5233 164.261 22.9938C164.035 23.4643 163.922 24.0415 163.922 24.7254C163.922 25.4093 164.035 25.9865 164.261 26.457C164.49 26.9275 164.797 27.2836 165.183 27.5253C165.571 27.7669 166.004 27.8878 166.482 27.8878C166.961 27.8878 167.392 27.7669 167.778 27.5253C168.166 27.2836 168.474 26.9275 168.7 26.457C168.929 25.9865 169.043 25.4093 169.043 24.7254ZM171.577 28.6745V20.7763H176.344V21.6248H172.533V24.2935H176.097V25.1419H172.533V27.8261H176.405V28.6745H171.577ZM181.585 20.7763L183.621 24.0621H183.682L185.719 20.7763H186.845L184.361 24.7254L186.845 28.6745H185.719L183.682 25.4504H183.621L181.585 28.6745H180.458L183.004 24.7254L180.458 20.7763H181.585ZM194.626 24.7254C194.626 25.5584 194.476 26.2783 194.175 26.8851C193.874 27.4918 193.462 27.9598 192.937 28.2888C192.413 28.6179 191.814 28.7825 191.14 28.7825C190.466 28.7825 189.867 28.6179 189.343 28.2888C188.818 27.9598 188.406 27.4918 188.105 26.8851C187.804 26.2783 187.654 25.5584 187.654 24.7254C187.654 23.8924 187.804 23.1725 188.105 22.5657C188.406 21.959 188.818 21.4911 189.343 21.162C189.867 20.8329 190.466 20.6683 191.14 20.6683C191.814 20.6683 192.413 20.8329 192.937 21.162C193.462 21.4911 193.874 21.959 194.175 22.5657C194.476 23.1725 194.626 23.8924 194.626 24.7254ZM193.701 24.7254C193.701 24.0415 193.586 23.4643 193.358 22.9938C193.131 22.5233 192.824 22.1672 192.436 21.9256C192.05 21.6839 191.618 21.5631 191.14 21.5631C190.662 21.5631 190.229 21.6839 189.84 21.9256C189.455 22.1672 189.148 22.5233 188.919 22.9938C188.692 23.4643 188.579 24.0415 188.579 24.7254C188.579 25.4093 188.692 25.9865 188.919 26.457C189.148 26.9275 189.455 27.2836 189.84 27.5253C190.229 27.7669 190.662 27.8878 191.14 27.8878C191.618 27.8878 192.05 27.7669 192.436 27.5253C192.824 27.2836 193.131 26.9275 193.358 26.457C193.586 25.9865 193.701 25.4093 193.701 24.7254ZM198.764 28.7825C198.255 28.7825 197.802 28.6951 197.403 28.5202C197.007 28.3454 196.692 28.1024 196.458 27.7914C196.227 27.4777 196.101 27.1139 196.08 26.7H197.052C197.073 26.9545 197.16 27.1743 197.314 27.3594C197.469 27.542 197.67 27.6834 197.92 27.7836C198.169 27.8839 198.446 27.934 198.749 27.934C199.088 27.934 199.389 27.8749 199.651 27.7566C199.914 27.6384 200.119 27.4738 200.268 27.263C200.418 27.0522 200.492 26.8079 200.492 26.5303C200.492 26.2397 200.42 25.9839 200.276 25.7628C200.132 25.5391 199.921 25.3643 199.644 25.2383C199.366 25.1123 199.027 25.0494 198.626 25.0494H197.993V24.2009H198.626C198.939 24.2009 199.214 24.1444 199.451 24.0312C199.69 23.9181 199.876 23.7587 200.01 23.553C200.146 23.3473 200.214 23.1057 200.214 22.828C200.214 22.5606 200.155 22.3279 200.037 22.13C199.919 21.932 199.752 21.7777 199.536 21.6672C199.322 21.5566 199.07 21.5013 198.78 21.5013C198.507 21.5013 198.25 21.5515 198.009 21.6518C197.769 21.7494 197.574 21.8921 197.422 22.0798C197.271 22.2649 197.188 22.4886 197.176 22.7509H196.25C196.265 22.3369 196.39 21.9744 196.624 21.6633C196.858 21.3497 197.164 21.1054 197.542 20.9306C197.922 20.7557 198.34 20.6683 198.795 20.6683C199.284 20.6683 199.703 20.7673 200.053 20.9653C200.402 21.1607 200.671 21.4191 200.859 21.7405C201.046 22.0618 201.14 22.4089 201.14 22.7817C201.14 23.2265 201.023 23.6057 200.789 23.9194C200.558 24.2331 200.243 24.4503 199.844 24.5711V24.6329C200.343 24.7151 200.733 24.9272 201.013 25.2692C201.293 25.6086 201.433 26.0289 201.433 26.5303C201.433 26.9596 201.316 27.3453 201.082 27.6872C200.851 28.0266 200.535 28.294 200.133 28.4894C199.732 28.6848 199.276 28.7825 198.764 28.7825ZM208.518 28.6745H207.561V21.6248H205.88C205.453 21.6248 205.11 21.6903 204.85 21.8214C204.59 21.95 204.401 22.1325 204.283 22.3691C204.165 22.6056 204.106 22.882 204.106 23.1982C204.106 23.5145 204.164 23.787 204.279 24.0158C204.398 24.2421 204.585 24.4169 204.842 24.5403C205.102 24.6637 205.443 24.7254 205.864 24.7254H207.993V25.5893H205.833C205.222 25.5893 204.719 25.4877 204.326 25.2846C203.932 25.0789 203.64 24.7961 203.45 24.4362C203.26 24.0762 203.165 23.6636 203.165 23.1982C203.165 22.7329 203.26 22.3176 203.45 21.9526C203.64 21.5875 203.933 21.3008 204.329 21.0926C204.725 20.8817 205.232 20.7763 205.849 20.7763H208.518V28.6745ZM204.8 25.1265H205.88L203.967 28.6745H202.856L204.8 25.1265ZM210.435 20.7763H211.376V26.9931H211.453L215.773 20.7763H216.698V28.6745H215.742V22.4732H215.665L211.361 28.6745H210.435V20.7763ZM214.323 18.8018H215.171C215.171 19.2183 215.027 19.5589 214.739 19.8238C214.451 20.0886 214.06 20.221 213.567 20.221C213.081 20.221 212.694 20.0886 212.406 19.8238C212.121 19.5589 211.978 19.2183 211.978 18.8018H212.826C212.826 19.0023 212.882 19.1784 212.992 19.3301C213.105 19.4818 213.297 19.5577 213.567 19.5577C213.837 19.5577 214.03 19.4818 214.145 19.3301C214.264 19.1784 214.323 19.0023 214.323 18.8018ZM224.968 23.2445H224.011C223.955 22.9694 223.856 22.7277 223.714 22.5195C223.575 22.3112 223.406 22.1364 223.205 21.995C223.007 21.851 222.787 21.743 222.546 21.671C222.304 21.599 222.052 21.5631 221.79 21.5631C221.312 21.5631 220.878 21.6839 220.49 21.9256C220.105 22.1672 219.797 22.5233 219.568 22.9938C219.342 23.4643 219.229 24.0415 219.229 24.7254C219.229 25.4093 219.342 25.9865 219.568 26.457C219.797 26.9275 220.105 27.2836 220.49 27.5253C220.878 27.7669 221.312 27.8878 221.79 27.8878C222.052 27.8878 222.304 27.8518 222.546 27.7798C222.787 27.7078 223.007 27.6011 223.205 27.4597C223.406 27.3157 223.575 27.1396 223.714 26.9313C223.856 26.7205 223.955 26.4788 224.011 26.2063H224.968C224.896 26.61 224.765 26.9712 224.574 27.29C224.384 27.6088 224.147 27.8801 223.865 28.1037C223.582 28.3248 223.264 28.4932 222.912 28.6089C222.562 28.7246 222.188 28.7825 221.79 28.7825C221.116 28.7825 220.517 28.6179 219.993 28.2888C219.468 27.9598 219.056 27.4918 218.755 26.8851C218.454 26.2783 218.304 25.5584 218.304 24.7254C218.304 23.8924 218.454 23.1725 218.755 22.5657C219.056 21.959 219.468 21.4911 219.993 21.162C220.517 20.8329 221.116 20.6683 221.79 20.6683C222.188 20.6683 222.562 20.7262 222.912 20.8419C223.264 20.9576 223.582 21.1273 223.865 21.3509C224.147 21.572 224.384 21.842 224.574 22.1608C224.765 22.477 224.896 22.8383 224.968 23.2445ZM226.081 21.6248V20.7763H232.005V21.6248H229.521V28.6745H228.565V21.6248H226.081ZM233.481 28.6745V20.7763H236.242C236.792 20.7763 237.246 20.8714 237.604 21.0617C237.961 21.2494 238.227 21.5026 238.402 21.8214C238.577 22.1377 238.664 22.4886 238.664 22.8743C238.664 23.2136 238.604 23.4939 238.483 23.715C238.365 23.9361 238.208 24.1109 238.012 24.2395C237.82 24.368 237.61 24.4632 237.384 24.5249V24.602C237.625 24.6174 237.868 24.7023 238.113 24.8565C238.357 25.0108 238.561 25.2319 238.726 25.5199C238.89 25.8078 238.973 26.16 238.973 26.5765C238.973 26.9725 238.883 27.3286 238.703 27.6448C238.523 27.961 238.239 28.2117 237.85 28.3968C237.462 28.5819 236.957 28.6745 236.335 28.6745H233.481ZM234.437 27.8261H236.335C236.96 27.8261 237.403 27.7052 237.665 27.4635C237.93 27.2193 238.063 26.9236 238.063 26.5765C238.063 26.3092 237.994 26.0623 237.858 25.8361C237.722 25.6073 237.528 25.4247 237.276 25.2885C237.024 25.1496 236.726 25.0802 236.381 25.0802H234.437V27.8261ZM234.437 24.2472H236.211C236.499 24.2472 236.759 24.1906 236.99 24.0775C237.224 23.9644 237.409 23.805 237.546 23.5993C237.685 23.3936 237.754 23.1519 237.754 22.8743C237.754 22.5272 237.633 22.2328 237.391 21.9911C237.15 21.7469 236.767 21.6248 236.242 21.6248H234.437V24.2472ZM247.208 24.7254C247.208 25.5584 247.058 26.2783 246.757 26.8851C246.456 27.4918 246.044 27.9598 245.519 28.2888C244.995 28.6179 244.396 28.7825 243.722 28.7825C243.048 28.7825 242.449 28.6179 241.925 28.2888C241.4 27.9598 240.988 27.4918 240.687 26.8851C240.386 26.2783 240.236 25.5584 240.236 24.7254C240.236 23.8924 240.386 23.1725 240.687 22.5657C240.988 21.959 241.4 21.4911 241.925 21.162C242.449 20.8329 243.048 20.6683 243.722 20.6683C244.396 20.6683 244.995 20.8329 245.519 21.162C246.044 21.4911 246.456 21.959 246.757 22.5657C247.058 23.1725 247.208 23.8924 247.208 24.7254ZM246.283 24.7254C246.283 24.0415 246.168 23.4643 245.939 22.9938C245.713 22.5233 245.406 22.1672 245.018 21.9256C244.632 21.6839 244.2 21.5631 243.722 21.5631C243.244 21.5631 242.811 21.6839 242.422 21.9256C242.037 22.1672 241.729 22.5233 241.501 22.9938C241.274 23.4643 241.161 24.0415 241.161 24.7254C241.161 25.4093 241.274 25.9865 241.501 26.457C241.729 26.9275 242.037 27.2836 242.422 27.5253C242.811 27.7669 243.244 27.8878 243.722 27.8878C244.2 27.8878 244.632 27.7669 245.018 27.5253C245.406 27.2836 245.713 26.9275 245.939 26.457C246.168 25.9865 246.283 25.4093 246.283 24.7254Z" fill="#1D1D1B"></path>
<path d="M114.801 58.9864C115.045 58.7994 115.29 58.5471 115.553 58.2386L115.844 57.8835L115.975 57.7152L116.098 57.547L117.864 59.2948C116.182 60.8744 114.416 61.6595 112.537 61.6595C109.278 61.6595 106.685 60.4351 104.769 57.9582C103.05 55.7151 102.185 52.9765 102.185 49.7426C102.185 46.5087 103.04 43.7888 104.769 41.5269C106.685 39.0407 109.268 37.7883 112.537 37.7883C114.388 37.7883 116.135 38.6108 117.798 40.2558L116.126 41.8914C115.628 41.1998 115.149 40.667 114.688 40.2932C114.022 39.7791 113.298 39.5174 112.537 39.5174C110.536 39.5174 108.939 40.5829 107.737 42.7046C106.676 44.6113 106.131 46.9293 106.112 49.6772C106.112 52.4251 106.647 54.7617 107.709 56.6684C108.883 58.7901 110.489 59.8462 112.537 59.8462C113.317 59.8462 114.068 59.5659 114.792 58.9677L114.801 58.9864Z" fill="#E73440"></path>
<path d="M133.241 59.4163L132.884 61.1361H119.855V38.4052H132.227L132.584 40.0876H123.706V46.3498H128.507V48.0322H123.706V59.3976H133.241V59.4163Z" fill="#E73440"></path>
<path d="M157.919 38.4052V61.1361H154.067V43.5364L145.679 62.5942L137.29 43.5364V61.1361H135.233V38.4052H138.765L146.627 56.1917L154.462 38.4052H157.928H157.919Z" fill="#E73440"></path>
<path d="M177.824 47.2003C179.111 48.621 179.75 50.4249 179.75 52.5559C179.75 54.9019 178.998 56.874 177.495 58.4723C175.804 60.2482 173.503 61.1361 170.61 61.1361H161.498V38.4052H165.349V47.7518C167.265 45.8638 169.623 44.9291 172.432 44.9291C174.649 44.9291 176.443 45.6955 177.815 47.2097L177.824 47.2003ZM165.358 59.3509H166.044L166.796 59.3883C167.472 59.407 168.026 59.407 168.468 59.3883C169.82 59.3696 170.948 59.2107 171.859 58.9303C174.47 58.1078 175.786 56.0889 175.814 52.8924C175.814 51.2754 175.438 49.8828 174.668 48.7332C173.822 47.4433 172.657 46.7704 171.183 46.733C169.792 46.7891 168.534 47.191 167.425 47.9293C166.551 48.4995 165.866 49.1818 165.368 49.9763V59.3602L165.358 59.3509Z" fill="#E73440"></path>
<path d="M199.561 38.4052V61.1361H195.672V44.2468L185.198 61.1361H182.549V38.4052H186.401V55.2851L196.912 38.4052H199.552H199.561Z" fill="#E73440"></path>
<path d="M121.537 69.4733V92.2042H117.685V71.165H110.273V84.0539C110.273 86.4934 109.559 88.4655 108.122 89.961C106.685 91.4658 104.797 92.2042 102.439 92.2042V90.6526C103.632 90.6526 104.637 90.0358 105.445 88.8301C106.272 87.5963 106.685 86.0261 106.685 84.1194V69.4733H121.537Z" fill="#E73440"></path>
<path d="M141.48 78.2684C142.766 79.6891 143.405 81.493 143.405 83.624C143.405 85.97 142.654 87.9421 141.151 89.5404C139.46 91.3162 137.158 92.2042 134.265 92.2042H125.153V69.4732H129.005V78.8198C130.921 76.9318 133.279 75.9972 136.087 75.9972C138.304 75.9972 140.099 76.7636 141.47 78.2777L141.48 78.2684ZM129.014 90.4096H129.7L130.451 90.447C131.128 90.4657 131.682 90.4657 132.123 90.447C133.476 90.4283 134.603 90.2694 135.514 89.989C138.126 89.1665 139.441 87.1477 139.469 83.9511C139.469 82.3342 139.093 80.9415 138.323 79.7919C137.478 78.5021 136.313 77.8291 134.838 77.7917C133.448 77.8478 132.189 78.2497 131.081 78.9881C130.207 79.5582 129.521 80.2405 129.023 81.035V90.419L129.014 90.4096ZM147.003 92.1948V69.4639H150.883V92.1948H147.003Z" fill="#E73440"></path>
<path d="M170.469 69.4733V92.2042H166.617V82.8856C164.701 84.7082 162.371 85.6148 159.628 85.6148C157.843 85.6148 156.406 85.0914 155.326 84.0259C154.189 82.923 153.626 81.4369 153.626 79.5769V69.4826H157.477V79.4835C157.477 80.7546 157.834 81.8014 158.557 82.6239C159.224 83.3716 160.023 83.7548 160.943 83.7922C162.268 83.7455 163.461 83.3997 164.532 82.7548C165.424 82.194 166.119 81.521 166.617 80.7079V69.4826H170.469V69.4733Z" fill="#E73440"></path>
<path d="M187.077 92.1948L180.154 79.2685H177.871V92.1948H174.02V69.4639H177.871V77.8945H180.999L185.893 69.4639H188.307L183.441 77.8291L191.116 92.1855H187.067L187.077 92.1948Z" fill="#E73440"></path>
<path d="M210.129 69.4733V92.2042H206.24V75.3149L195.766 92.2042H193.117V69.4733H196.968V86.3532L207.48 69.4733H210.12H210.129Z" fill="#E73440"></path>
<path d="M230.72 69.4733V92.2042H226.831V79.1189H217.56V92.2042H213.708V69.4733H217.56V77.4272H226.831V69.4733H230.72Z" fill="#E73440"></path>
<path d="M250.626 78.2684C251.913 79.6891 252.551 81.493 252.551 83.624C252.551 85.97 251.8 87.9421 250.297 89.5404C248.606 91.3162 246.305 92.2042 243.411 92.2042H234.299V69.4732H238.151V78.8198C240.067 76.9318 242.425 75.9972 245.234 75.9972C247.451 75.9972 249.245 76.7636 250.616 78.2777L250.626 78.2684ZM238.16 90.4096H238.846L239.597 90.447C240.274 90.4657 240.828 90.4657 241.269 90.447C242.622 90.4283 243.749 90.2694 244.661 89.989C247.272 89.1665 248.587 87.1477 248.615 83.9511C248.615 82.3342 248.24 80.9415 247.469 79.7919C246.624 78.5021 245.459 77.8291 243.984 77.7917C242.594 77.8478 241.335 78.2497 240.227 78.9881C239.353 79.5582 238.667 80.2405 238.17 81.035V90.419L238.16 90.4096ZM256.149 92.1948V69.4639H260.029V92.1948H256.149Z" fill="#E73440"></path>
<path d="M275.529 92.1948L270.268 83.5866L264.425 92.1948H262.105L269.216 81.6986L261.936 69.4639H266.407L271.668 78.0628L277.511 69.4639H279.831L272.71 79.9414L279.991 92.1855H275.519L275.529 92.1948Z" fill="#E73440"></path>
<path d="M107.418 104.345C107.906 104.831 108.15 105.486 108.15 106.308C108.15 107.131 107.906 107.794 107.418 108.271C106.929 108.766 106.262 109.009 105.426 109.009C104.59 109.009 103.933 108.766 103.444 108.271C102.946 107.804 102.702 107.14 102.702 106.308C102.702 105.476 102.946 104.831 103.444 104.345C103.933 103.859 104.59 103.626 105.426 103.626C106.262 103.626 106.92 103.869 107.418 104.345ZM105.436 107.953C105.905 107.953 106.272 107.804 106.535 107.495C106.798 107.187 106.92 106.794 106.92 106.308C106.92 105.822 106.798 105.439 106.535 105.14C106.272 104.841 105.915 104.682 105.436 104.682C104.957 104.682 104.6 104.831 104.337 105.14C104.074 105.448 103.942 105.841 103.942 106.308C103.942 106.776 104.074 107.187 104.337 107.495C104.6 107.804 104.957 107.953 105.436 107.953Z" fill="#EE7E05"></path>
<path d="M110.837 108.271C110.339 107.804 110.095 107.14 110.095 106.308C110.095 105.476 110.339 104.831 110.837 104.345C111.325 103.859 111.983 103.626 112.819 103.626C113.655 103.626 114.266 103.831 114.754 104.243C115.243 104.644 115.478 105.159 115.478 105.785H114.209C114.209 105.785 114.2 105.71 114.191 105.663C114.181 105.607 114.144 105.523 114.087 105.392C114.031 105.261 113.946 105.149 113.862 105.065C113.777 104.962 113.636 104.878 113.458 104.794C113.27 104.719 113.063 104.682 112.819 104.682C112.349 104.682 111.983 104.831 111.72 105.14C111.457 105.448 111.335 105.841 111.335 106.308C111.335 106.776 111.466 107.187 111.729 107.495C111.992 107.804 112.349 107.953 112.819 107.953C113.054 107.953 113.261 107.916 113.439 107.85C113.627 107.776 113.768 107.673 113.871 107.57C114.068 107.336 114.172 107.14 114.2 106.972L114.219 106.86H115.487C115.487 107.476 115.243 107.991 114.764 108.392C114.275 108.794 113.627 109.009 112.828 109.009C112.03 109.009 111.335 108.766 110.846 108.271H110.837Z" fill="#EE7E05"></path>
<path d="M122.448 108.925H121.264V106.71H118.728V108.925H117.544V103.7H118.728V105.682H121.264V103.7H122.448V108.925Z" fill="#EE7E05"></path>
<path d="M125.501 107.963C125.623 108.075 125.679 108.215 125.679 108.402C125.679 108.589 125.623 108.729 125.501 108.841C125.379 108.953 125.228 109.009 125.04 109.009C124.853 109.009 124.702 108.953 124.58 108.841C124.458 108.729 124.402 108.589 124.402 108.402C124.402 108.215 124.458 108.075 124.58 107.963C124.693 107.86 124.853 107.813 125.04 107.813C125.228 107.813 125.379 107.869 125.501 107.963Z" fill="#EE7E05"></path>
<path d="M134.876 108.925H130.329V108.093C130.329 107.85 130.385 107.635 130.508 107.43C130.63 107.233 130.789 107.065 130.996 106.934C131.297 106.747 131.748 106.551 132.368 106.346C132.565 106.28 132.734 106.224 132.875 106.159C133.016 106.103 133.147 106.028 133.279 105.953C133.41 105.869 133.514 105.775 133.579 105.673C133.645 105.57 133.683 105.458 133.683 105.336C133.683 104.869 133.344 104.635 132.668 104.635C132.33 104.635 132.076 104.701 131.907 104.85C131.738 104.99 131.654 105.205 131.654 105.467V105.673H130.47V105.467C130.47 104.869 130.658 104.401 131.034 104.102C131.4 103.794 131.954 103.644 132.668 103.644C133.382 103.644 133.927 103.785 134.303 104.084C134.678 104.364 134.866 104.794 134.866 105.345C134.866 105.654 134.782 105.925 134.631 106.168C134.472 106.411 134.274 106.598 134.04 106.729C133.795 106.869 133.542 107 133.279 107.112C132.997 107.224 132.734 107.318 132.508 107.383C132.264 107.458 132.067 107.551 131.917 107.645C131.757 107.748 131.682 107.841 131.682 107.953H134.885V108.953L134.876 108.925Z" fill="#EE7E05"></path>
<path d="M137.487 108.252C137.046 107.757 136.83 107.112 136.83 106.299C136.83 105.486 137.046 104.841 137.487 104.345C137.929 103.859 138.539 103.607 139.328 103.607C140.117 103.607 140.719 103.859 141.16 104.345C141.602 104.841 141.827 105.495 141.827 106.299C141.827 107.103 141.602 107.757 141.16 108.252C140.719 108.748 140.108 109 139.328 109C138.549 109 137.938 108.748 137.487 108.252ZM139.319 107.953C139.723 107.953 140.033 107.813 140.249 107.505C140.465 107.196 140.578 106.804 140.578 106.308C140.578 105.813 140.465 105.43 140.249 105.121C140.033 104.813 139.723 104.673 139.319 104.673C138.915 104.673 138.596 104.813 138.38 105.121C138.163 105.43 138.051 105.822 138.051 106.308C138.051 106.794 138.163 107.196 138.38 107.505C138.596 107.813 138.906 107.953 139.319 107.953Z" fill="#EE7E05"></path>
<path d="M144.429 108.252C143.988 107.757 143.772 107.112 143.772 106.299C143.772 105.486 143.988 104.841 144.429 104.345C144.871 103.859 145.481 103.607 146.27 103.607C147.059 103.607 147.661 103.859 148.102 104.345C148.544 104.841 148.769 105.495 148.769 106.299C148.769 107.103 148.544 107.757 148.102 108.252C147.661 108.748 147.05 109 146.27 109C145.491 109 144.88 108.748 144.429 108.252ZM146.261 107.953C146.665 107.953 146.975 107.813 147.191 107.505C147.407 107.196 147.52 106.804 147.52 106.308C147.52 105.813 147.407 105.43 147.191 105.121C146.975 104.813 146.665 104.673 146.261 104.673C145.857 104.673 145.538 104.813 145.322 105.121C145.105 105.43 144.993 105.822 144.993 106.308C144.993 106.794 145.105 107.196 145.322 107.505C145.538 107.813 145.848 107.953 146.261 107.953Z" fill="#EE7E05"></path>
<path d="M151.409 104.018C151.784 103.757 152.32 103.626 152.996 103.626C153.673 103.626 154.208 103.757 154.584 104.018C154.95 104.28 155.138 104.616 155.138 105.037C155.138 105.205 155.1 105.355 155.035 105.486C154.969 105.626 154.884 105.738 154.781 105.822C154.584 105.972 154.405 106.084 154.236 106.131L154.133 106.149V106.205C154.246 106.224 154.387 106.271 154.546 106.346C154.668 106.402 154.79 106.476 154.903 106.561C155.007 106.645 155.1 106.766 155.185 106.934C155.27 107.084 155.307 107.262 155.307 107.467C155.307 107.963 155.1 108.346 154.697 108.598C154.283 108.86 153.72 108.991 152.987 108.991C152.254 108.991 151.691 108.86 151.277 108.598C150.864 108.336 150.657 107.963 150.657 107.467C150.657 107.271 150.695 107.093 150.77 106.944C150.845 106.776 150.948 106.645 151.071 106.561C151.334 106.374 151.54 106.261 151.719 106.233L151.841 106.196V106.14C151.728 106.121 151.606 106.075 151.484 106.009C151.371 105.953 151.277 105.888 151.183 105.813C151.08 105.729 151.005 105.607 150.939 105.476C150.873 105.336 150.836 105.177 150.836 105.028C150.836 104.607 151.033 104.271 151.399 104.009L151.409 104.018ZM152.188 107.86C152.367 107.981 152.639 108.037 152.996 108.037C153.353 108.037 153.616 107.981 153.804 107.86C153.983 107.738 154.077 107.579 154.077 107.364C154.077 107.131 153.983 106.972 153.795 106.85C153.616 106.729 153.344 106.673 152.987 106.673C152.63 106.673 152.357 106.729 152.179 106.85C151.991 106.972 151.897 107.131 151.897 107.364C151.897 107.57 151.991 107.738 152.179 107.86H152.188ZM153.907 105.187C153.907 105 153.832 104.85 153.663 104.738C153.504 104.626 153.278 104.57 152.996 104.57C152.714 104.57 152.489 104.626 152.329 104.738C152.16 104.85 152.085 105 152.085 105.187C152.085 105.374 152.17 105.523 152.329 105.635C152.489 105.747 152.714 105.803 152.996 105.803C153.278 105.803 153.504 105.747 153.663 105.635C153.823 105.523 153.898 105.374 153.898 105.187H153.907Z" fill="#EE7E05"></path>
</g>
<defs>
<clipPath id="clip0_6001_923">
<rect width="280" height="109" fill="white"></rect>
</clipPath>
</defs>
</svg>