<svg width="204" height="204" viewBox="0 0 204 204" fill="none" xmlns="http://www.w3.org/2000/svg">
<g clip-path="url(#clip0_6011_3955)">
<path d="M101.999 30.829C62.6915 30.829 30.8223 62.6982 30.8223 102.006C30.8223 141.313 62.6915 173.183 101.999 173.183C141.307 173.183 173.176 141.319 173.176 102.006C173.176 62.6924 141.307 30.829 101.999 30.829ZM101.999 170.69C64.0629 170.69 33.3095 139.936 33.3095 102C33.3095 64.0638 64.0629 33.3104 101.999 33.3104C139.935 33.3104 170.689 64.0638 170.689 102C170.689 139.936 139.935 170.69 101.999 170.69Z" fill="#E73440"></path>
<path d="M113.412 56.759C110.449 60.0715 108.694 68.7419 106.573 77.2148C104.399 85.8853 102.255 91.1736 95.5717 91.2666C90.8878 91.3305 88.2204 88.204 86.7676 85.2809C86.8838 86.2049 89.5047 91.9349 95.4671 91.9349C102.818 91.9349 105.288 86.5129 107.409 77.488C111.599 59.6937 114.97 56.3464 114.97 56.3464C114.97 56.3464 114.121 56.6196 113.407 56.759H113.412Z" fill="#E73440"></path>
<path d="M102 134.45C102 134.45 125.611 134.45 134.601 112.42C140.924 94.4395 129.267 79.1732 129.214 69.4916L131.341 70.2354C131.341 70.2354 130.603 72.7168 134.503 84.4615C138.553 96.6652 138.652 106.492 134.7 114.494C130.749 122.496 121.758 134.45 102 134.45Z" fill="#E73440"></path>
<path d="M130.991 57.8225C130.991 57.8225 131.34 57.1891 132.281 56.8927C136.681 57.2879 138.9 58.6245 138.9 58.6245C138.9 58.6245 135.588 60.5538 134.455 62.4774C136.198 64.1568 136.681 65.97 135.681 67.9109C134.246 70.7062 129.364 71.421 128.045 68.4514C126.406 64.7612 129.068 63.0178 129.068 63.0178C129.068 63.0178 127.092 64.9472 128.673 67.3182C130.253 69.6892 134.106 69.3405 134.798 66.4755C135.489 63.6106 132.13 62.0764 132.13 62.0764C132.13 62.0764 135.094 59.1591 136.774 58.6187C133.659 57.9736 130.991 57.8167 130.991 57.8167V57.8225Z" fill="#E73440"></path>
<path d="M122.967 59.0777C122.967 59.0777 124.745 58.4501 125.82 58.5605C126.041 56.4859 124.931 55.8176 124.077 56.4859C123.222 57.1542 122.967 59.0777 122.967 59.0777Z" fill="#E73440"></path>
<path d="M123.932 51.372C123.932 51.372 130.783 50.8664 130.307 57.3169C130.591 56.9218 131.196 56.9566 131.196 56.6893C131.219 52.3366 127.041 50.6339 123.932 51.3778V51.372Z" fill="#E73440"></path>
<path d="M117.312 51.8949C116.469 51.1511 115.458 50.6978 114.412 50.4828C113.366 50.2678 112.297 50.2678 111.28 50.4712C110.263 50.6746 109.304 51.0755 108.484 51.6683C107.665 52.2611 106.997 53.0398 106.503 53.9231L106.317 53.0223C106.695 53.3071 107.142 53.557 107.613 53.7662C108.084 53.9812 108.577 54.1555 109.083 54.3066C110.094 54.603 111.146 54.789 112.198 54.8122C113.244 54.8355 114.302 54.696 115.226 54.2311C115.691 54.0044 116.109 53.6848 116.463 53.2838C116.644 53.0863 116.8 52.8654 116.94 52.6272C117.004 52.5109 117.085 52.3889 117.138 52.2669L117.312 51.8833V51.8949ZM117.312 51.8949L117.242 52.3075C117.213 52.4528 117.167 52.5807 117.132 52.726C117.045 52.9991 116.928 53.2664 116.777 53.5221C116.487 54.0335 116.068 54.4752 115.58 54.8296C114.598 55.5328 113.389 55.8408 112.221 55.928C111.041 56.0093 109.868 55.8815 108.729 55.6025C107.59 55.3062 106.48 54.8994 105.451 54.1439L104.957 53.7836L105.265 53.2432C105.567 52.7143 105.922 52.2146 106.334 51.7613C106.747 51.3138 107.212 50.907 107.723 50.57C108.746 49.8958 109.926 49.4949 111.111 49.3786C112.303 49.2624 113.505 49.4077 114.598 49.8261C115.685 50.2445 116.69 50.9419 117.3 51.8949H117.312Z" fill="#E73440"></path>
<path d="M81.6947 72.897C82.1073 72.2229 82.2526 71.4674 82.2294 70.7294C82.2177 69.9914 82.0434 69.2649 81.7819 68.585C81.5204 67.9051 81.1543 67.2717 80.701 66.7254C80.2477 66.1791 79.7072 65.7084 79.1029 65.3772L79.8525 65.2203C79.6956 65.4237 79.5678 65.7433 79.4806 66.0745C79.3876 66.4058 79.3353 66.7661 79.3005 67.1264C79.2365 67.847 79.2656 68.5908 79.3818 69.3231C79.5039 70.0495 79.7072 70.7701 80.0734 71.4035C80.4278 72.0486 80.9741 72.589 81.7063 72.9086L81.6947 72.897ZM81.6947 72.897C81.2995 72.868 80.9044 72.7343 80.5441 72.5309C80.1838 72.3275 79.87 72.0427 79.591 71.7289C79.0564 71.0839 78.6903 70.311 78.4694 69.5148C78.2428 68.7187 78.1498 67.8877 78.1789 67.0508C78.1963 66.6324 78.2486 66.2082 78.3474 65.784C78.4578 65.3597 78.5973 64.9297 78.9111 64.5055L79.2133 64.0987L79.6608 64.3486C80.4162 64.7728 81.0671 65.3597 81.5669 66.0455C82.0724 66.7254 82.4386 67.4983 82.6478 68.3061C82.8628 69.1138 82.9209 69.9565 82.7931 70.7759C82.6594 71.5837 82.3049 72.3972 81.6889 72.9028L81.6947 72.897Z" fill="#E73440"></path>
<path d="M121.036 50.9942C121.071 50.1574 120.775 49.3903 120.356 48.7394C119.932 48.0827 119.357 47.5539 118.712 47.1587C118.067 46.7636 117.34 46.5021 116.591 46.3568C116.219 46.2812 115.835 46.2347 115.446 46.2173C115.062 46.1882 114.673 46.1999 114.284 46.2173L114.836 45.6013C114.871 46.258 115.132 46.9437 115.504 47.5772C115.876 48.2106 116.352 48.7975 116.899 49.3089C117.451 49.8203 118.067 50.2678 118.764 50.57C119.456 50.8838 120.229 51.0465 121.036 50.9884V50.9942ZM121.036 50.9942C120.287 51.3138 119.403 51.3196 118.584 51.122C117.765 50.9187 116.992 50.5293 116.312 50.0237C115.632 49.5181 115.033 48.8905 114.557 48.1699C114.086 47.4493 113.726 46.6125 113.662 45.6652L113.627 45.0783L114.214 45.0492C115.08 45.0086 115.963 45.055 116.829 45.2701C117.689 45.4793 118.526 45.8512 119.235 46.3975C119.944 46.9379 120.513 47.6585 120.862 48.4663C121.025 48.8731 121.147 49.2973 121.182 49.7273C121.199 49.9424 121.199 50.1574 121.182 50.3724C121.153 50.5816 121.112 50.7966 121.036 50.9884V50.9942Z" fill="#E73440"></path>
<path d="M124.355 50.8664C124.599 50.3898 124.634 49.8726 124.57 49.3845C124.506 48.8963 124.326 48.443 124.07 48.0479C123.815 47.6469 123.483 47.304 123.106 47.0135C122.728 46.7229 122.298 46.4846 121.85 46.287L122.466 46.0488C122.304 46.4091 122.257 46.8624 122.28 47.3156C122.304 47.7747 122.402 48.2338 122.554 48.6813C122.71 49.123 122.92 49.5588 123.216 49.9365C123.507 50.3201 123.884 50.6397 124.355 50.8605V50.8664ZM124.355 50.8664C123.832 50.8547 123.315 50.6048 122.891 50.262C122.472 49.9133 122.129 49.4658 121.879 48.9777C121.63 48.4895 121.461 47.9549 121.397 47.397C121.333 46.8391 121.368 46.2464 121.618 45.6652L121.804 45.2352L122.234 45.4328C122.745 45.6652 123.239 45.95 123.675 46.3335C124.111 46.7113 124.483 47.1762 124.727 47.705C124.977 48.2338 125.081 48.8208 125.035 49.3845C124.977 49.9424 124.773 50.5177 124.361 50.8722L124.355 50.8664Z" fill="#E73440"></path>
<path d="M83.4091 75.7678C83.9089 75.576 84.2866 75.2215 84.5656 74.8147C84.8445 74.4138 85.013 73.9547 85.0944 73.4898C85.1699 73.0248 85.1583 72.5425 85.0711 72.0776C84.9898 71.6069 84.8271 71.1478 84.6295 70.7003L85.2455 70.9386C84.8852 71.1013 84.5423 71.4035 84.2517 71.7522C83.9612 72.1067 83.7229 72.5135 83.5369 72.9493C83.3568 73.3851 83.2173 73.8442 83.1883 74.3266C83.1476 74.8031 83.2057 75.2971 83.4091 75.7736V75.7678ZM83.4091 75.7678C83.0314 75.4075 82.8105 74.8787 82.7234 74.3382C82.6478 73.7978 82.6943 73.2399 82.8338 72.7052C82.9791 72.1764 83.2115 71.665 83.5369 71.2059C83.8624 70.7526 84.2866 70.3342 84.8619 70.0727L85.292 69.8751L85.4779 70.311C85.6987 70.8224 85.8789 71.3686 85.9428 71.9439C86.0126 72.5135 85.9777 73.1062 85.8034 73.6641C85.6348 74.222 85.321 74.7276 84.9026 75.1169C84.4842 75.4946 83.9496 75.7794 83.4033 75.762L83.4091 75.7678Z" fill="#E73440"></path>
<path d="M84.6062 79.6149C84.9665 79.4522 85.228 79.1674 85.414 78.8594C85.5999 78.5514 85.7046 78.2027 85.7452 77.8541C85.7743 77.5054 85.7452 77.1509 85.6581 76.808C85.5767 76.4651 85.4314 76.1339 85.2687 75.8085L85.7336 75.9538C85.4721 76.0874 85.2338 76.3315 85.0421 76.6046C84.8445 76.8778 84.6876 77.1916 84.5713 77.5228C84.4609 77.854 84.3796 78.2027 84.3796 78.5572C84.368 78.9117 84.4377 79.272 84.612 79.6149H84.6062ZM84.6062 79.6149C84.3098 79.365 84.1239 78.9873 84.0367 78.5921C83.9553 78.1969 83.9612 77.7785 84.0425 77.3833C84.1181 76.9824 84.2692 76.5988 84.49 76.2443C84.7108 75.8956 85.0014 75.5644 85.414 75.3436L85.722 75.1808L85.8789 75.4947C86.0707 75.8666 86.2218 76.2618 86.2973 76.6802C86.3729 77.0986 86.3787 77.5402 86.2741 77.9586C86.1753 78.3771 85.9661 78.7664 85.6813 79.0744C85.3907 79.3708 85.013 79.6091 84.6062 79.6207V79.6149Z" fill="#E73440"></path>
<path d="M85.9361 82.6251C86.1976 82.474 86.3487 82.2183 86.4417 81.9568C86.5405 81.6953 86.5695 81.4164 86.5637 81.1433C86.5521 80.8701 86.5056 80.597 86.4184 80.3297C86.3371 80.0623 86.2267 79.8067 86.0872 79.5626L86.4533 79.6497C86.279 79.7718 86.1279 79.9926 86.0175 80.2251C85.9012 80.4633 85.8257 80.7248 85.7734 80.9922C85.7269 81.2595 85.6978 81.5326 85.7211 81.8115C85.7385 82.0905 85.8024 82.3636 85.9361 82.6251ZM85.9361 82.6251C85.7153 82.4275 85.57 82.1486 85.477 81.858C85.3956 81.5617 85.3608 81.2537 85.384 80.9457C85.3956 80.6377 85.4712 80.3355 85.5816 80.0391C85.7037 79.7485 85.8722 79.458 86.1686 79.2371L86.401 79.0628L86.5347 79.3243C86.6799 79.6033 86.802 79.8938 86.8775 80.2076C86.9473 80.5156 86.9879 80.8411 86.9531 81.1607C86.924 81.4803 86.831 81.7999 86.6625 82.0731C86.494 82.3404 86.2441 82.5845 85.9303 82.6309L85.9361 82.6251Z" fill="#E73440"></path>
<path d="M82.787 76.5407C82.3744 76.9068 81.7816 77.023 81.2237 76.9998C80.6542 76.9649 80.0905 76.7731 79.6024 76.4593C79.1142 76.1455 78.7016 75.7097 78.3936 75.2273C78.074 74.745 77.8648 74.2103 77.7079 73.6757L77.5742 73.2224L78.0275 73.1004C78.6319 72.9377 79.2246 72.99 79.7709 73.1294C80.3172 73.2747 80.8227 73.513 81.2702 73.8326C81.7177 74.1464 82.1128 74.5474 82.3976 75.0123C82.6765 75.4772 82.8451 76.0293 82.787 76.5465V76.5407ZM82.787 76.5407C82.6359 76.0409 82.3685 75.6225 82.0315 75.2854C81.7002 74.9368 81.2993 74.6694 80.8808 74.4544C80.4624 74.2394 80.015 74.0767 79.5675 73.9895C79.12 73.9023 78.6667 73.8907 78.2832 73.9953L78.6028 73.42C78.7365 73.8907 78.9108 74.3498 79.1433 74.7624C79.3757 75.1808 79.6721 75.5528 80.0324 75.8666C80.3927 76.1746 80.8169 76.4186 81.2876 76.5465C81.7584 76.6801 82.2756 76.715 82.7811 76.5407H82.787Z" fill="#E73440"></path>
<path d="M83.9733 79.9635C83.6769 80.2425 83.241 80.3471 82.8284 80.3413C82.41 80.3296 81.9858 80.2018 81.6139 79.981C81.242 79.7601 80.9281 79.4521 80.6899 79.1034C80.4458 78.7548 80.2715 78.3654 80.1436 77.9702L80.0332 77.639L80.3644 77.5344C80.8119 77.3949 81.2478 77.4182 81.6546 77.5112C82.0613 77.6041 82.4391 77.7669 82.7819 77.9935C83.1248 78.2143 83.4212 78.4991 83.6478 78.8361C83.8687 79.1732 84.0081 79.5742 83.9733 79.9635ZM83.9733 79.9635C83.8512 79.5974 83.642 79.2952 83.3805 79.0511C83.1248 78.8071 82.8226 78.6153 82.5088 78.4642C82.1892 78.3189 81.8579 78.2085 81.5267 78.1562C81.1955 78.1039 80.8584 78.1039 80.5795 78.1969L80.8061 77.761C80.9165 78.1039 81.056 78.441 81.242 78.7432C81.4221 79.0453 81.6546 79.3127 81.9219 79.5393C82.195 79.7543 82.5146 79.9287 82.8691 80.01C83.2178 80.0972 83.6072 80.1088 83.9733 79.9693V79.9635Z" fill="#E73440"></path>
<path d="M85.287 82.5612C85.1243 82.8053 84.8221 82.9389 84.5141 82.9564C84.2061 82.9738 83.8923 82.8866 83.625 82.7239C83.3518 82.567 83.1426 82.3404 82.9567 82.1021C82.7765 81.858 82.6428 81.5907 82.5266 81.3234L82.4395 81.1142L82.6429 81.0096C82.9509 80.8469 83.2763 80.8236 83.5727 80.8643C83.869 80.9166 84.1538 81.0154 84.3979 81.1723C84.6477 81.3234 84.857 81.5326 85.0197 81.7709C85.1766 82.0091 85.2754 82.2881 85.2812 82.5612H85.287ZM85.287 82.5612C85.0603 82.0614 84.6594 81.7186 84.2177 81.521C83.9911 81.428 83.7586 81.3524 83.5262 81.3408C83.2937 81.3176 83.0671 81.3524 82.8985 81.4512L83.009 81.1374C83.2007 81.6256 83.4681 82.0905 83.8574 82.4043C84.055 82.5554 84.2816 82.6774 84.5315 82.7181C84.7814 82.7588 85.0545 82.7239 85.2928 82.567L85.287 82.5612Z" fill="#E73440"></path>
<path d="M86.8557 84.8392C87.0533 84.723 87.1695 84.5312 87.2392 84.3337C87.3148 84.1361 87.3322 83.9269 87.3322 83.7177C87.3148 83.3051 87.1753 82.8983 86.9719 82.5263L87.2509 82.5903C87.1172 82.6832 87.0068 82.846 86.9254 83.0261C86.8383 83.2063 86.7802 83.4039 86.7395 83.6014C86.6697 84.0024 86.6639 84.4325 86.8615 84.8334L86.8557 84.8392ZM86.8557 84.8392C86.6872 84.6882 86.5768 84.4789 86.5128 84.2581C86.4489 84.0373 86.4257 83.8048 86.4431 83.5724C86.4547 83.3399 86.507 83.1133 86.5942 82.8866C86.6872 82.6658 86.815 82.4508 87.0359 82.2823L87.2102 82.1544L87.3148 82.352C87.5356 82.7704 87.6809 83.2469 87.6344 83.7351C87.6112 83.9792 87.5414 84.2174 87.4136 84.4208C87.2857 84.6184 87.094 84.8102 86.8615 84.8392H86.8557Z" fill="#E73440"></path>
<path d="M86.2447 84.8625C86.111 85.031 85.8728 85.1182 85.6403 85.1124C85.4079 85.1124 85.1754 85.0194 84.9895 84.8857C84.7919 84.7521 84.6466 84.5661 84.5246 84.3801C84.4025 84.1884 84.3212 83.9791 84.2456 83.7699L84.1875 83.6072L84.3502 83.5375C84.5885 83.4329 84.8384 83.4387 85.0592 83.4852C85.28 83.5375 85.4892 83.6305 85.6636 83.7641C86.0181 84.0198 86.268 84.4441 86.2447 84.8625ZM86.2447 84.8625C86.1052 84.4731 85.8263 84.1942 85.5009 84.014C85.3381 83.9269 85.1638 83.8629 84.9895 83.8397C84.8151 83.8106 84.6408 83.8222 84.5071 83.8862L84.6117 83.6537C84.6757 83.8397 84.7396 84.0315 84.8384 84.2C84.9255 84.3743 85.0418 84.5312 85.1754 84.6591C85.3149 84.7869 85.4776 84.8915 85.6636 84.9322C85.8495 84.9787 86.0587 84.9671 86.2447 84.8683V84.8625Z" fill="#E73440"></path>
<path d="M63.7966 114.866C63.2503 114.14 62.5065 113.669 61.7045 113.39C60.9084 113.105 60.0657 112.972 59.2289 112.972C58.3921 112.972 57.5669 113.094 56.7881 113.349C56.0152 113.605 55.2888 113.983 54.6786 114.488L54.8239 113.623C54.975 113.878 55.2598 114.146 55.5794 114.378C55.8932 114.616 56.2535 114.826 56.6254 115.012C57.3693 115.383 58.177 115.668 59.0022 115.843C59.8275 116.023 60.6759 116.092 61.5127 115.976C62.3437 115.866 63.1573 115.511 63.7966 114.866ZM63.7966 114.866C63.599 115.273 63.291 115.645 62.9249 115.941C62.5588 116.244 62.1229 116.459 61.6696 116.621C60.7573 116.935 59.781 116.982 58.8395 116.889C57.8923 116.796 56.9683 116.546 56.085 116.168C55.6433 115.976 55.2191 115.744 54.8065 115.459C54.3997 115.163 53.9987 114.831 53.6791 114.32L53.3711 113.826L53.8302 113.454C54.5973 112.826 55.498 112.379 56.4395 112.129C57.3809 111.879 58.3572 111.809 59.3044 111.92C60.2517 112.03 61.1815 112.315 62.0009 112.797C62.8087 113.28 63.5234 113.995 63.8082 114.866H63.7966Z" fill="#E73440"></path>
<path d="M67.5735 114.244C67.5968 113.652 67.3934 113.117 67.097 112.67C66.8006 112.216 66.3938 111.868 65.9464 111.606C65.4931 111.35 64.9991 111.182 64.4761 111.1C64.2146 111.06 63.9531 111.031 63.6858 111.025C63.4185 111.013 63.1453 111.025 62.878 111.042L63.3662 110.514C63.372 110.944 63.5347 111.414 63.7788 111.85C64.017 112.286 64.3425 112.693 64.7144 113.053C65.0863 113.408 65.5105 113.721 65.9929 113.936C66.4694 114.163 67.004 114.273 67.5794 114.25L67.5735 114.244ZM67.5735 114.244C67.0563 114.5 66.4287 114.535 65.836 114.425C65.2432 114.303 64.6795 114.047 64.1855 113.692C63.6916 113.338 63.2616 112.89 62.9187 112.367C62.5874 111.844 62.3317 111.228 62.3143 110.531L62.2969 110.031L62.7966 110.002C63.4126 109.967 64.0461 109.985 64.6679 110.13C65.2897 110.269 65.8941 110.531 66.4055 110.926C66.9169 111.316 67.3237 111.85 67.5503 112.437C67.7653 113.024 67.8234 113.692 67.5677 114.244H67.5735Z" fill="#E73440"></path>
<path d="M72.0831 113.826C72.025 113.39 71.81 113.018 71.5427 112.722C71.2754 112.42 70.9383 112.199 70.578 112.048C70.2177 111.897 69.8342 111.815 69.439 111.798C69.0496 111.775 68.6487 111.815 68.2535 111.891L68.5615 111.443C68.6196 111.763 68.7997 112.094 69.0264 112.391C69.253 112.687 69.5378 112.96 69.8516 113.187C70.1654 113.413 70.5083 113.611 70.886 113.727C71.2579 113.855 71.6647 113.896 72.0889 113.82L72.0831 113.826ZM72.0831 113.826C71.7228 114.064 71.2579 114.134 70.8105 114.105C70.363 114.064 69.9213 113.925 69.5262 113.704C69.1252 113.489 68.7649 113.204 68.4627 112.856C68.1605 112.507 67.9048 112.088 67.806 111.583L67.7305 111.205L68.114 111.135C68.5673 111.054 69.038 111.013 69.5087 111.071C69.9794 111.124 70.4502 111.263 70.8569 111.507C71.2696 111.751 71.6182 112.094 71.8507 112.501C72.0715 112.908 72.2052 113.39 72.0831 113.826Z" fill="#E73440"></path>
<path d="M76.4826 112.385C76.3838 111.99 76.1049 111.699 75.7911 111.519C75.4773 111.333 75.117 111.252 74.7567 111.228C74.3964 111.211 74.0303 111.257 73.6642 111.339C73.3039 111.426 72.9494 111.548 72.6007 111.699L72.7983 111.257C72.8854 111.513 73.1121 111.763 73.3852 111.955C73.6583 112.152 73.978 112.303 74.315 112.414C74.6521 112.518 75.0124 112.582 75.3785 112.582C75.7446 112.582 76.1107 112.518 76.4826 112.385ZM76.4826 112.385C76.1979 112.658 75.8201 112.832 75.4192 112.931C75.0182 113.024 74.5998 113.03 74.1872 112.96C73.7746 112.896 73.3736 112.751 73.0075 112.524C72.6472 112.298 72.2985 111.972 72.1242 111.501L72.0079 111.188L72.3159 111.054C72.6995 110.891 73.1063 110.758 73.5305 110.682C73.9547 110.612 74.3964 110.595 74.8264 110.682C75.2564 110.763 75.6749 110.949 76.0003 111.246C76.3141 111.542 76.5408 111.972 76.4768 112.385H76.4826Z" fill="#E73440"></path>
<path d="M68.1381 115.227C68.2486 115.517 68.266 115.843 68.2311 116.156C68.1963 116.476 68.1033 116.79 67.9696 117.086C67.7023 117.679 67.2548 118.202 66.7144 118.591C66.1739 118.981 65.5405 119.236 64.8954 119.364C64.2504 119.498 63.5879 119.504 62.9487 119.446L62.4082 119.399L62.4663 118.864C62.5419 118.15 62.8499 117.539 63.2218 117.016C63.6053 116.499 64.0702 116.058 64.5991 115.709C65.1221 115.366 65.7148 115.104 66.3308 115C66.9468 114.895 67.6035 114.948 68.1323 115.227H68.1381ZM68.1381 115.227C67.5454 115.18 66.9875 115.285 66.4819 115.505C65.9763 115.72 65.5173 116.028 65.1163 116.383C64.7095 116.743 64.355 117.15 64.0702 117.592C63.7913 118.033 63.5879 118.516 63.5414 118.963L63.0591 118.376C63.617 118.429 64.1807 118.44 64.7211 118.359C65.2616 118.289 65.7904 118.126 66.2669 117.876C66.7492 117.627 67.1793 117.266 67.5222 116.825C67.8592 116.377 68.1149 115.837 68.1381 115.227Z" fill="#E73440"></path>
<path d="M72.5949 114.541C72.8157 114.977 72.7808 115.523 72.6297 115.999C72.467 116.482 72.1706 116.929 71.7813 117.272C71.3977 117.627 70.927 117.876 70.4389 118.033C69.9507 118.196 69.4393 118.254 68.9337 118.266L68.5095 118.277V117.853C68.5095 117.29 68.6897 116.79 68.9337 116.354C69.1836 115.918 69.5091 115.535 69.8868 115.221C70.2645 114.901 70.7004 114.657 71.1711 114.518C71.6418 114.384 72.1532 114.366 72.5891 114.535L72.5949 114.541ZM72.5949 114.541C72.13 114.552 71.7057 114.686 71.3338 114.901C70.9561 115.11 70.6306 115.389 70.3459 115.703C70.067 116.017 69.8229 116.366 69.6427 116.732C69.4626 117.098 69.3463 117.487 69.3522 117.842L68.9279 117.429C69.3696 117.423 69.7996 117.383 70.218 117.272C70.6365 117.167 71.0258 116.999 71.3803 116.761C71.729 116.522 72.037 116.209 72.2578 115.831C72.4786 115.453 72.6297 115.011 72.6007 114.535L72.5949 114.541Z" fill="#E73440"></path>
<path d="M76.152 113.39C76.4483 113.675 76.553 114.134 76.5065 114.558C76.4542 114.988 76.2508 115.401 75.9602 115.726C75.6755 116.058 75.3093 116.307 74.9316 116.493C74.5481 116.679 74.1471 116.801 73.7403 116.889L73.4265 116.952L73.3277 116.65C73.1766 116.185 73.2289 115.726 73.3684 115.319C73.5078 114.919 73.7287 114.552 74.0076 114.25C74.2807 113.942 74.6236 113.704 74.9955 113.541C75.3675 113.39 75.7742 113.32 76.1578 113.379L76.152 113.39ZM76.152 113.39C75.78 113.489 75.443 113.64 75.1582 113.861C74.8735 114.07 74.6294 114.332 74.4318 114.611C74.2401 114.895 74.089 115.209 74.0076 115.529C73.9204 115.843 73.9088 116.168 73.996 116.429L73.5892 116.197C74.3156 116.046 75.0188 115.802 75.5592 115.343C75.8207 115.11 76.0474 114.826 76.1636 114.488C76.2856 114.151 76.3089 113.762 76.152 113.396V113.39Z" fill="#E73440"></path>
<path d="M69.3581 72.9958C69.9044 71.8684 69.9857 70.6538 69.8288 69.4974C69.6719 68.3409 69.2884 67.2252 68.7596 66.2082C68.2307 65.1854 67.545 64.2556 66.743 63.4652C65.9411 62.6807 65.0113 62.0415 64.0001 61.6173L65.1507 61.2453C64.9357 61.594 64.7904 62.117 64.7091 62.6517C64.6219 63.1921 64.5987 63.7616 64.6045 64.3311C64.6219 65.476 64.7962 66.644 65.1042 67.7656C65.4122 68.8872 65.8655 69.9739 66.5454 70.9153C66.8825 71.3861 67.2835 71.8161 67.7542 72.1764C68.2249 72.5367 68.7654 72.8156 69.3639 73.0016L69.3581 72.9958ZM69.3581 72.9958C68.0971 73.0423 66.807 72.4321 65.8597 71.5139C64.9008 70.6015 64.2093 69.4393 63.7212 68.2305C63.233 67.016 62.9424 65.7258 62.8495 64.4067C62.803 63.7442 62.8146 63.0759 62.8959 62.3902C62.9424 62.0473 63.0064 61.7044 63.111 61.3499C63.2156 61.0013 63.3492 60.641 63.5642 60.2807L63.9768 59.5891L64.7149 59.9087C65.3425 60.1761 65.9411 60.5131 66.4931 60.9083C67.0394 61.3034 67.5508 61.7509 68.0041 62.2507C68.9106 63.2386 69.6138 64.3892 70.0845 65.6154C70.5552 66.8416 70.8051 68.1608 70.7354 69.4683C70.6947 70.1192 70.5843 70.7701 70.3518 71.3802C70.2356 71.6824 70.102 71.9788 69.9392 72.2519C69.7707 72.5251 69.5789 72.7808 69.3581 73.0016V72.9958Z" fill="#E73440"></path>
<path d="M72.8508 77.2613C73.5539 76.8022 73.9956 76.1165 74.292 75.4133C74.5825 74.6985 74.7104 73.9431 74.6929 73.1992C74.6755 72.4554 74.5186 71.7231 74.2455 71.02C74.1118 70.6713 73.9549 70.3284 73.7689 69.9972C73.5946 69.6601 73.3854 69.3405 73.1704 69.0267L74.199 69.1952C73.6992 69.5671 73.275 70.1541 72.9437 70.7875C72.6125 71.4268 72.3742 72.1357 72.2173 72.8622C72.0662 73.5886 72.0081 74.344 72.0837 75.0937C72.1592 75.8434 72.3859 76.5872 72.8449 77.2613H72.8508ZM72.8508 77.2613C72.165 76.8138 71.6711 76.0584 71.3921 75.2506C71.1132 74.437 71.0318 73.5653 71.0899 72.7111C71.148 71.851 71.3514 71.0025 71.7001 70.2006C72.0546 69.3986 72.5544 68.6199 73.3389 68.0271L73.9433 67.5681L74.3733 68.1957C74.8673 68.9221 75.2915 69.7124 75.5588 70.5783C75.8261 71.4326 75.9424 72.3566 75.8436 73.2573C75.7448 74.1581 75.4368 75.0356 74.9254 75.762C74.6697 76.1223 74.3675 76.4535 74.0188 76.715C73.8445 76.8429 73.6585 76.9649 73.4668 77.0579C73.275 77.1451 73.0658 77.2264 72.8624 77.2613H72.8508Z" fill="#E73440"></path>
<path d="M75.9474 81.8639C76.4297 81.5036 76.7261 81.0038 76.9179 80.4866C77.1155 79.9694 77.1852 79.4173 77.1736 78.8827C77.1561 78.3422 77.0399 77.8134 76.8481 77.3136C76.6564 76.808 76.389 76.3315 76.0752 75.8782L76.8249 75.9828C76.4762 76.2734 76.1856 76.7092 75.9648 77.18C75.744 77.6507 75.5813 78.1679 75.4767 78.6967C75.3779 79.2255 75.3314 79.7718 75.3953 80.3064C75.4476 80.8469 75.6103 81.3815 75.9416 81.8697L75.9474 81.8639ZM75.9474 81.8639C75.4476 81.5384 75.1105 80.9922 74.9072 80.411C74.7154 79.8299 74.6456 79.2081 74.6805 78.5921C74.7154 77.9761 74.8432 77.3659 75.0757 76.7848C75.3081 76.2037 75.6394 75.6341 76.174 75.1809L76.6041 74.8148L76.9237 75.2797C77.2782 75.8027 77.5862 76.3722 77.7721 76.9882C77.9639 77.6042 78.0453 78.2609 77.9813 78.9059C77.9174 79.551 77.7082 80.1728 77.3711 80.7074C77.1968 80.9689 76.9934 81.2188 76.7552 81.4164C76.5169 81.614 76.2438 81.7825 75.9474 81.8581V81.8639Z" fill="#E73440"></path>
<path d="M78.6835 85.6819C79.1194 85.4262 79.3693 84.9962 79.5262 84.5603C79.6831 84.1245 79.7354 83.6538 79.7179 83.1947C79.6947 82.7356 79.6075 82.2823 79.4622 81.8406C79.3228 81.399 79.1252 80.9689 78.9044 80.5563L79.5203 80.7016C79.2298 80.9108 78.9799 81.2769 78.7998 81.6721C78.6138 82.0731 78.4859 82.5089 78.393 82.9564C78.3116 83.4039 78.2767 83.863 78.3116 84.3279C78.3407 84.7928 78.4511 85.2519 78.6777 85.6877L78.6835 85.6819ZM78.6835 85.6819C78.3058 85.3565 78.0617 84.8857 77.9106 84.3976C77.7653 83.9036 77.713 83.3864 77.7421 82.875C77.7653 82.3578 77.8758 81.8464 78.0617 81.3525C78.2593 80.8643 78.5324 80.3762 79.0322 80.0042L79.4216 79.7137L79.654 80.1437C79.9039 80.6086 80.1131 81.0968 80.241 81.614C80.3746 82.1312 80.4327 82.6716 80.3804 83.2121C80.3339 83.7467 80.177 84.2814 79.8981 84.7405C79.7528 84.9671 79.5901 85.1763 79.3809 85.3448C79.1775 85.5134 78.9392 85.647 78.6835 85.6819Z" fill="#E73440"></path>
<path d="M71.6932 78.5282C71.5595 78.6851 71.3794 78.8246 71.1992 78.9466C71.0133 79.0628 70.8157 79.1616 70.6123 79.243C70.1997 79.4057 69.758 79.4928 69.3105 79.5219C68.4098 79.5742 67.4916 79.3592 66.6722 78.9466C65.8528 78.534 65.1322 77.9238 64.5627 77.2148C63.9816 76.5117 63.5574 75.7097 63.2203 74.8903L62.9355 74.1988L63.6271 73.9256C64.5511 73.5653 65.4925 73.5421 66.37 73.6699C67.2475 73.8036 68.0844 74.0941 68.8456 74.5184C69.6011 74.9426 70.2927 75.4947 70.8215 76.1804C71.3445 76.8661 71.699 77.6972 71.6932 78.5282ZM71.6932 78.5282C71.3736 77.7669 70.8796 77.1625 70.2927 76.686C69.7057 76.2037 69.0432 75.8434 68.3459 75.576C67.6485 75.3087 66.9221 75.1344 66.2015 75.0704C65.4867 75.0123 64.7661 75.0705 64.185 75.3029L64.5918 74.344C64.7371 74.7043 64.894 75.0588 65.0799 75.3901C65.2543 75.7329 65.4576 76.0526 65.6785 76.3606C66.1143 76.9766 66.6432 77.517 67.2592 77.9412C67.8752 78.3655 68.5841 78.6676 69.3454 78.7955C70.1067 78.9175 70.9261 78.8943 71.6932 78.5282Z" fill="#E73440"></path>
<path d="M75.2971 82.4392C75.146 82.7181 74.9136 82.9506 74.6462 83.1423C74.3789 83.3283 74.0767 83.4678 73.7571 83.5724C73.1179 83.7641 72.4205 83.7758 71.758 83.6189C71.0955 83.4678 70.4737 83.154 69.9391 82.7414C69.3986 82.3346 68.9512 81.8348 68.5676 81.306L68.2422 80.8585L68.6955 80.5447C69.2998 80.1205 69.9681 79.9461 70.6248 79.8822C71.2815 79.8241 71.9324 79.888 72.5542 80.0565C73.1702 80.2251 73.7687 80.504 74.2685 80.905C74.7625 81.306 75.1634 81.8406 75.3087 82.4392H75.2971ZM75.2971 82.4392C74.9368 81.951 74.4777 81.5965 73.9663 81.3583C73.4607 81.1142 72.9203 80.9689 72.374 80.8992C71.8278 80.8294 71.2757 80.8294 70.7469 80.9108C70.2238 80.9922 69.7124 81.1607 69.3405 81.428L69.4684 80.6667C69.8054 81.1316 70.1715 81.5675 70.5958 81.9278C71.0142 82.2939 71.4907 82.5903 72.0079 82.7879C72.5251 82.9854 73.0888 83.0784 73.6583 83.0377C74.2278 82.9971 74.8148 82.8285 75.3029 82.4334L75.2971 82.4392Z" fill="#E73440"></path>
<path d="M78.0508 86.1061C77.8881 86.5942 77.429 86.9604 76.9292 87.1521C76.4178 87.3381 75.8483 87.3671 75.3195 87.2509C74.7848 87.1405 74.2851 86.9022 73.8434 86.6059C73.4017 86.3095 73.0124 85.9434 72.6637 85.554L72.3848 85.2402L72.687 84.9496C73.1286 84.5254 73.6691 84.3278 74.1921 84.2465C74.7209 84.1651 75.2497 84.1884 75.7495 84.3104C76.2551 84.4266 76.7316 84.6416 77.1384 84.9438C77.5452 85.2518 77.8823 85.647 78.0508 86.1061ZM78.0508 86.1061C77.7137 85.7574 77.3302 85.4901 76.9176 85.3158C76.505 85.1356 76.0691 85.0368 75.6333 84.9961C75.1974 84.9555 74.7558 84.9787 74.349 85.0717C73.9422 85.1647 73.5587 85.3332 73.3088 85.5773L73.332 84.9729C73.64 85.3216 73.9713 85.647 74.3316 85.9259C74.6919 86.2049 75.0812 86.4315 75.5054 86.5826C75.9238 86.7279 76.3771 86.8034 76.8246 86.7337C77.2721 86.6756 77.7254 86.4896 78.0566 86.1061H78.0508Z" fill="#E73440"></path>
<path d="M81.2181 89.1105C81.5668 88.8607 81.7412 88.4771 81.8342 88.0936C81.9329 87.71 81.9329 87.3148 81.8865 86.9313C81.8283 86.5478 81.7179 86.17 81.561 85.8097C81.4099 85.4494 81.2065 85.1066 80.9857 84.7753L81.5145 84.845C81.2879 85.0426 81.1077 85.3739 80.9857 85.7225C80.8637 86.0712 80.7881 86.449 80.7532 86.8325C80.7242 87.2161 80.73 87.6054 80.7997 87.989C80.8637 88.3725 80.9973 88.7502 81.2181 89.1047V89.1105ZM81.2181 89.1105C80.8753 88.8665 80.6312 88.4887 80.4627 88.0936C80.3 87.6926 80.2128 87.2625 80.1954 86.8267C80.1721 86.3909 80.2186 85.9492 80.3406 85.5192C80.4685 85.0891 80.6603 84.6591 81.0438 84.3046L81.346 84.0315L81.5726 84.3743C81.8167 84.7463 82.0375 85.1356 82.1886 85.5656C82.3397 85.9899 82.4385 86.4432 82.4385 86.8964C82.4385 87.3497 82.3572 87.8088 82.1596 88.2214C82.055 88.4248 81.9329 88.6166 81.776 88.7735C81.6191 88.9304 81.4274 89.064 81.2181 89.1105Z" fill="#E73440"></path>
<path d="M80.6668 89.3837C80.5448 89.8137 80.1554 90.1566 79.7138 90.3251C79.2663 90.4995 78.7666 90.5111 78.3016 90.4007C77.8309 90.2903 77.4067 90.0636 77.029 89.7963C76.6512 89.5232 76.3258 89.1977 76.0352 88.8491L75.8086 88.5817L76.0469 88.3319C76.4188 87.9483 76.8953 87.7623 77.3544 87.6868C77.8193 87.6113 78.2784 87.6403 78.7142 87.7565C79.1501 87.8669 79.5627 88.0762 79.9056 88.3493C80.2484 88.634 80.5216 88.9885 80.661 89.3895L80.6668 89.3837ZM80.6668 89.3837C80.3821 89.0757 80.0567 88.8316 79.7022 88.6631C79.3535 88.4888 78.9758 88.3958 78.6038 88.3493C78.2261 88.3086 77.8484 88.326 77.4997 88.4074C77.151 88.4888 76.8314 88.6457 76.6222 88.8607L76.6396 88.3435C76.9011 88.6573 77.1801 88.9479 77.4823 89.2036C77.7903 89.4534 78.1215 89.6685 78.476 89.8079C78.8363 89.9474 79.2256 90.0171 79.6092 89.9532C79.9985 89.9009 80.3879 89.7208 80.661 89.3779L80.6668 89.3837Z" fill="#E73440"></path>
<path d="M84.1695 91.9871C84.4716 91.7314 84.6053 91.3653 84.6692 91.0108C84.7332 90.6505 84.7041 90.2844 84.6344 89.9358C84.553 89.5871 84.431 89.2442 84.2566 88.9246C84.0881 88.605 83.8847 88.3028 83.6523 88.0122L84.1462 88.0413C83.9486 88.2389 83.8092 88.5585 83.722 88.8839C83.629 89.2152 83.5941 89.5696 83.5825 89.9241C83.5825 90.2786 83.6116 90.6389 83.7046 90.9876C83.7917 91.3363 83.937 91.6791 84.1695 91.9871ZM84.1695 91.9871C83.8382 91.7837 83.5825 91.4583 83.4024 91.1038C83.228 90.7435 83.1118 90.3542 83.0653 89.9532C83.013 89.5522 83.0363 89.1454 83.1118 88.7386C83.199 88.3376 83.3443 87.9192 83.6755 87.5706L83.937 87.2974L84.1695 87.5996C84.4193 87.925 84.6518 88.2737 84.8203 88.6515C84.9889 89.035 85.1109 89.4418 85.1458 89.8602C85.1806 90.2786 85.1341 90.7087 84.983 91.098C84.9017 91.2898 84.8029 91.4757 84.6634 91.6327C84.5298 91.7896 84.3612 91.9232 84.1695 91.9871Z" fill="#E73440"></path>
<path d="M88.2215 92.4637C88.3494 92.2254 88.3435 91.9581 88.2971 91.714C88.2506 91.4699 88.1401 91.2433 88.0065 91.0341C87.867 90.8307 87.7043 90.6389 87.5125 90.482C87.3266 90.3193 87.1174 90.174 86.8965 90.0462L87.222 89.9416C87.1464 90.1159 87.1348 90.3542 87.1638 90.5866C87.1871 90.8249 87.251 91.0573 87.3324 91.2898C87.5125 91.7431 87.774 92.1847 88.2215 92.4637ZM88.2215 92.4637C87.96 92.4172 87.7159 92.2719 87.5067 92.0917C87.3033 91.9058 87.1348 91.685 87.0069 91.4409C86.8733 91.1968 86.7861 90.9295 86.7338 90.6505C86.6873 90.3716 86.6815 90.0694 86.8035 89.7614L86.9023 89.5173L87.129 89.6568C87.3672 89.8021 87.6055 89.9706 87.8089 90.1682C88.0123 90.3716 88.1924 90.5982 88.3203 90.8598C88.4481 91.1213 88.5237 91.406 88.5237 91.6966C88.5237 91.9755 88.4423 92.2893 88.2273 92.4695L88.2215 92.4637Z" fill="#E73440"></path>
<path d="M80.3748 110.095C80.183 109.915 79.9331 109.851 79.6948 109.834C79.4508 109.816 79.2125 109.857 78.9859 109.932C78.5326 110.084 78.1258 110.368 77.7829 110.711L77.7655 110.38C77.9108 110.496 78.1316 110.572 78.3524 110.601C78.5791 110.641 78.8173 110.641 79.0498 110.624C79.5205 110.572 79.997 110.444 80.3748 110.095ZM80.3748 110.095C80.2644 110.328 80.0668 110.519 79.8401 110.665C79.6135 110.804 79.3636 110.909 79.1021 110.967C78.8406 111.031 78.5675 111.042 78.2943 111.019C78.0212 110.99 77.7423 110.92 77.4807 110.723L77.2773 110.572L77.4633 110.397C77.6609 110.211 77.8759 110.037 78.1142 109.898C78.3524 109.764 78.6139 109.648 78.8929 109.601C79.166 109.549 79.4566 109.549 79.7239 109.624C79.9854 109.7 80.2527 109.851 80.369 110.101L80.3748 110.095Z" fill="#E73440"></path>
<path d="M86.3205 97.3859C86.3844 97.0604 86.2856 96.7582 86.1403 96.4909C85.995 96.2236 85.7917 95.9969 85.565 95.8052C85.3326 95.6192 85.0769 95.4565 84.7979 95.3403C84.5248 95.2182 84.2342 95.1253 83.9378 95.0555L84.2749 94.8173C84.2517 95.0439 84.3214 95.3286 84.4318 95.5843C84.5422 95.8517 84.6991 96.0957 84.8793 96.334C85.0594 96.5665 85.2686 96.7815 85.5069 96.9674C85.7452 97.1534 86.0125 97.2987 86.3205 97.38V97.3859ZM86.3205 97.3859C86.0009 97.4265 85.6638 97.3452 85.3674 97.2057C85.0652 97.0604 84.7921 96.8628 84.5597 96.6304C84.3156 96.3979 84.1238 96.119 83.9611 95.8168C83.81 95.5088 83.6938 95.1659 83.7286 94.765L83.7577 94.4511L84.0657 94.5267C84.3969 94.608 84.7224 94.7185 85.0304 94.8812C85.3326 95.0439 85.6289 95.2473 85.8614 95.503C86.0996 95.7587 86.2914 96.0609 86.3902 96.3979C86.4832 96.7234 86.5064 97.1069 86.3205 97.3917V97.3859Z" fill="#E73440"></path>
<path d="M84.5838 102.372C84.3223 102.122 83.9736 102.035 83.6423 102.012C83.3053 101.988 82.974 102.052 82.6602 102.151C82.3464 102.262 82.05 102.407 81.7711 102.599C81.4921 102.785 81.2365 103 80.9982 103.244L80.9749 102.79C81.1725 102.953 81.4805 103.052 81.7885 103.093C82.1023 103.145 82.4278 103.145 82.7532 103.116C83.0786 103.081 83.4041 103.017 83.7179 102.901C84.0317 102.79 84.3281 102.616 84.5838 102.378V102.372ZM84.5838 102.372C84.4327 102.697 84.1595 102.959 83.8515 103.162C83.5377 103.36 83.1949 103.499 82.8346 103.581C82.4743 103.668 82.0965 103.691 81.7188 103.662C81.341 103.621 80.9517 103.528 80.5914 103.261L80.3066 103.052L80.5623 102.808C80.8355 102.546 81.1318 102.302 81.4631 102.11C81.7943 101.919 82.1546 101.768 82.5382 101.698C82.9159 101.622 83.3169 101.622 83.6888 101.727C84.0491 101.831 84.421 102.035 84.5838 102.378V102.372Z" fill="#E73440"></path>
<path d="M83.6754 92.2777C83.5941 92.6845 83.257 93.0274 82.8677 93.2133C82.4725 93.4051 82.0076 93.4516 81.5717 93.376C81.1301 93.3121 80.7233 93.132 80.3572 92.9111C79.9911 92.6845 79.6656 92.4055 79.3751 92.1034L79.1484 91.8709L79.3518 91.6268C79.6656 91.2491 80.0899 91.0399 80.5083 90.9411C80.9267 90.8423 81.3567 90.8307 81.7693 90.912C82.1819 90.9818 82.5713 91.1445 82.9084 91.3711C83.2396 91.6094 83.5244 91.9174 83.6754 92.2777ZM83.6754 92.2777C83.3907 92.0104 83.0769 91.807 82.7398 91.6849C82.4086 91.5513 82.0541 91.4874 81.7054 91.4757C81.3567 91.4699 81.0081 91.5048 80.6942 91.6094C80.3804 91.7082 80.0957 91.8709 79.9213 92.0859L79.8981 91.6094C80.4211 92.1498 81.0139 92.6206 81.6938 92.8356C82.0308 92.9344 82.397 92.9751 82.7514 92.8879C83.1059 92.8123 83.4488 92.6206 83.6813 92.2835L83.6754 92.2777Z" fill="#E73440"></path>
<path d="M126.611 51C126.826 50.756 126.93 50.4654 126.971 50.1806C127.012 49.8959 126.983 49.6053 126.901 49.3438C126.82 49.0765 126.692 48.8266 126.529 48.6C126.367 48.3733 126.163 48.1641 125.948 47.9724L126.442 47.9375C126.297 48.1002 126.187 48.3443 126.117 48.6C126.047 48.8557 126.018 49.1346 126.018 49.4136C126.03 49.9656 126.158 50.5468 126.605 50.9942L126.611 51ZM126.611 51C126.303 50.9129 126.035 50.6804 125.844 50.4073C125.658 50.1283 125.53 49.8087 125.472 49.4775C125.408 49.1462 125.408 48.8034 125.472 48.4605C125.536 48.1234 125.664 47.7748 125.919 47.4726L126.152 47.2053L126.419 47.4435C126.675 47.6702 126.913 47.9317 127.093 48.2339C127.279 48.536 127.407 48.8789 127.448 49.2334C127.494 49.5879 127.442 49.954 127.302 50.2736C127.157 50.5874 126.925 50.878 126.617 50.9942L126.611 51Z" fill="#E73440"></path>
<path d="M121.333 52.0809C121.199 52.0751 121.071 52.0984 120.943 52.1332C120.816 52.1623 120.699 52.2088 120.577 52.2553C120.339 52.3541 120.112 52.4703 119.892 52.6039C119.45 52.8596 119.055 53.1734 118.7 53.5163C118.352 53.8592 118.055 54.2485 117.852 54.6611C117.648 55.0737 117.55 55.5212 117.555 55.9687L117.079 55.5096C117.538 55.5038 118.026 55.405 118.485 55.2539C118.944 55.1028 119.386 54.882 119.775 54.5972C120.165 54.3125 120.513 53.958 120.763 53.5279C120.897 53.3187 121.007 53.0863 121.1 52.8422C121.141 52.7202 121.187 52.5981 121.222 52.4703C121.263 52.3366 121.292 52.2378 121.327 52.0809H121.333ZM121.333 52.0809C121.414 52.6156 121.368 53.1793 121.187 53.7197C121.002 54.2544 120.682 54.7599 120.258 55.1609C119.839 55.5619 119.334 55.8699 118.799 56.0849C118.259 56.2999 117.701 56.4336 117.096 56.4452L116.626 56.4568V55.9861C116.614 55.3759 116.771 54.7599 117.073 54.2427C117.369 53.7255 117.776 53.2955 118.23 52.9526C118.683 52.6098 119.188 52.3599 119.711 52.1797C119.979 52.0984 120.246 52.0286 120.519 51.9996C120.792 51.9763 121.083 51.9647 121.333 52.0751V52.0809Z" fill="#E73440"></path>
<path d="M124.361 51.8891C124.198 51.8891 124.041 51.9472 123.896 52.0112C123.751 52.0751 123.611 52.1506 123.478 52.2436C123.21 52.4121 122.972 52.6213 122.757 52.8422C122.548 53.0688 122.373 53.3187 122.257 53.5918C122.141 53.8592 122.089 54.1497 122.118 54.4345L121.868 54.2195C122.158 54.202 122.461 54.1149 122.745 53.9986C123.03 53.8882 123.292 53.7255 123.524 53.5279C123.756 53.3303 123.954 53.0863 124.088 52.8073C124.233 52.5284 124.309 52.2146 124.355 51.8833L124.361 51.8891ZM124.361 51.8891C124.419 52.2146 124.402 52.5632 124.309 52.8945C124.21 53.2257 124.03 53.5395 123.786 53.7952C123.547 54.0567 123.245 54.2543 122.931 54.4054C122.612 54.5507 122.275 54.6495 121.909 54.6844L121.67 54.7076L121.653 54.4693C121.63 54.1032 121.699 53.7313 121.856 53.4059C122.019 53.0863 122.24 52.8015 122.501 52.5749C122.763 52.3482 123.053 52.1681 123.367 52.0344C123.524 51.9705 123.687 51.9182 123.849 51.8833C124.012 51.8543 124.192 51.8368 124.349 51.8833L124.361 51.8891Z" fill="#E73440"></path>
<path d="M84.8555 92.731C84.8555 92.731 88.9176 96.427 96.3909 95.3112C95.1705 96.2352 95.1473 96.4212 95.1473 96.4212C95.1473 96.4212 87.7727 96.6827 84.8555 92.731Z" fill="#E73440"></path>
<path d="M61.1177 85.8853C61.3559 84.6359 61.1061 83.4213 60.647 82.3346C60.1879 81.2421 59.5138 80.2541 58.7234 79.3941C57.9331 78.534 57.0149 77.8018 56.0154 77.2439C55.0216 76.686 53.9407 76.3083 52.8308 76.163L53.8594 75.4889C53.7431 75.884 53.7373 76.4419 53.8012 76.9824C53.8594 77.5345 53.9872 78.0982 54.1441 78.656C54.4695 79.7718 54.9461 80.8701 55.5446 81.8871C56.149 82.9041 56.8812 83.8455 57.7936 84.5894C58.2527 84.9613 58.7583 85.2751 59.3104 85.5018C59.8682 85.7284 60.4726 85.8562 61.1119 85.8795L61.1177 85.8853ZM61.1177 85.8853C59.8915 86.263 58.4677 86.0131 57.2938 85.3681C56.1083 84.7288 55.1262 83.7758 54.3243 82.7181C53.5223 81.6547 52.8947 80.4692 52.4472 79.2023C52.2264 78.5689 52.0579 77.9064 51.9591 77.2148C51.9126 76.8662 51.8835 76.5117 51.8951 76.1397C51.901 75.7678 51.9416 75.3843 52.052 74.9717L52.2729 74.1813L53.0806 74.2976C53.7664 74.3964 54.4463 74.5649 55.0914 74.8031C55.7364 75.0472 56.3524 75.3494 56.9277 75.7155C58.0784 76.4419 59.0779 77.3834 59.8682 78.4585C60.6528 79.5394 61.2513 80.7597 61.5303 82.0615C61.6697 82.7123 61.7279 83.3806 61.6639 84.0373C61.6349 84.3627 61.5768 84.6882 61.4896 85.002C61.3966 85.31 61.2804 85.6122 61.1177 85.8911V85.8853Z" fill="#E73440"></path>
<path d="M65.6731 89.1282C66.2368 88.489 66.4866 87.6986 66.5912 86.9316C66.69 86.1528 66.6087 85.3799 66.3937 84.6535C66.1786 83.9271 65.8241 83.253 65.3767 82.637C65.1558 82.329 64.906 82.0384 64.6386 81.7595C64.3771 81.4747 64.0866 81.219 63.7902 80.9692L64.842 80.8587C64.4527 81.3585 64.1912 82.0442 64.0401 82.7532C63.889 83.468 63.8425 84.2235 63.8832 84.979C63.9297 85.7344 64.0691 86.4841 64.3481 87.1989C64.6212 87.9137 65.0396 88.582 65.6731 89.1224V89.1282ZM65.6731 89.1282C64.8769 88.8725 64.197 88.2623 63.7088 87.5475C63.2207 86.8269 62.9069 85.9959 62.7325 85.1417C62.564 84.2874 62.5349 83.3983 62.657 82.515C62.7906 81.6375 63.0754 80.7367 63.6798 79.9464L64.1447 79.3362L64.7316 79.836C65.4115 80.4171 66.0392 81.0796 66.5273 81.8525C67.0213 82.6196 67.3758 83.4913 67.521 84.4036C67.6663 85.3102 67.5966 86.2516 67.2886 87.1059C67.1317 87.5301 66.9225 87.9311 66.6552 88.2856C66.5157 88.4599 66.3704 88.6226 66.2077 88.7679C66.045 88.9074 65.859 89.0411 65.6731 89.1282Z" fill="#E73440"></path>
<path d="M69.9384 92.8124C70.3161 92.33 70.473 91.7605 70.5253 91.2026C70.5835 90.6389 70.5021 90.081 70.3452 89.558C70.1883 89.035 69.9326 88.5469 69.6072 88.1052C69.2875 87.6635 68.8982 87.2626 68.4681 86.9081L69.2294 86.8093C68.9679 87.187 68.7994 87.6926 68.7064 88.2098C68.6134 88.7328 68.596 89.2791 68.6367 89.8254C68.6832 90.3716 68.782 90.9179 68.9853 91.4293C69.1829 91.9465 69.4851 92.4288 69.9384 92.8124ZM69.9384 92.8124C69.3631 92.6264 68.8866 92.1789 68.5321 91.6675C68.1892 91.1445 67.9509 90.5576 67.8231 89.9474C67.6894 89.3372 67.6546 88.7038 67.7243 88.0703C67.7998 87.4369 67.9742 86.7918 68.3752 86.2049L68.7006 85.7342L69.1364 86.1061C69.6246 86.5187 70.0721 87.0011 70.4266 87.5531C70.7752 88.1052 71.0367 88.727 71.1413 89.3779C71.2518 90.0229 71.2111 90.6912 71.0193 91.3072C70.9147 91.6152 70.7869 91.9058 70.6067 92.1673C70.4266 92.4288 70.2057 92.6613 69.9326 92.8124H69.9384Z" fill="#E73440"></path>
<path d="M74.0229 95.3344C74.3541 94.9393 74.4413 94.4395 74.4355 93.9688C74.4355 93.4922 74.3134 93.0331 74.1449 92.5973C73.9648 92.1673 73.7265 91.7605 73.4359 91.3885C73.1512 91.0166 72.8141 90.6738 72.4538 90.36L73.0931 90.2786C72.8897 90.575 72.7793 91.0166 72.7444 91.4583C72.7037 91.9058 72.7328 92.3648 72.8083 92.8239C72.8897 93.2772 73.0059 93.7305 73.2035 94.1605C73.3953 94.5906 73.6626 94.9916 74.0229 95.3344ZM74.0229 95.3344C73.5522 95.1543 73.1512 94.794 72.8374 94.3814C72.5294 93.963 72.2969 93.4864 72.1458 92.9867C71.9889 92.4869 71.9134 91.9581 71.925 91.4234C71.9424 90.8888 72.0354 90.3251 72.3841 89.7963L72.6514 89.3895L73.0233 89.7207C73.4185 90.0752 73.7904 90.4704 74.0984 90.9178C74.4064 91.3653 74.6505 91.8651 74.79 92.3939C74.9294 92.9227 74.9643 93.4806 74.8597 94.0211C74.8016 94.2884 74.7144 94.5499 74.5749 94.7824C74.4413 95.0148 74.2553 95.224 74.0287 95.3461L74.0229 95.3344Z" fill="#E73440"></path>
<path d="M64.8765 90.6854C64.7835 90.8714 64.644 91.0573 64.5045 91.2258C64.3534 91.3886 64.1849 91.5338 64.0106 91.6733C63.6503 91.9406 63.2377 92.1382 62.8076 92.2951C61.9418 92.5857 60.9829 92.6206 60.0647 92.4346C59.1465 92.2486 58.2864 91.8418 57.5368 91.3014C56.7813 90.7668 56.1479 90.0985 55.6016 89.3837L55.1367 88.7851L55.7411 88.3318C56.5489 87.7274 57.4671 87.4601 58.362 87.3497C59.2569 87.2451 60.1577 87.309 61.0119 87.5182C61.8662 87.7274 62.6914 88.0877 63.3946 88.6224C64.0861 89.157 64.6614 89.8776 64.8765 90.6912V90.6854ZM64.8765 90.6854C64.3593 90.0287 63.7142 89.558 63.011 89.25C62.3079 88.9362 61.5582 88.756 60.8086 88.6805C60.0531 88.605 59.2976 88.6282 58.577 88.7619C57.8622 88.8955 57.1707 89.1396 56.6651 89.5231L56.8104 88.4713C57.0486 88.7851 57.2927 89.0931 57.5658 89.372C57.8274 89.6568 58.1121 89.9241 58.4085 90.1624C59.0012 90.6505 59.6637 91.0399 60.3785 91.2898C61.0933 91.5397 61.872 91.6501 62.6507 91.5745C63.4294 91.4932 64.2256 91.2433 64.8823 90.6854H64.8765Z" fill="#E73440"></path>
<path d="M69.4511 93.5504C69.4162 93.7015 69.3523 93.8584 69.2767 94.0037C69.1954 94.1489 69.1024 94.2826 68.9978 94.4105C68.7886 94.6662 68.5212 94.8812 68.2423 95.0671C67.667 95.4274 66.9871 95.6192 66.2955 95.6483C65.604 95.6773 64.9124 95.532 64.279 95.2763C63.6397 95.0265 63.0702 94.6545 62.553 94.2361L62.1172 93.8874L62.4717 93.4574C62.9482 92.8821 63.5584 92.5276 64.186 92.2951C64.8136 92.0627 65.4703 91.9523 66.1212 91.9523C66.772 91.9523 67.4287 92.0685 68.0273 92.33C68.62 92.5915 69.1547 93.0099 69.4569 93.5562L69.4511 93.5504ZM69.4511 93.5504C68.9629 93.1668 68.4225 92.9402 67.8588 92.8472C67.3009 92.7426 66.7314 92.7484 66.1735 92.824C65.6214 92.8995 65.0751 93.0506 64.5812 93.2714C64.0872 93.4923 63.6339 93.7886 63.3376 94.1548L63.2562 93.376C63.7095 93.7422 64.186 94.0676 64.7032 94.3117C65.2146 94.5615 65.7551 94.7243 66.3188 94.7766C66.8766 94.8347 67.452 94.7766 68.004 94.5848C68.5503 94.393 69.0791 94.0734 69.4511 93.5562V93.5504Z" fill="#E73440"></path>
<path d="M73.5641 95.9563C73.5815 96.4793 73.2677 96.9907 72.8551 97.3452C72.4367 97.6996 71.902 97.9263 71.35 98.0018C70.7979 98.0832 70.24 98.0309 69.717 97.903C69.1882 97.7752 68.6942 97.5602 68.2293 97.3103L67.8516 97.1069L68.0375 96.7234C68.3107 96.1655 68.7581 95.7877 69.2288 95.5262C69.7054 95.2647 70.2168 95.1078 70.7398 95.0439C71.2628 94.98 71.7916 95.0206 72.2856 95.1659C72.7795 95.317 73.2386 95.5785 73.5641 95.9563ZM73.5641 95.9563C73.1224 95.7412 72.6633 95.6192 72.2042 95.596C71.7509 95.5669 71.2977 95.625 70.8676 95.7354C70.4376 95.8517 70.025 96.026 69.6647 96.2584C69.3044 96.4851 69.0022 96.7873 68.8511 97.1069L68.6593 96.52C69.0719 96.7466 69.502 96.9442 69.9436 97.0837C70.3853 97.2231 70.8386 97.3045 71.2919 97.2987C71.7393 97.2929 72.1984 97.2057 72.6052 96.9849C73.012 96.7757 73.3781 96.4386 73.5641 95.9563Z" fill="#E73440"></path>
<path d="M77.8992 97.2871C78.1084 96.9035 78.1026 96.4793 78.0213 96.0899C77.9457 95.6948 77.7714 95.3287 77.5622 94.9974C77.3413 94.672 77.074 94.3698 76.7776 94.1141C76.4813 93.8526 76.1442 93.6201 75.7955 93.4167L76.3127 93.2482C76.1907 93.5272 76.1733 93.9107 76.2139 94.2826C76.2546 94.6604 76.3534 95.0381 76.4813 95.4042C76.6207 95.7703 76.7951 96.1248 77.0275 96.4502C77.2542 96.7757 77.5389 97.0662 77.8992 97.2929V97.2871ZM77.8992 97.2871C77.4808 97.2115 77.0856 96.9791 76.7602 96.6885C76.4348 96.3921 76.1675 96.0318 75.9583 95.6425C75.7432 95.2531 75.598 94.8289 75.5224 94.3814C75.4527 93.9339 75.4352 93.4516 75.6386 92.9576L75.7955 92.5741L76.1558 92.7891C76.5452 93.0216 76.9171 93.2889 77.2425 93.6143C77.568 93.9339 77.8527 94.3117 78.0503 94.7243C78.2537 95.1369 78.3758 95.6018 78.3699 96.0609C78.3641 96.2933 78.3351 96.52 78.2595 96.735C78.184 96.95 78.0678 97.1534 77.8934 97.2929L77.8992 97.2871Z" fill="#E73440"></path>
<path d="M77.511 97.781C77.5866 98.2285 77.3774 98.7108 77.0519 99.0595C76.7207 99.414 76.2616 99.6464 75.7851 99.7452C75.3085 99.8498 74.8204 99.8266 74.3555 99.7452C73.8906 99.6581 73.4489 99.5012 73.0305 99.3094L72.7051 99.1641L72.8155 98.8329C72.9898 98.3215 73.3443 97.9379 73.7279 97.6706C74.1172 97.4033 74.5589 97.2231 75.0064 97.136C75.4538 97.0488 75.9187 97.0546 76.3604 97.1592C76.7962 97.2696 77.2088 97.4788 77.5052 97.7868L77.511 97.781ZM77.511 97.781C77.11 97.6241 76.7091 97.5369 76.3139 97.5428C75.9187 97.5428 75.5294 97.6125 75.1691 97.7403C74.8088 97.8682 74.4659 98.0483 74.1811 98.275C73.8964 98.5016 73.6698 98.7864 73.5768 99.0711L73.3676 98.5888C73.7453 98.7631 74.1288 98.9084 74.5182 99.0072C74.9076 99.106 75.3085 99.1583 75.6979 99.1292C76.0873 99.1002 76.4766 98.9956 76.802 98.7689C77.1333 98.5539 77.4122 98.2169 77.5168 97.781H77.511Z" fill="#E73440"></path>
<path d="M61.3842 102.546C61.2215 101.407 60.6171 100.46 59.8849 99.6813C59.1469 98.9026 58.2577 98.2808 57.3163 97.8043C56.3691 97.3277 55.3579 96.9907 54.3351 96.8221C53.3123 96.6536 52.2721 96.6536 51.2726 96.8454L51.9583 95.9679C51.9757 96.3282 52.1442 96.7989 52.3651 97.2406C52.5859 97.688 52.8707 98.1239 53.1845 98.5481C53.8121 99.3907 54.5676 100.164 55.3986 100.838C56.2296 101.506 57.1536 102.076 58.1589 102.424C58.6645 102.599 59.1934 102.709 59.7338 102.738C60.2743 102.767 60.8321 102.697 61.3842 102.54V102.546ZM61.3842 102.546C60.437 103.215 59.1585 103.418 57.9672 103.238C56.7642 103.063 55.6368 102.57 54.6199 101.93C53.6029 101.285 52.6963 100.483 51.9176 99.5476C51.5282 99.0769 51.1796 98.5714 50.8774 98.0135C50.7321 97.7345 50.5926 97.4381 50.488 97.1185C50.3776 96.7989 50.2904 96.456 50.2672 96.0667L50.2207 95.3228L50.9529 95.1834C51.5689 95.0671 52.1907 95.0148 52.8125 95.0265C53.4344 95.0439 54.0445 95.1136 54.6431 95.2473C55.8402 95.5088 56.9734 95.9911 57.9846 96.6536C58.99 97.3161 59.8907 98.1587 60.5416 99.1699C60.8612 99.6755 61.1285 100.222 61.2854 100.797C61.361 101.088 61.4133 101.378 61.4365 101.669C61.4481 101.965 61.4365 102.256 61.39 102.535L61.3842 102.546Z" fill="#E73440"></path>
<path d="M66.3117 103.941C66.6139 103.244 66.6081 102.5 66.457 101.82C66.3001 101.14 65.9979 100.518 65.5911 99.9777C65.1785 99.4431 64.6729 98.984 64.1034 98.612C63.8187 98.4261 63.5223 98.2517 63.2085 98.1065C62.9005 97.9496 62.575 97.8217 62.2496 97.6997L63.1039 97.3045C62.9179 97.8275 62.8947 98.4784 62.9818 99.1176C63.069 99.7627 63.2608 100.408 63.5281 101.024C63.8012 101.64 64.1557 102.221 64.609 102.732C65.0565 103.249 65.626 103.668 66.3175 103.941H66.3117ZM66.3117 103.941C65.5679 103.964 64.8124 103.668 64.1731 103.226C63.5339 102.779 63.0109 102.18 62.5983 101.518C62.1857 100.855 61.8893 100.117 61.7324 99.3326C61.5813 98.5481 61.5522 97.6997 61.8486 96.8512L62.0695 96.212L62.7029 96.4502C63.4467 96.735 64.179 97.0895 64.8298 97.5893C65.4807 98.0774 66.056 98.6934 66.4628 99.414C66.8696 100.129 67.1079 100.948 67.102 101.756C67.0962 102.163 67.0381 102.564 66.9103 102.941C66.8405 103.127 66.765 103.313 66.6662 103.482C66.5616 103.645 66.4454 103.813 66.3117 103.941Z" fill="#E73440"></path>
<path d="M71.3572 105.092C71.5083 104.569 71.4385 104.04 71.2758 103.563C71.1189 103.087 70.8516 102.657 70.5261 102.291C70.2007 101.924 69.8114 101.622 69.3871 101.378C68.9629 101.134 68.498 100.948 68.0157 100.803L68.6084 100.454C68.5212 100.849 68.5619 101.32 68.6723 101.779C68.7828 102.238 68.9687 102.692 69.2012 103.122C69.4394 103.546 69.7184 103.958 70.0729 104.295C70.4215 104.644 70.8458 104.923 71.3572 105.086V105.092ZM71.3572 105.092C70.8225 105.144 70.2646 104.952 69.7939 104.667C69.3232 104.371 68.9106 103.976 68.5794 103.528C68.2481 103.075 67.9866 102.575 67.8123 102.023C67.6437 101.477 67.5566 100.878 67.6902 100.251L67.7948 99.7568L68.283 99.9079C68.8292 100.076 69.3697 100.303 69.8578 100.629C70.346 100.948 70.7877 101.361 71.1131 101.849C71.4443 102.337 71.6593 102.901 71.7233 103.476C71.7523 103.767 71.7465 104.057 71.6884 104.336C71.6303 104.615 71.5257 104.888 71.3514 105.103L71.3572 105.092Z" fill="#E73440"></path>
<path d="M75.6916 105.324C75.8137 104.877 75.6916 104.441 75.4999 104.063C75.3081 103.685 75.0292 103.36 74.7153 103.081C74.0761 102.535 73.2858 102.18 72.4547 101.948L72.9429 101.64C72.8906 101.954 72.972 102.349 73.1172 102.715C73.2625 103.087 73.4717 103.447 73.71 103.784C73.9541 104.115 74.2388 104.429 74.5643 104.691C74.8897 104.958 75.2616 105.173 75.6916 105.312V105.324ZM75.6916 105.324C75.2384 105.359 74.7793 105.225 74.3609 105.022C73.9483 104.807 73.5647 104.522 73.2451 104.179C72.9197 103.842 72.6465 103.447 72.4431 103.011C72.2455 102.575 72.0944 102.081 72.1816 101.512L72.2455 101.082L72.6698 101.204C73.1289 101.338 73.5821 101.506 74.0064 101.75C74.4248 101.988 74.8258 102.285 75.1512 102.657C75.4766 103.023 75.7323 103.459 75.866 103.929C75.9241 104.168 75.959 104.412 75.9357 104.656C75.9183 104.894 75.8486 105.138 75.7033 105.324H75.6916Z" fill="#E73440"></path>
<path d="M66.0856 105.464C66.0623 105.655 65.9926 105.853 65.917 106.033C65.8357 106.219 65.7253 106.388 65.609 106.556C65.3708 106.887 65.0686 107.172 64.7373 107.422C64.0632 107.91 63.2496 108.206 62.4128 108.311C61.576 108.416 60.7159 108.329 59.9139 108.096C59.1062 107.869 58.3565 107.497 57.665 107.062L57.0664 106.684L57.4732 106.109C58.0078 105.359 58.7284 104.877 59.4665 104.528C60.2103 104.191 61.0007 103.987 61.7968 103.918C62.593 103.854 63.4065 103.918 64.1678 104.156C64.9233 104.406 65.6381 104.83 66.0797 105.458L66.0856 105.464ZM66.0856 105.464C65.4405 105.063 64.7431 104.865 64.04 104.813C63.3368 104.755 62.6394 104.824 61.9595 104.975C61.2854 105.132 60.6287 105.365 60.0418 105.684C59.4549 105.998 58.9202 106.411 58.5948 106.881L58.403 105.928C58.7052 106.12 59.0132 106.306 59.3328 106.463C59.6466 106.626 59.9721 106.765 60.3033 106.881C60.96 107.12 61.6515 107.253 62.3489 107.259C63.0462 107.265 63.7494 107.137 64.4061 106.858C65.0628 106.573 65.6846 106.138 66.0914 105.469L66.0856 105.464Z" fill="#E73440"></path>
<path d="M71.2053 105.865C71.2518 106.149 71.2053 106.457 71.1181 106.742C71.0251 107.027 70.874 107.3 70.6939 107.544C70.322 108.032 69.8106 108.422 69.2411 108.671C68.6716 108.921 68.0439 109.038 67.4279 109.043C66.8119 109.055 66.2018 108.95 65.6206 108.793L65.1208 108.66L65.2778 108.172C65.487 107.521 65.8879 107.021 66.3354 106.614C66.7887 106.213 67.3059 105.899 67.8522 105.684C68.3984 105.464 68.9912 105.347 69.5781 105.359C70.1651 105.376 70.7578 105.527 71.2053 105.876V105.865ZM71.2053 105.865C70.6648 105.725 70.1302 105.731 69.6188 105.841C69.1132 105.94 68.6309 106.143 68.1892 106.393C67.7476 106.643 67.335 106.951 66.9863 107.3C66.6434 107.649 66.3587 108.05 66.2366 108.456L65.8938 107.829C66.4051 107.968 66.9224 108.073 67.4396 108.096C67.9568 108.125 68.474 108.073 68.9679 107.933C69.4619 107.794 69.9326 107.561 70.3336 107.213C70.7346 106.87 71.0774 106.428 71.2053 105.865Z" fill="#E73440"></path>
<path d="M75.558 105.992C75.7788 106.411 75.7033 106.957 75.4882 107.399C75.2674 107.846 74.8955 108.218 74.4713 108.48C74.047 108.753 73.5705 108.91 73.094 108.997C72.6117 109.084 72.1293 109.101 71.6528 109.078L71.2634 109.055V108.671C71.2809 108.102 71.5191 107.625 71.8155 107.236C72.1119 106.847 72.4838 106.533 72.8906 106.295C73.2974 106.051 73.7507 105.894 74.2098 105.83C74.6689 105.772 75.1454 105.812 75.558 105.992ZM75.558 105.992C75.1105 105.992 74.6921 106.062 74.3027 106.213C73.9134 106.359 73.5589 106.568 73.2451 106.818C72.9313 107.073 72.6523 107.364 72.4373 107.683C72.2223 108.003 72.0828 108.358 72.077 108.671L71.6993 108.265C72.5535 108.317 73.4136 108.253 74.1691 107.922C74.541 107.753 74.8897 107.515 75.1454 107.19C75.4069 106.87 75.587 106.457 75.5522 105.992H75.558Z" fill="#E73440"></path>
<path d="M79.6775 105.434C79.7066 105.039 79.5264 104.696 79.3056 104.417C79.0848 104.133 78.7942 103.906 78.492 103.726C78.1782 103.552 77.847 103.412 77.4983 103.319C77.1496 103.226 76.7893 103.168 76.4232 103.133L76.7777 102.796C76.7835 103.063 76.923 103.383 77.1031 103.668C77.2833 103.958 77.5215 104.22 77.7714 104.464C78.0329 104.702 78.3177 104.917 78.6373 105.086C78.9511 105.26 79.2998 105.382 79.6775 105.429V105.434ZM79.6775 105.434C79.3056 105.533 78.8988 105.493 78.5211 105.388C78.1433 105.278 77.7772 105.097 77.4576 104.865C77.1263 104.638 76.8416 104.348 76.5975 104.022C76.3593 103.691 76.1501 103.308 76.1268 102.819L76.1094 102.447L76.4871 102.482C76.8939 102.523 77.2949 102.593 77.6842 102.726C78.0736 102.866 78.4513 103.04 78.7826 103.302C79.1138 103.552 79.3986 103.871 79.5845 104.243C79.6717 104.429 79.7414 104.627 79.7647 104.836C79.7879 105.039 79.7705 105.254 79.6833 105.429L79.6775 105.434Z" fill="#E73440"></path>
<path d="M79.5497 105.969C79.788 106.306 79.7996 106.783 79.6485 107.19C79.4974 107.602 79.1953 107.957 78.8408 108.206C78.4863 108.468 78.0795 108.625 77.6669 108.73C77.2543 108.828 76.8359 108.869 76.4175 108.875H76.0978L76.063 108.567C76.0049 108.073 76.1618 107.625 76.3826 107.265C76.6092 106.899 76.9056 106.597 77.2485 106.364C77.5855 106.126 77.9749 105.969 78.3701 105.894C78.771 105.824 79.1778 105.841 79.5439 105.975L79.5497 105.969ZM79.5497 105.969C79.1662 105.992 78.8059 106.074 78.4747 106.225C78.1434 106.364 77.8528 106.568 77.5971 106.8C77.3473 107.038 77.1264 107.306 76.9753 107.596C76.8184 107.887 76.7371 108.201 76.7719 108.462L76.4175 108.154C76.7952 108.154 77.1613 108.125 77.5216 108.067C77.8819 108.003 78.2306 107.898 78.5444 107.736C78.8524 107.567 79.143 107.346 79.3347 107.038C79.5323 106.742 79.6369 106.359 79.5497 105.969Z" fill="#E73440"></path>
<path d="M81.8627 98.6353C82.0312 98.2692 81.9905 97.874 81.8917 97.5195C81.7929 97.165 81.607 96.8396 81.392 96.549C81.1653 96.2643 80.9038 96.0028 80.6074 95.7878C80.3111 95.5669 79.9914 95.381 79.6544 95.2124L80.1193 95.0207C80.0263 95.288 80.0379 95.6425 80.096 95.9795C80.1541 96.3224 80.2762 96.6653 80.4215 96.9965C80.5784 97.3219 80.7643 97.6416 80.9968 97.9205C81.2292 98.2053 81.514 98.4493 81.8569 98.6353H81.8627ZM81.8627 98.6353C81.4675 98.5946 81.0956 98.4086 80.7701 98.1588C80.4505 97.9089 80.1774 97.5951 79.9624 97.2522C79.7357 96.9093 79.5788 96.5258 79.4742 96.119C79.3754 95.7122 79.3289 95.2705 79.48 94.7998L79.5963 94.4337L79.9449 94.6081C80.3169 94.794 80.6772 95.0148 81.0026 95.288C81.3222 95.5669 81.6128 95.8807 81.8278 96.2585C82.0428 96.6246 82.1881 97.043 82.2172 97.4672C82.2288 97.6822 82.2172 97.8914 82.1591 98.0948C82.1067 98.2982 82.008 98.4958 81.8627 98.6295V98.6353Z" fill="#E73440"></path>
<path d="M81.5384 99.1176C81.6371 99.5244 81.4802 99.9835 81.2013 100.326C80.9165 100.675 80.5156 100.919 80.0855 101.041C79.6555 101.175 79.2022 101.186 78.7664 101.146C78.3305 101.099 77.9121 100.983 77.5111 100.838L77.2031 100.722L77.2845 100.408C77.4065 99.9254 77.7087 99.5476 78.0458 99.2745C78.3886 99.0014 78.778 98.8038 79.1848 98.6992C79.5916 98.5829 80.0216 98.5597 80.4342 98.6236C80.841 98.6934 81.2362 98.8561 81.5325 99.1176H81.5384ZM81.5384 99.1176C81.1606 98.9955 80.7829 98.9491 80.4168 98.9839C80.0507 99.0072 79.702 99.1001 79.3765 99.2396C79.0511 99.3849 78.7489 99.5709 78.5049 99.8033C78.255 100.03 78.069 100.309 78.0051 100.582L77.7784 100.152C78.4932 100.419 79.2429 100.594 79.9635 100.489C80.318 100.431 80.6667 100.309 80.9572 100.076C81.2478 99.8556 81.4802 99.5244 81.5442 99.1176H81.5384Z" fill="#E73440"></path>
<path d="M93.4742 98.798C88.1859 101 82.8163 99.0188 82.8163 99.0188C85.1757 100.756 89.848 100.355 92.1667 100.018C92.5909 99.5941 93.0268 99.1873 93.4742 98.7922V98.798Z" fill="#E73440"></path>
<path d="M134.194 102.976C134.194 102.976 133.759 121.741 117.022 127.913C109.659 130.226 107.956 127.947 110.537 124.153C111.17 123.368 111.344 123.572 111.344 123.572C111.344 123.572 107.863 130.481 117.092 126.855C132.23 120.916 134.194 102.976 134.194 102.976Z" fill="#E73440"></path>
<path d="M104.369 92.6438C98.9243 94.7533 90.771 102.296 99.703 102.285C101.336 101.465 101.998 101.064 101.998 101.064C101.998 101.064 97.117 102.174 97.2216 99.7626C97.2971 98.0193 100.871 94.6487 104.369 92.6496V92.6438Z" fill="#E73440"></path>
<path d="M103.167 100.286C97.2574 102.785 88.5579 111.339 98.3615 111.025C100.122 110.072 100.843 109.607 100.843 109.607C100.843 109.607 95.5198 110.99 95.5489 108.334C95.5721 106.422 99.3843 102.599 103.167 100.286Z" fill="#E73440"></path>
<path d="M104.364 107.375C99.0582 109.619 91.5093 116.174 93.305 118.864C94.0315 119.951 95.5656 121.172 100.796 119.695C103.016 118.492 103.922 117.911 103.922 117.911C103.922 117.911 94.7288 120.852 94.7753 117.505C94.8044 115.093 99.6045 110.281 104.364 107.37V107.375Z" fill="#E73440"></path>
<path d="M107.828 115.494C102.522 117.737 97.1586 122.311 98.4719 125.367C98.9891 126.564 100.733 127.674 105.963 126.198C110.002 125.123 112.768 122.95 113.512 121.817C112.291 122.938 99.8783 127.895 99.9422 124.013C99.9829 121.602 103.074 118.405 107.834 115.494H107.828Z" fill="#E73440"></path>
<path d="M90.6264 121.654C84.5769 122.839 76.7955 124.408 77.3069 126.948C77.5103 127.947 78.4634 129.156 83.6064 129.551C87.5639 129.906 103.289 128.122 106.276 125.559C90.1267 129.284 77.6265 129.075 78.568 126.32C79.1491 124.612 85.5299 123.246 90.6264 121.654Z" fill="#E73440"></path>
<path d="M87.9767 115.767C82.3456 117.179 75.1047 119.033 75.7091 121.398C75.9473 122.328 76.9004 123.415 81.7644 123.537C85.5011 123.676 100.204 121.23 102.889 118.678C87.8837 122.973 76.1159 123.38 76.8655 120.747C77.3304 119.108 83.2579 117.516 87.9767 115.767Z" fill="#E73440"></path>
<path d="M87.931 108.939C83.1076 111.141 76.9186 114.006 77.8542 116.034C78.2203 116.83 79.2606 117.65 83.6423 116.953C87.0245 116.459 98.2693 112.571 101.803 109.078C89.041 115.424 78.5458 117.749 78.784 115.256C78.9293 113.71 83.991 111.292 87.9368 108.939H87.931Z" fill="#E73440"></path>
<path d="M90.7665 102C86.3325 104.406 80.6432 107.532 81.6602 109.409C82.0553 110.147 82.9154 110.944 87.146 109.624C91.9229 108.131 98.1468 104.51 101.302 101.268C89.6275 108.706 82.4214 111.008 82.4854 108.613C82.526 107.126 87.1693 104.499 90.7607 102.006L90.7665 102Z" fill="#E73440"></path>
<path d="M87.1927 130.08C87.2625 129.842 87.4601 129.598 87.7623 129.36C87.4891 129.4 87.2102 129.203 86.9371 129.255C86.7918 129.278 86.6581 129.278 86.5303 129.255C86.1758 129.633 86.0189 130.266 86.1235 130.679C86.3385 131.539 87.2799 132.463 91.7837 132.469C96.4792 132.474 110.781 130.987 114.262 127.773C99.6812 131.975 86.4896 132.515 87.1927 130.08Z" fill="#E73440"></path>
<path d="M122.245 115.046C120.705 116.685 119.119 118.818 119.165 120.741C120.967 120.666 123.983 119.411 125.04 116.226C125.04 118.341 123.309 121.863 118.16 122.084C117.759 117.714 122.245 115.046 122.245 115.046Z" fill="#E73440"></path>
<path d="M116.916 111.031C114.853 112.78 112.668 115.11 112.459 117.412C114.621 117.563 118.398 116.476 120.089 112.821C119.799 115.349 117.253 119.312 111.076 118.876C111.192 113.599 116.916 111.031 116.916 111.031Z" fill="#E73440"></path>
<path d="M109.17 99.2513C106.956 100.257 104.48 101.75 103.69 103.703C105.48 104.383 108.967 104.383 111.384 101.611C110.466 103.743 107.247 106.573 102.133 104.638C103.638 100.053 109.176 99.2513 109.176 99.2513H109.17Z" fill="#E73440"></path>
<path d="M105.963 94.3349C104.371 95.0264 102.581 96.055 101.994 97.4439C103.267 97.9495 105.754 97.996 107.515 96.0492C106.829 97.5602 104.499 99.536 100.867 98.089C102.006 94.8347 105.963 94.3349 105.963 94.3349Z" fill="#E73440"></path>
<path d="M112.227 104.999C109.897 106.591 107.404 108.759 107.061 111.042C109.403 111.356 113.558 110.56 115.58 107.027C115.139 109.531 112.169 113.309 105.48 112.402C105.876 107.131 112.221 104.993 112.221 104.993L112.227 104.999Z" fill="#E73440"></path>
<path d="M126.72 105.737C125.878 107.771 125.163 110.275 125.866 112.024C127.493 111.327 129.818 109.136 129.684 105.853C130.416 107.788 130.05 111.618 125.407 113.605C123.524 109.741 126.714 105.742 126.714 105.742L126.72 105.737Z" fill="#E73440"></path>
<path d="M128.76 97.781C128.51 99.2513 128.422 101.012 129.155 102.058C130.119 101.349 131.322 99.5476 130.735 97.4033C131.514 98.5713 131.851 101.152 129.097 103.168C127.266 100.902 128.765 97.781 128.765 97.781H128.76Z" fill="#E73440"></path>
<path d="M131.491 92.022C131.619 93.0448 131.915 94.2245 132.607 94.7708C133.107 94.1083 133.542 92.6787 132.723 91.377C133.473 91.993 134.211 93.6317 132.787 95.5146C131.125 94.3814 131.491 92.022 131.491 92.022Z" fill="#E73440"></path>
<path d="M129.337 84.9613C129.465 85.9841 129.761 87.1638 130.453 87.71C130.952 87.0533 131.388 85.618 130.569 84.3162C131.318 84.9322 132.056 86.571 130.633 88.4539C128.971 87.3207 129.337 84.9613 129.337 84.9613Z" fill="#E73440"></path>
<path d="M121.589 99.6232C120.625 101.762 119.782 104.406 120.479 106.283C122.229 105.597 124.786 103.337 124.745 99.8382C125.46 101.924 124.942 105.987 119.939 107.951C118.062 103.772 121.589 99.6232 121.589 99.6232Z" fill="#E73440"></path>
<path d="M124.506 81.3408C124.46 82.6484 124.576 84.1884 125.331 85.0136C126.093 84.2872 126.935 82.5845 126.18 80.7888C126.988 81.7186 127.574 83.921 125.401 85.9899C123.553 84.229 124.5 81.3408 124.5 81.3408H124.506Z" fill="#E73440"></path>
<path d="M124.739 89.9009C124.46 91.8535 124.698 93.9572 125.698 95.3112C126.947 94.3465 127.517 92.6031 127.273 90.0345C127.964 91.3595 128.325 94.2071 125.436 96.5723C122.943 93.6434 124.733 89.9009 124.733 89.9009H124.739Z" fill="#E73440"></path>
<path d="M113.017 90.9178C111.762 92.0452 110.431 93.5387 110.309 95.0032C111.634 95.0787 113.941 94.3581 114.97 92.0278C114.801 93.6317 113.256 96.1713 109.472 95.9446C109.525 92.5973 113.017 90.9237 113.017 90.9237V90.9178Z" fill="#E73440"></path>
<path d="M107.933 87.3206C107.055 88.1284 106.131 89.2035 106.067 90.2379C107.003 90.2786 108.63 89.744 109.327 88.0819C109.229 89.2151 108.165 91.0283 105.486 90.912C105.486 88.5468 107.939 87.3206 107.939 87.3206H107.933Z" fill="#E73440"></path>
<path d="M110.874 77.9935C110.508 79.1267 110.229 80.5156 110.676 81.4512C111.513 81.027 112.664 79.766 112.461 77.9761C112.931 79.0163 112.891 81.1142 110.496 82.3287C109.334 80.2657 110.874 77.9993 110.874 77.9993V77.9935Z" fill="#E73440"></path>
<path d="M116.091 95.8575C114.859 97.5311 113.656 99.6464 113.976 101.32C115.678 100.971 118.375 99.3965 118.921 96.4502C119.223 98.2982 118.084 101.651 113.214 102.651C112.203 98.891 116.097 95.8575 116.097 95.8575H116.091Z" fill="#E73440"></path>
<path d="M117.91 87.3788C117.765 88.9072 117.805 90.7029 118.642 91.6385C119.409 90.9353 120.327 89.1803 120.223 87.5531C120.473 88.1807 120.926 90.7784 118.659 92.7717C116.596 90.7726 117.91 87.3788 117.91 87.3788Z" fill="#E73440"></path>
<path d="M117.91 78.9059C117.765 80.4343 117.805 82.23 118.642 83.1656C119.409 82.4624 120.327 80.7074 120.223 79.0802C120.473 79.7078 120.926 82.3055 118.659 84.2988C116.596 82.2997 117.91 78.9059 117.91 78.9059Z" fill="#E73440"></path>
<path d="M112.512 84.0896C112.17 85.2635 111.931 86.6814 112.449 87.5415C113.158 87.1056 114.14 85.8678 114.302 84.5719C114.407 85.1007 114.372 87.2044 112.292 88.4306C110.972 86.5536 112.512 84.0896 112.512 84.0896Z" fill="#E73440"></path>
<path d="M114.72 73.1295C114.54 74.0535 114.453 75.1576 114.906 75.7794C115.418 75.3959 116.092 74.3789 116.127 73.3793C116.243 73.7803 116.359 75.3959 114.854 76.4768C113.715 75.1285 114.726 73.1353 114.726 73.1353L114.72 73.1295Z" fill="#E73440"></path>
<path d="M120.508 74.2685C120.549 75.2099 120.729 76.3024 121.322 76.8022C121.729 76.3082 122.141 75.1576 121.932 74.1755C122.141 74.5358 122.641 76.0816 121.432 77.4879C120.003 76.4477 120.508 74.2685 120.508 74.2685Z" fill="#E73440"></path>
<path d="M126.797 75.8607C126.861 76.715 127.053 77.6971 127.599 78.1272C127.953 77.6623 128.296 76.6046 128.081 75.7213C128.279 76.0409 128.773 77.4182 127.715 78.749C126.39 77.8656 126.797 75.8666 126.797 75.8666V75.8607Z" fill="#E73440"></path>
<path d="M122.816 68.7942C122.712 69.5729 122.694 70.4969 123.095 71.0083C123.502 70.6771 124.007 69.817 123.99 68.9744C124.106 69.3056 124.281 70.6538 123.083 71.5895C122.072 70.4853 122.816 68.7942 122.816 68.7942Z" fill="#E73440"></path>
<path d="M114.023 67.6029C113.784 68.3526 113.61 69.2591 113.924 69.8344C114.377 69.5787 115.022 68.8117 115.15 67.9806C115.208 68.3293 115.15 69.6892 113.813 70.404C113.006 69.1429 114.023 67.6029 114.023 67.6029Z" fill="#E73440"></path>
<path d="M90.8591 160.531C90.8591 160.531 101.36 157.074 108.125 160.485C112.175 160.456 114.546 160.531 114.546 160.531C114.546 160.531 103.237 153.912 90.8591 160.531Z" fill="#E73440"></path>
<path d="M92.6142 137.809C92.6142 137.809 93.3813 141.302 96.9727 141.162C99.4192 141.064 104.365 139.489 108.886 133.544C111.483 132.934 112.466 132.567 112.466 132.567C112.466 132.567 106.765 141.087 99.181 142.063C92.2655 142.952 92.6084 137.815 92.6084 137.815L92.6142 137.809Z" fill="#E73440"></path>
<path d="M99.6756 158.358C99.6233 158.108 97.0082 146.055 102.703 140.721C99.5768 141.412 98.6411 141.662 98.6411 141.662C98.6411 141.662 98.0484 149.542 94.6895 152.134C95.9738 152.332 97.4091 150.85 97.4091 150.85C97.4091 150.85 97.659 156.283 98.6992 158.358H99.6814H99.6756Z" fill="#E73440"></path>
<path d="M12.297 96.95C12.5643 97.0488 12.7968 97.1882 12.9885 97.3742C13.1803 97.5602 13.3314 97.781 13.436 98.0309C13.5406 98.2866 13.5987 98.5713 13.5987 98.8793C13.5987 99.1873 13.5464 99.4663 13.436 99.722C13.3256 99.9777 13.1745 100.198 12.9769 100.379C12.7793 100.559 12.5527 100.704 12.2854 100.809C12.018 100.907 11.7333 100.96 11.4195 100.96C11.1057 100.96 10.8035 100.913 10.5362 100.809C10.2688 100.71 10.0422 100.57 9.85042 100.39C9.65865 100.21 9.50755 99.9893 9.40295 99.7336C9.29835 99.4779 9.24023 99.1931 9.24023 98.8793C9.24023 98.5655 9.29254 98.2982 9.40295 98.0425C9.50755 97.7868 9.65865 97.566 9.85042 97.3858C10.0422 97.2057 10.2746 97.0604 10.5362 96.9558C10.8035 96.8512 11.094 96.7989 11.4195 96.7989C11.7449 96.7989 12.0297 96.8512 12.297 96.95ZM10.6349 98.089C10.4432 98.2924 10.3502 98.5597 10.3502 98.8851C10.3502 99.2106 10.449 99.4953 10.6408 99.6929C10.8325 99.8905 11.094 99.9951 11.4195 99.9951C11.7449 99.9951 12.0122 99.8963 12.1982 99.6929C12.3841 99.4953 12.4771 99.2222 12.4771 98.8851C12.4771 98.5481 12.3841 98.2866 12.1924 98.0832C12.0006 97.8856 11.7449 97.781 11.4137 97.781C11.0824 97.781 10.8209 97.8798 10.6291 98.0832L10.6349 98.089Z" fill="#E73440"></path>
<path d="M16.4761 97.8101C16.3308 97.8101 16.1913 97.8333 16.0635 97.8856C15.9356 97.9379 15.8194 98.0076 15.7264 98.0948C15.6276 98.1878 15.5521 98.2982 15.494 98.4261C15.4358 98.5539 15.4068 98.6992 15.4068 98.8619C15.4068 99.1873 15.4998 99.4547 15.6915 99.6581C15.8833 99.8615 16.139 99.9602 16.4703 99.9602C16.6911 99.9602 16.8887 99.9254 17.063 99.8498C17.2373 99.7743 17.3943 99.6697 17.5221 99.5418L18.1672 100.286C17.9289 100.53 17.6674 100.704 17.3768 100.815C17.0921 100.919 16.7724 100.971 16.418 100.971C16.0635 100.971 15.7613 100.919 15.4998 100.809C15.2383 100.698 15.0174 100.553 14.8373 100.367C14.6571 100.181 14.5235 99.9602 14.4305 99.7104C14.3375 99.4605 14.291 99.1873 14.291 98.9026C14.291 98.6004 14.3433 98.3215 14.4537 98.0658C14.5641 97.8101 14.7152 97.5892 14.9128 97.4033C15.1104 97.2173 15.3371 97.072 15.5927 96.9674C15.8543 96.8628 16.139 96.8105 16.4412 96.8105C16.8015 96.8105 17.1095 96.8628 17.3768 96.9616C17.6441 97.0604 17.8824 97.2173 18.1032 97.4207L17.4814 98.1762C17.2257 97.9379 16.8887 97.8159 16.4644 97.8159L16.4761 97.8101Z" fill="#E73440"></path>
<path d="M20.1606 98.3796H21.7297V96.8977H22.8513V100.878H21.7297V99.3559H20.1606V100.878H19.0391V96.8977H20.1606V98.3796Z" fill="#E73440"></path>
<path d="M24.9143 99.7626C25.0479 99.8847 25.1177 100.047 25.1177 100.251C25.1177 100.454 25.0479 100.623 24.9143 100.745C24.7806 100.867 24.6179 100.925 24.4377 100.925C24.2576 100.925 24.1007 100.867 23.967 100.745C23.8334 100.623 23.7578 100.46 23.7578 100.251C23.7578 100.042 23.8275 99.8847 23.9612 99.7626C24.0949 99.6406 24.2576 99.5767 24.4377 99.5767C24.6179 99.5767 24.7806 99.6406 24.9143 99.7626Z" fill="#E73440"></path>
<path d="M178.157 100.873V100.065L180.005 98.6934C180.215 98.5365 180.372 98.3854 180.476 98.2343C180.581 98.0832 180.633 97.9263 180.633 97.7636C180.633 97.5776 180.563 97.4323 180.43 97.3219C180.296 97.2115 180.087 97.1592 179.802 97.1592C179.575 97.1592 179.355 97.1999 179.151 97.2812C178.948 97.3626 178.75 97.4846 178.57 97.6357L178.064 96.9035C178.32 96.6769 178.593 96.52 178.884 96.4154C179.174 96.3166 179.5 96.2701 179.86 96.2701C180.127 96.2701 180.366 96.3049 180.581 96.3747C180.796 96.4444 180.982 96.5432 181.139 96.6711C181.296 96.7989 181.412 96.95 181.493 97.1302C181.574 97.3103 181.615 97.5021 181.615 97.7113C181.615 98.0367 181.54 98.3215 181.377 98.5714C181.22 98.8212 180.97 99.0595 180.639 99.2861L179.657 99.9661H181.615V100.878H178.152L178.157 100.873Z" fill="#E73440"></path>
<path d="M185.655 96.4502C185.94 96.5723 186.178 96.735 186.376 96.95C186.573 97.1592 186.724 97.4091 186.835 97.6938C186.945 97.9786 186.997 98.2866 186.997 98.6178C186.997 98.9491 186.945 99.2397 186.835 99.5244C186.724 99.8092 186.573 100.059 186.376 100.274C186.178 100.489 185.934 100.658 185.649 100.785C185.364 100.913 185.051 100.971 184.708 100.971C184.365 100.971 184.051 100.913 183.766 100.791C183.487 100.669 183.249 100.507 183.051 100.292C182.854 100.082 182.703 99.8324 182.592 99.5477C182.482 99.2629 182.43 98.9549 182.43 98.6237C182.43 98.2924 182.482 97.996 182.592 97.7113C182.703 97.4265 182.854 97.1766 183.051 96.9616C183.249 96.7466 183.487 96.5781 183.766 96.456C184.045 96.334 184.359 96.2701 184.708 96.2701C185.056 96.2701 185.376 96.3282 185.655 96.4502ZM184.15 97.2812C183.993 97.3568 183.859 97.4614 183.749 97.5892C183.638 97.7229 183.557 97.874 183.505 98.0483C183.447 98.2227 183.418 98.4145 183.418 98.612C183.418 98.8096 183.447 99.0072 183.505 99.1873C183.563 99.3617 183.644 99.5128 183.749 99.6464C183.859 99.7743 183.993 99.8789 184.15 99.9544C184.307 100.03 184.493 100.065 184.708 100.065C184.923 100.065 185.103 100.024 185.266 99.9486C185.428 99.8731 185.562 99.7685 185.672 99.6406C185.783 99.5128 185.858 99.3559 185.916 99.1815C185.969 99.0072 185.998 98.8154 185.998 98.6178C185.998 98.4203 185.969 98.2111 185.916 98.0367C185.858 97.8566 185.777 97.7055 185.672 97.5776C185.562 97.4498 185.428 97.351 185.266 97.2754C185.103 97.2057 184.923 97.165 184.714 97.165C184.504 97.165 184.318 97.1999 184.156 97.2754L184.15 97.2812Z" fill="#E73440"></path>
<path d="M191.048 96.4502C191.332 96.5723 191.571 96.735 191.768 96.95C191.966 97.1592 192.117 97.4091 192.227 97.6938C192.338 97.9786 192.39 98.2866 192.39 98.6178C192.39 98.9491 192.338 99.2397 192.227 99.5244C192.117 99.8092 191.966 100.059 191.768 100.274C191.571 100.489 191.326 100.658 191.042 100.785C190.757 100.913 190.443 100.971 190.1 100.971C189.757 100.971 189.444 100.913 189.159 100.791C188.88 100.669 188.642 100.507 188.444 100.292C188.246 100.082 188.095 99.8324 187.985 99.5477C187.875 99.2629 187.822 98.9549 187.822 98.6237C187.822 98.2924 187.875 97.996 187.985 97.7113C188.095 97.4265 188.246 97.1766 188.444 96.9616C188.642 96.7466 188.88 96.5781 189.159 96.456C189.438 96.334 189.752 96.2701 190.1 96.2701C190.449 96.2701 190.769 96.3282 191.048 96.4502ZM189.542 97.2812C189.386 97.3568 189.252 97.4614 189.141 97.5892C189.031 97.7229 188.95 97.874 188.897 98.0483C188.839 98.2227 188.81 98.4145 188.81 98.612C188.81 98.8096 188.839 99.0072 188.897 99.1873C188.955 99.3617 189.037 99.5128 189.141 99.6464C189.252 99.7743 189.386 99.8789 189.542 99.9544C189.699 100.03 189.885 100.065 190.1 100.065C190.315 100.065 190.495 100.024 190.658 99.9486C190.821 99.8731 190.955 99.7685 191.065 99.6406C191.175 99.5128 191.251 99.3559 191.309 99.1815C191.361 99.0072 191.39 98.8154 191.39 98.6178C191.39 98.4203 191.361 98.2111 191.309 98.0367C191.251 97.8566 191.17 97.7055 191.065 97.5776C190.955 97.4498 190.821 97.351 190.658 97.2754C190.495 97.2057 190.315 97.165 190.106 97.165C189.897 97.165 189.711 97.1999 189.548 97.2754L189.542 97.2812Z" fill="#E73440"></path>
<path d="M195.747 96.3631C195.957 96.427 196.131 96.5141 196.276 96.6246C196.422 96.735 196.532 96.8744 196.608 97.0372C196.683 97.1999 196.724 97.3742 196.724 97.5718C196.724 97.7461 196.683 97.9089 196.608 98.06C196.526 98.211 196.416 98.3389 196.276 98.4435C196.503 98.5539 196.683 98.6934 196.799 98.8735C196.921 99.0537 196.979 99.2745 196.979 99.5418C196.979 99.7394 196.933 99.9254 196.846 100.1C196.759 100.274 196.631 100.425 196.462 100.553C196.294 100.681 196.09 100.785 195.846 100.861C195.602 100.937 195.329 100.977 195.015 100.977C194.701 100.977 194.411 100.942 194.167 100.867C193.923 100.797 193.725 100.698 193.562 100.576C193.406 100.454 193.283 100.303 193.202 100.135C193.121 99.9602 193.08 99.7743 193.08 99.5709C193.08 99.3152 193.138 99.0885 193.249 98.891C193.359 98.6934 193.516 98.5365 193.719 98.4203C193.591 98.3215 193.498 98.1994 193.435 98.0541C193.371 97.9089 193.336 97.7461 193.336 97.5718C193.336 97.3742 193.376 97.1941 193.464 97.0372C193.551 96.8803 193.667 96.7408 193.818 96.6304C193.969 96.52 194.149 96.4328 194.359 96.3689C194.568 96.3107 194.789 96.2759 195.033 96.2759C195.3 96.2759 195.532 96.3049 195.742 96.3689L195.747 96.3631ZM194.614 98.8735C194.55 98.8619 194.492 98.8445 194.434 98.827C194.312 98.8793 194.225 98.9607 194.167 99.0653C194.109 99.1699 194.08 99.2919 194.08 99.4314C194.08 99.6348 194.161 99.7917 194.33 99.9079C194.498 100.024 194.73 100.082 195.033 100.082C195.335 100.082 195.562 100.03 195.718 99.9254C195.875 99.8208 195.957 99.6871 195.957 99.5128C195.957 99.3733 195.904 99.2629 195.806 99.1873C195.707 99.1118 195.538 99.0479 195.306 99.0014L194.829 98.9084C194.76 98.8968 194.69 98.8793 194.626 98.8677L194.614 98.8735ZM195.352 98.1587L195.48 98.1878C195.579 98.1297 195.654 98.0541 195.701 97.9612C195.747 97.8682 195.771 97.7636 195.771 97.6473C195.771 97.4963 195.713 97.3684 195.591 97.2754C195.469 97.1824 195.283 97.1359 195.038 97.1359C194.794 97.1359 194.614 97.1766 194.492 97.2638C194.37 97.351 194.312 97.4614 194.312 97.6009C194.312 97.7287 194.359 97.8333 194.452 97.9089C194.545 97.9844 194.667 98.0367 194.823 98.0658L195.213 98.1355C195.265 98.1471 195.312 98.1529 195.358 98.1646L195.352 98.1587Z" fill="#E73440"></path>
<path d="M12.6454 122.136C12.8198 122.287 13.0406 122.438 13.3021 122.589L13.6043 122.758L13.7438 122.834L13.8832 122.909L12.8139 124.443C11.4192 123.415 10.594 122.212 10.3441 120.829C9.90829 118.417 10.4836 116.342 12.0585 114.599C13.4997 113.03 15.4174 112.024 17.8117 111.594C20.2059 111.164 22.3503 111.432 24.2564 112.402C26.3601 113.483 27.627 115.227 28.0628 117.638C28.3069 119.004 27.9291 120.41 26.9296 121.851L25.5 120.84C25.9475 120.375 26.2787 119.951 26.4879 119.568C26.7843 118.998 26.8831 118.434 26.7785 117.871C26.5112 116.395 25.5116 115.354 23.7799 114.756C22.2224 114.221 20.4209 114.134 18.3812 114.483C16.3414 114.849 14.6852 115.558 13.4125 116.598C11.9946 117.749 11.4192 119.079 11.6924 120.59C11.797 121.171 12.1166 121.683 12.6454 122.136Z" fill="#E73440"></path>
<path d="M17.4813 138.367L16.168 138.553L12.8613 129.354L28.9935 123.554L32.1374 132.288L31.0275 132.974L28.7727 126.704L24.327 128.302L25.5474 131.69L24.3503 132.12L23.1299 128.732L15.0638 131.632L17.4813 138.361V138.367Z" fill="#E73440"></path>
<path d="M41.8697 149.199L27.2949 158.236L25.7724 155.778L37.0579 148.781L21.5185 151.007L30.4214 138.082L19.1358 145.079L18.3223 143.766L32.897 134.729L34.2917 136.978L25.9932 149.072L40.4982 146.997L41.8639 149.205L41.8697 149.199Z" fill="#E73440"></path>
<path d="M47.8102 164.599C47.7347 166.041 47.1245 167.336 45.9855 168.487C44.7419 169.737 43.2949 170.393 41.6445 170.457C39.7965 170.509 38.1054 169.771 36.5654 168.237L31.7188 163.42L43.8063 151.257L45.8577 153.296L40.8832 158.3C42.9055 158.3 44.6605 159.05 46.154 160.537C47.3337 161.711 47.8858 163.065 47.8102 164.605V164.599ZM34.7116 164.501L35.0777 164.861L35.4612 165.273C35.8099 165.64 36.1063 165.936 36.3445 166.157C37.071 166.86 37.7567 167.377 38.3901 167.708C40.2149 168.65 41.9873 168.272 43.7017 166.569C44.5675 165.703 45.0964 164.756 45.3056 163.739C45.5438 162.594 45.2823 161.618 44.5152 160.816C43.7365 160.113 42.859 159.666 41.8769 159.474C41.1156 159.317 40.3892 159.317 39.6977 159.48L34.7058 164.501H34.7116Z" fill="#E73440"></path>
<path d="M66.1389 169.289L56.8176 183.684L54.371 182.097L61.2923 171.404L47.7694 177.82L46.1016 176.739L55.4229 162.345L57.8462 163.914L50.9249 174.606L64.4653 168.202L66.1331 169.283L66.1389 169.289Z" fill="#E73440"></path>
<path d="M91.5112 177.535L87.7222 194.26L84.9038 193.621L88.408 178.14L82.986 176.913L80.8358 186.398C80.429 188.199 79.5748 189.53 78.2731 190.39C76.9713 191.25 75.4604 191.488 73.7402 191.099L74.0017 189.954C74.8792 190.152 75.7103 189.873 76.5006 189.111C77.3084 188.339 77.8779 187.252 78.1917 185.851L80.6324 175.077L91.4996 177.541L91.5112 177.535Z" fill="#E73440"></path>
<path d="M106.661 184.515C107.649 185.567 108.166 186.903 108.207 188.519C108.248 190.28 107.725 191.779 106.626 193.017C105.388 194.388 103.68 195.097 101.506 195.149L94.6723 195.318L94.2539 178.175L97.1421 178.105L97.3165 185.16C98.717 183.707 100.472 182.951 102.576 182.899C104.244 182.858 105.603 183.399 106.655 184.515H106.661ZM97.5315 193.9L98.0487 193.888L98.6124 193.9C99.118 193.9 99.5364 193.894 99.8618 193.871C100.873 193.83 101.721 193.697 102.401 193.464C104.342 192.796 105.295 191.256 105.255 188.838C105.226 187.612 104.912 186.578 104.319 185.723C103.657 184.759 102.773 184.276 101.663 184.271C100.617 184.346 99.6875 184.672 98.8681 185.247C98.223 185.689 97.7232 186.217 97.3629 186.828L97.5373 193.906L97.5315 193.9ZM111.06 194.917L110.642 177.774L113.553 177.704L113.972 194.847L111.06 194.917Z" fill="#E73440"></path>
<path d="M127.801 173.735L132.299 190.279L129.51 191.035L127.668 184.253C126.639 185.956 125.134 187.072 123.152 187.612C121.862 187.961 120.718 187.862 119.718 187.304C118.678 186.723 117.975 185.758 117.608 184.398L115.609 177.047L118.399 176.292L120.38 183.573C120.63 184.503 121.101 185.195 121.781 185.654C122.414 186.055 123.065 186.183 123.739 186.037C124.692 185.747 125.489 185.259 126.134 184.573C126.668 183.986 127.04 183.352 127.244 182.672L125.018 174.496L127.807 173.741L127.801 173.735Z" fill="#E73440"></path>
<path d="M147.026 183.62L138.03 177.21L136.496 177.977L140.843 186.706L138.257 187.996L130.609 172.648L133.195 171.358L136.037 177.059L138.141 176.013L138.588 168.673L140.21 167.865L139.762 175.147L149.74 182.272L147.021 183.626L147.026 183.62Z" fill="#E73440"></path>
<path d="M153.68 158.044L164.222 171.567L161.921 173.357L154.093 163.309L155.72 178.186L154.157 179.407L143.615 165.884L145.893 164.105L153.721 174.153L152.111 159.259L153.675 158.038L153.68 158.044Z" fill="#E73440"></path>
<path d="M164.088 146.247L177.163 157.341L175.281 159.561L167.755 153.174L163.257 158.48L170.783 164.867L168.911 167.069L155.836 155.975L157.707 153.773L162.281 157.655L166.779 152.349L162.205 148.467L164.094 146.247H164.088Z" fill="#E73440"></path>
<path d="M177.302 136.112C178.697 135.723 180.115 135.886 181.568 136.6C183.149 137.379 184.235 138.541 184.822 140.087C185.462 141.819 185.299 143.661 184.34 145.614L181.318 151.745L165.936 144.167L167.214 141.575L173.543 144.696C172.903 142.778 173.049 140.878 173.978 138.983C174.716 137.49 175.821 136.531 177.302 136.118V136.112ZM188.559 137.042L173.176 129.464L174.467 126.849L189.849 134.427L188.559 137.042ZM181.382 148.554L181.609 148.095L181.882 147.601C182.12 147.154 182.306 146.782 182.434 146.48C182.864 145.567 183.137 144.754 183.253 144.045C183.561 142.011 182.637 140.453 180.475 139.372C179.377 138.832 178.314 138.623 177.285 138.756C176.123 138.896 175.286 139.454 174.763 140.436C174.345 141.395 174.199 142.371 174.333 143.365C174.426 144.138 174.658 144.829 175.036 145.434L181.388 148.56L181.382 148.554Z" fill="#E73440"></path>
<path d="M193.615 119.062L186.42 121.497L191.802 127.192L191.424 128.889L184.869 121.95L174.664 125.268L175.396 121.991L182.591 119.556L177.209 113.861L177.587 112.164L184.142 119.103L194.347 115.784L193.615 119.062Z" fill="#E73440"></path>
<path d="M14.4121 83.2004L14.6038 82.4101L18.7415 83.4155L19.0495 82.1486L15.5976 78.3364L15.8126 77.4414L19.5609 81.5907L25.0642 79.5509L24.8434 80.4459L19.7875 82.2997L19.4737 83.5898L23.8206 84.6475L23.6288 85.4378L14.4062 83.1946L14.4121 83.2004Z" fill="#E73440"></path>
<path d="M21.0083 71.3628C22.9318 72.0137 23.4723 73.513 22.8505 75.3494L22.3216 76.9184L25.5934 78.0226L25.3319 78.7955L16.3418 75.762L17.1321 73.4258C17.7539 71.5894 19.0731 70.7236 21.0025 71.3686L21.0083 71.3628ZM17.3472 75.2273L21.5952 76.6627L22.1357 75.0588C22.6064 73.6583 22.1473 72.6006 20.7526 72.1299C19.3404 71.6534 18.3641 72.2113 17.8876 73.6234L17.3472 75.2273Z" fill="#E73440"></path>
<path d="M18.8984 68.5676L20.8336 64.0871L21.5426 64.3951L19.9328 68.1259L23.193 69.5323L24.6458 66.1733L25.3548 66.4813L23.902 69.8403L27.226 71.2757L28.8764 67.4576L29.5854 67.7656L27.6154 72.3333L18.9042 68.5734L18.8984 68.5676Z" fill="#E73440"></path>
<path d="M25.7151 65.0111C22.9373 63.535 22.0714 61.2744 23.071 59.3799C23.3732 58.8046 23.7858 58.3455 24.3146 58.0259L24.9654 58.3687C24.4599 58.6884 24.0647 59.1184 23.7625 59.6995C22.9373 61.2744 23.6928 63.0178 26.0987 64.2963C28.3709 65.505 30.2072 65.2145 31.0557 63.6105C31.3695 63.012 31.509 62.396 31.5032 61.7335L32.1889 62.0938C32.1831 62.8086 31.9913 63.4595 31.6775 64.058C30.7477 65.8247 28.5975 66.5394 25.7209 65.0169L25.7151 65.0111Z" fill="#E73440"></path>
<path d="M26.6393 55.097L25.2446 57.3111L24.5938 56.8985L27.8132 51.7845L28.4641 52.1971L27.0694 54.4113L34.4439 59.0545L34.0139 59.7402L26.6393 55.097Z" fill="#E73440"></path>
<path d="M28.8183 50.3433L29.3065 49.6924L32.2237 51.8833L33.2233 50.5467C34.3565 49.0358 35.8849 48.5592 37.4713 49.7447C39.0578 50.9303 39.0346 52.5458 37.9014 54.0567L36.4137 56.0442L28.8125 50.3491L28.8183 50.3433ZM37.3144 53.557C38.1861 52.3947 38.1396 51.2615 36.989 50.3956C35.85 49.5414 34.7284 49.8203 33.8625 50.9709L32.8339 52.3366L36.2858 54.9226L37.3086 53.557H37.3144Z" fill="#E73440"></path>
<path d="M37.018 40.3595L44.0904 46.688L43.5557 47.2866L40.6966 44.7296L39.3774 46.2057C39.3135 46.2754 39.2495 46.3451 39.1856 46.3974L40.5978 50.5932L39.9934 51.2731L38.5638 46.9379C37.4713 47.6527 36.2858 47.5365 35.2397 46.6066C33.8043 45.3224 34.0136 43.7242 35.1061 42.5039L37.0122 40.3711L37.018 40.3595ZM37.0587 41.4695L35.6582 43.0385C34.833 43.9567 34.7342 45.0492 35.786 45.9907C36.8146 46.9146 37.9129 46.7054 38.7498 45.7698L40.1329 44.224L37.0587 41.4753V41.4695Z" fill="#E73440"></path>
<path d="M49.7734 41.2777L49.1748 41.8298L46.1994 38.6219L42.98 41.6089L45.9612 44.8168L45.3626 45.3689L38.9062 38.4127L39.5048 37.8606L42.457 41.0394L45.6764 38.0524L42.7243 34.8736L43.3228 34.3216L49.7792 41.2777H49.7734Z" fill="#E73440"></path>
<path d="M47.9253 36.7333C46.0076 34.2402 46.1529 31.8285 47.844 30.5093C48.3554 30.1084 48.9191 29.8643 49.5351 29.7946L49.9825 30.3699C49.3956 30.4512 48.8493 30.6837 48.3379 31.0789C46.9374 32.1714 46.9026 34.0659 48.5646 36.2277C50.1336 38.2674 51.9293 38.7672 53.3647 37.6514C53.8994 37.233 54.2829 36.7333 54.5502 36.1289L55.0268 36.7391C54.7246 37.3841 54.2829 37.9013 53.7483 38.3197C52.1734 39.5459 49.9128 39.3077 47.9312 36.7333H47.9253Z" fill="#E73440"></path>
<path d="M51.0059 28.365L51.6858 27.9233L54.0103 31.4914L55.1028 30.7825L55.1958 25.6395L55.9687 25.1339L55.8583 30.7244L61.2686 33.0082L60.4957 33.5138L55.5445 31.4043L54.4287 32.1307L56.8695 35.879L56.1895 36.3206L51.0059 28.3708V28.365Z" fill="#E73440"></path>
<path d="M59.0316 28.8124C57.6253 26.1799 57.7357 23.9542 59.758 22.8733C61.7688 21.7982 63.6865 22.943 65.0928 25.5697C66.4992 28.2022 66.3829 30.428 64.378 31.5031C62.3557 32.584 60.438 31.445 59.0316 28.8124ZM64.378 25.9533C63.1635 23.6811 61.6758 22.7106 60.1183 23.5416C58.5609 24.3726 58.5319 26.1567 59.7522 28.4289C60.9668 30.7011 62.4661 31.6658 64.0235 30.8348C65.581 30.0038 65.5984 28.2255 64.378 25.9533Z" fill="#E73440"></path>
<path d="M64.8418 20.4907L69.3339 18.5729L69.6361 19.2819L65.8936 20.88L67.2883 24.146L70.6531 22.7048L70.9552 23.4138L67.5905 24.855L69.0143 28.1848L72.8439 26.5519L73.1461 27.2608L68.5668 29.2192L64.8359 20.4849L64.8418 20.4907Z" fill="#E73440"></path>
<path d="M79.5979 24.3901C77.2037 24.884 75.3673 23.7741 74.7455 21.5832C74.1237 19.3923 75.1058 17.4804 77.4012 16.6436L77.07 15.4813L77.8371 15.2605L78.1625 16.4228C80.5452 15.9288 82.3815 17.0446 83.0033 19.2354C83.6251 21.4263 82.643 23.3382 80.3592 24.1692L80.6904 25.3315L79.9233 25.5523L79.5921 24.3901H79.5979ZM77.6104 17.3874C75.6346 18.0732 75.0419 19.6538 75.5242 21.3566C76.0065 23.0651 77.4361 24.0704 79.3829 23.6462L77.6104 17.3874ZM82.2304 19.4621C81.7481 17.7535 80.4231 16.7191 78.3834 17.1724L80.1558 23.4312C82.1316 22.7455 82.7128 21.1706 82.2304 19.4621Z" fill="#E73440"></path>
<path d="M83.6953 14.3132L88.5013 13.4415L88.6407 14.2028L84.6367 14.9292L85.2702 18.4276L88.8732 17.7709L89.0127 18.5322L85.4096 19.1889L86.0547 22.7512L90.1517 22.0074L90.2911 22.7687L85.3922 23.6578L83.6953 14.319V14.3132Z" fill="#E73440"></path>
<path d="M96.5428 15.5917C96.7404 17.614 95.5956 18.724 93.6662 18.9158L92.0216 19.0785L92.3587 22.5188L91.5509 22.6001L90.6211 13.151L93.0793 12.9069C95.0086 12.7151 96.3452 13.5694 96.5486 15.5917H96.5428ZM91.5044 13.8425L91.9461 18.3114L93.6313 18.1429C95.1016 17.9976 95.8745 17.1433 95.735 15.6731C95.5898 14.1854 94.6774 13.5287 93.1955 13.674L91.5102 13.8425H91.5044Z" fill="#E73440"></path>
<path d="M98.4617 12.4129L99.3043 12.4246L102.088 18.1894L105.052 12.5117L105.894 12.5234L105.743 22.0132L104.941 22.0016L105.034 16.1961C105.046 15.4232 105.069 14.691 105.139 13.9471L102.274 19.4504H101.867L99.1765 13.8541C99.2172 14.598 99.2346 15.3302 99.223 16.1031L99.13 21.9086L98.3164 21.897L98.4675 12.4071L98.4617 12.4129Z" fill="#E73440"></path>
<path d="M108.463 12.6745L113.321 13.1394L113.246 13.9065L109.195 13.5171L108.852 17.0504L112.496 17.3991L112.421 18.1661L108.777 17.8175L108.428 21.4205L112.572 21.8215L112.496 22.5885L107.545 22.112L108.451 12.6628L108.463 12.6745Z" fill="#E73440"></path>
<path d="M120.48 17.4048C120.119 19.4039 118.719 20.1594 116.807 19.8165L115.18 19.526L114.57 22.9256L113.768 22.7803L115.447 13.4415L117.876 13.8774C119.782 14.2202 120.84 15.3999 120.48 17.4048ZM116.11 14.3423L115.313 18.7589L116.981 19.0611C118.434 19.3226 119.416 18.7124 119.672 17.2596C119.933 15.7893 119.242 14.9118 117.772 14.6445L116.104 14.3423H116.11Z" fill="#E73440"></path>
<path d="M121.206 19.4272C122.026 16.3937 124.036 15.0455 126.111 15.5976C126.739 15.7661 127.279 16.0625 127.703 16.5099L127.517 17.2189C127.099 16.8005 126.588 16.5099 125.954 16.3414C124.24 15.8823 122.706 17.0097 121.991 19.6364C121.317 22.1236 122.008 23.8496 123.763 24.3145C124.42 24.4888 125.048 24.4888 125.693 24.3378L125.495 25.0816C124.798 25.2327 124.118 25.192 123.461 25.0177C121.538 24.5063 120.352 22.5653 121.201 19.4272H121.206Z" fill="#E73440"></path>
<path d="M129.732 16.8179L130.499 17.091L129.063 21.1008L130.289 21.5367L134.439 18.5032L135.305 18.8112L130.789 22.1062L132.242 27.7955L131.376 27.4875L130.063 22.2689L128.813 21.8214L127.308 26.0346L126.541 25.7615L129.737 16.8237L129.732 16.8179Z" fill="#E73440"></path>
<path d="M134.242 23.4893C135.492 20.7812 137.334 19.5202 139.414 20.479C141.483 21.4321 141.733 23.652 140.483 26.3601C139.24 29.0681 137.392 30.3292 135.323 29.3761C133.243 28.4173 132.993 26.1974 134.236 23.4893H134.242ZM139.751 26.0172C140.826 23.6753 140.704 21.9028 139.1 21.1648C137.496 20.4267 136.061 21.4844 134.98 23.8264C133.905 26.1683 134.039 27.9466 135.643 28.6846C137.247 29.4226 138.67 28.3592 139.751 26.0172Z" fill="#E73440"></path>
<path d="M144.371 23.0883L148.608 25.5058L148.224 26.1741L144.691 24.1576L142.93 27.2434L146.109 29.0565L145.725 29.7248L142.546 27.9117L140.751 31.0556L144.365 33.1186L143.982 33.7869L139.664 31.3229L144.365 23.0825L144.371 23.0883Z" fill="#E73440"></path>
<path d="M151.571 33.0082L151.972 27.6385L152.693 28.1616L152.344 32.7002L156.551 30.9684L157.266 31.4856L152.292 33.5312L151.85 39.2786L151.118 38.7439L151.507 33.8508L146.963 35.7221L146.23 35.1874L151.571 33.0024V33.0082Z" fill="#E73440"></path>
<path d="M155.016 35.7453C156.975 33.4963 159.096 32.8106 160.827 34.3157C162.548 35.8092 162.158 38.0117 160.2 40.2607C158.241 42.5097 156.114 43.1954 154.4 41.7019C152.668 40.1968 153.058 38.0001 155.016 35.7511V35.7453ZM159.59 39.7203C161.281 37.7793 161.658 36.0417 160.328 34.8852C158.997 33.7288 157.317 34.3332 155.626 36.28C153.935 38.2209 153.569 39.9701 154.894 41.1266C156.225 42.283 157.893 41.667 159.584 39.7261L159.59 39.7203Z" fill="#E73440"></path>
<path d="M157.713 43.9393L158.277 43.393C158.532 44.2414 158.991 44.9272 159.642 45.6013C160.357 46.3393 161.577 46.9728 162.676 45.9093C163.786 44.8342 163.199 43.608 162.635 43.0211L161.723 42.0738L162.269 41.545L163.129 42.4341C163.821 43.1431 164.843 43.2884 165.651 42.5039C166.575 41.6089 166.325 40.6036 165.448 39.7028C164.936 39.1798 164.332 38.8021 163.548 38.5231L164.1 37.9827C164.843 38.2267 165.459 38.6277 166.035 39.2205C167.185 40.4118 167.482 41.8646 166.279 43.0211C165.425 43.8521 164.309 43.8172 163.606 43.4395C164.007 44.0903 164.349 45.4386 163.199 46.5485C161.769 47.9374 160.101 47.1703 159.131 46.165C158.497 45.5141 158.021 44.8226 157.707 43.9393H157.713Z" fill="#E73440"></path>
<path d="M173.009 47.3912L165.669 53.4059L165.163 52.7899L168.133 50.355L166.878 48.8208C166.82 48.7452 166.756 48.6755 166.715 48.5999L162.351 49.3496L161.775 48.6464L166.279 47.8968C165.745 46.7055 166.041 45.549 167.122 44.6657C168.609 43.4453 170.155 43.8986 171.196 45.1655L173.009 47.3796V47.3912ZM171.904 47.2633L170.574 45.6362C169.789 44.6831 168.732 44.41 167.639 45.3049C166.57 46.1824 166.605 47.2924 167.401 48.2687L168.714 49.8726L171.904 47.2575V47.2633Z" fill="#E73440"></path>
<path d="M169.667 59.1765L174.549 55.8873C175.211 55.4398 175.816 55.0679 176.374 54.7425L167.227 55.5561L166.756 54.8587L174.63 49.5588L175.083 50.2329L170.214 53.5105C169.539 53.9638 168.947 54.3299 168.377 54.6669L177.524 53.8533L177.995 54.5507L170.121 59.8506L169.667 59.1765ZM176.554 49.9307L177.117 49.553C177.135 50.1632 177.315 50.6746 177.646 51.1627C177.972 51.6451 178.378 52.0112 178.936 52.2552L178.373 52.633C177.826 52.4296 177.425 52.0751 177.071 51.5463C176.716 51.0174 176.542 50.5118 176.554 49.9307Z" fill="#E73440"></path>
<path d="M174.896 58.7348C177.657 57.2297 180.016 57.7469 181.05 59.624C181.364 60.1935 181.521 60.7862 181.492 61.408L180.853 61.7625C180.864 61.1698 180.719 60.5945 180.405 60.0308C179.545 58.4792 177.68 58.1479 175.286 59.4496C173.025 60.6816 172.258 62.3727 173.135 63.965C173.461 64.5578 173.902 65.0111 174.455 65.3714L173.78 65.7433C173.188 65.3423 172.746 64.8251 172.421 64.2323C171.456 62.4889 172.043 60.2923 174.896 58.7348Z" fill="#E73440"></path>
<path d="M182.696 64.982L181.615 62.5993L182.318 62.2797L184.817 67.7888L184.114 68.1085L183.033 65.7258L175.089 69.3288L174.752 68.585L182.696 64.982Z" fill="#E73440"></path>
<path d="M185.049 75.3959C183.822 75.8317 182.991 75.3552 182.579 74.8089C182.654 75.5121 182.439 76.715 180.911 77.2729C178.836 77.9993 177.86 76.378 177.442 75.2041L176.512 72.6006L185.45 69.416L186.374 72.0079C186.955 73.6292 186.583 74.8554 185.049 75.4017V75.3959ZM181.074 71.8335L177.511 73.1004L178.116 74.7973C178.493 75.8549 179.063 77.0463 180.713 76.4768C182.294 75.9014 182.056 74.5881 181.759 73.7571L181.074 71.8277V71.8335ZM184.996 70.4388L181.794 71.5778L182.497 73.542C182.834 74.4835 183.572 75.0588 184.682 74.6636C185.88 74.2336 186.071 73.4374 185.63 72.1996L185.002 70.4388H184.996Z" fill="#E73440"></path>
<path d="M183.335 77.7378C186.229 76.9998 188.368 77.6506 188.932 79.8705C189.495 82.0788 187.926 83.6653 185.032 84.4034C182.138 85.1414 180.006 84.4905 179.442 82.2822C178.878 80.0623 180.447 78.47 183.335 77.7378ZM184.835 83.613C187.334 82.9796 188.635 81.765 188.199 80.0565C187.764 78.348 186.038 77.8889 183.539 78.5281C181.04 79.1616 179.744 80.3878 180.18 82.0963C180.616 83.8048 182.336 84.2465 184.835 83.613Z" fill="#E73440"></path>
<path d="M102 0C45.6652 0 0 45.6652 0 102C0 158.335 45.6652 204 102 204C158.335 204 204 158.335 204 102C204 45.6652 158.335 0 102 0ZM102 201.548C47.0251 201.548 2.45818 156.981 2.45818 102.006C2.45818 47.0309 47.0251 2.45818 102 2.45818C156.975 2.45818 201.542 47.0251 201.542 102C201.542 156.975 156.975 201.542 102 201.542V201.548Z" fill="#E73440"></path>
</g>
<defs>
<clipPath id="clip0_6011_3955">
<rect width="204" height="204" fill="white"></rect>
</clipPath>
</defs>
</svg>